M48
; DRILL file {KiCad 9.0.0} date 2025-03-28T16:19:57+0200
; FORMAT={-:-/ absolute / inch / decimal}
; #@! TF.CreationDate,2025-03-28T16:19:57+02:00
; #@! TF.GenerationSoftware,Kicad,Pcbnew,9.0.0
; #@! TF.FileFunction,Plated,1,2,PTH
FMAT,2
INCH
; #@! TA.AperFunction,Plated,PTH,ViaDrill
T1C0.0118
; #@! TA.AperFunction,Plated,PTH,ComponentDrill
T2C0.0295
; #@! TA.AperFunction,Plated,PTH,ComponentDrill
T3C0.0354
; #@! TA.AperFunction,Plated,PTH,ComponentDrill
T4C0.0394
; #@! TA.AperFunction,Plated,PTH,ComponentDrill
T5C0.0630
; #@! TA.AperFunction,Plated,PTH,ComponentDrill
T6C0.0669
%
G90
G05
T1
X7.2835Y-2.8543
X7.3425Y-2.9528
X7.4409Y-3.1693
X7.4409Y-3.7992
X7.5118Y-2.7559
X7.5118Y-3.6378
X7.6299Y-3.685
X7.6575Y-2.7559
X7.6772Y-2.9134
X7.7008Y-4.6142
X7.7402Y-3.5197
X7.7638Y-4.126
X7.8268Y-4.5197
X7.8543Y-4.1142
X7.874Y-3.7008
X7.8937Y-3.2087
X8.0118Y-4.5866
X8.0906Y-4.0157
X8.0906Y-4.3898
X8.1181Y-3.4961
X8.1575Y-4.3858
X8.2205Y-3.622
X8.2205Y-4.0236
X8.2598Y-4.0236
X8.3858Y-3.2874
X8.4055Y-3.6024
X8.4646Y-4.252
X8.4843Y-4.4685
X8.5118Y-4.4331
X8.5197Y-4.3307
X8.5236Y-3.0906
X8.5433Y-4.5079
X8.5984Y-3.8228
X8.622Y-3.248
X8.6516Y-2.8937
X8.6614Y-2.9823
X8.6614Y-4.4291
X8.6772Y-4.0157
X8.6811Y-4.4685
X8.7087Y-4.0079
X8.7165Y-4.3937
X8.7205Y-3.1693
X8.748Y-4.0236
X8.7598Y-4.2323
X8.7638Y-4.1969
X8.7992Y-3.1102
X8.7992Y-4.7638
X8.811Y-4.0236
X8.8268Y-3.9764
X8.8583Y-4.4882
X8.874Y-4.1575
X8.9291Y-4.1181
X8.937Y-3.7008
X8.9469Y-3.9469
X8.9488Y-3.8268
X8.9567Y-3.5236
X8.9587Y-3.4232
X8.9961Y-4.4882
X9.0157Y-3.6417
X9.0157Y-3.9665
X9.0197Y-3.3228
X9.0354Y-4.3898
X9.0394Y-3.7717
X9.0551Y-4.311
X9.063Y-3.185
X9.0945Y-3.9449
X9.1417Y-3.9606
X9.1535Y-3.7402
X9.1575Y-3.8189
X9.1783Y-4.3161
X9.1929Y-3.6417
X9.2126Y-3.9685
X9.2126Y-4.3307
X9.311Y-3.6417
X9.3307Y-3.8976
X9.3701Y-3.3858
X9.3701Y-4.2913
X9.3898Y-3.7598
X9.3898Y-4.5079
X9.3937Y-3.9291
X9.5079Y-3.1594
X9.5669Y-4.1732
X9.5866Y-3.6417
X9.6063Y-4.1339
X9.6654Y-4.5866
X9.7126Y-3.0276
X9.7165Y-4.1339
X9.7402Y-4.1732
X9.7638Y-4.2126
X9.7638Y-4.4291
X9.7677Y-2.9252
X9.7779Y-3.0174
X9.7874Y-4.252
X9.8346Y-4.1339
X9.8661Y-4.1732
X9.8898Y-3.0472
X9.8976Y-4.2126
X9.9213Y-3.2677
X9.9449Y-4.252
X9.9685Y-4.6929
X9.9803Y-3.1299
X10.0Y-3.3071
X10.0157Y-4.4252
X10.0394Y-4.7047
X10.0984Y-3.0906
X10.0984Y-4.7047
X10.1024Y-3.2835
X10.1378Y-2.9331
X10.1772Y-4.685
X10.1969Y-3.1693
X10.2165Y-4.7047
X10.2559Y-3.0787
X10.2559Y-4.7244
X10.2953Y-4.7441
X10.315Y-4.0551
X10.3268Y-3.122
X10.3307Y-3.5157
X10.3543Y-3.0906
T2
X7.5984Y-4.4665
X7.6772Y-4.4665
T4
X8.0976Y-4.5938
X8.0976Y-4.6938
X8.1976Y-4.5938
X8.1976Y-4.6938
X8.2976Y-4.5938
X8.2976Y-4.6938
X8.3976Y-4.5938
X8.3976Y-4.6938
X8.4976Y-4.5938
X8.4976Y-4.6938
X8.5976Y-4.5938
X8.5976Y-4.6938
X8.6976Y-4.5938
X8.6976Y-4.6938
X8.7976Y-4.5938
X8.7976Y-4.6938
X8.8976Y-4.5938
X8.8976Y-4.6938
X8.9976Y-4.5938
X8.9976Y-4.6938
X9.0976Y-4.5938
X9.0976Y-4.6938
X9.1976Y-4.5938
X9.1976Y-4.6938
X9.2976Y-4.5938
X9.2976Y-4.6938
X9.3976Y-4.5938
X9.3976Y-4.6938
X9.4976Y-4.5938
X9.4976Y-4.6938
X9.5976Y-4.5938
X9.5976Y-4.6938
T5
X7.9272Y-2.8009
X8.4508Y-2.8009
T6
X8.0Y-3.1631
X8.189Y-3.1631
X8.378Y-3.1631
T3
G00X9.9657Y-2.8533
M15
G01X9.9657Y-2.8061
M16
G05
G00X10.3059Y-2.8533
M15
G01X10.3059Y-2.8061
M16
G05
T4
G00X9.9754Y-3.0246
M15
G01X9.9754Y-2.9931
M16
G05
G00X10.2963Y-3.0246
M15
G01X10.2963Y-2.9931
M16
G05
M30
