%TF.GenerationSoftware,KiCad,Pcbnew,9.0.0*%
%TF.CreationDate,2025-03-28T16:19:56+02:00*%
%TF.ProjectId,powerSubsys full final,706f7765-7253-4756-9273-79732066756c,rev?*%
%TF.SameCoordinates,Original*%
%TF.FileFunction,Soldermask,Top*%
%TF.FilePolarity,Negative*%
%FSLAX46Y46*%
G04 Gerber Fmt 4.6, Leading zero omitted, Abs format (unit mm)*
G04 Created by KiCad (PCBNEW 9.0.0) date 2025-03-28 16:19:56*
%MOMM*%
%LPD*%
G01*
G04 APERTURE LIST*
G04 Aperture macros list*
%AMRoundRect*
0 Rectangle with rounded corners*
0 $1 Rounding radius*
0 $2 $3 $4 $5 $6 $7 $8 $9 X,Y pos of 4 corners*
0 Add a 4 corners polygon primitive as box body*
4,1,4,$2,$3,$4,$5,$6,$7,$8,$9,$2,$3,0*
0 Add four circle primitives for the rounded corners*
1,1,$1+$1,$2,$3*
1,1,$1+$1,$4,$5*
1,1,$1+$1,$6,$7*
1,1,$1+$1,$8,$9*
0 Add four rect primitives between the rounded corners*
20,1,$1+$1,$2,$3,$4,$5,0*
20,1,$1+$1,$4,$5,$6,$7,0*
20,1,$1+$1,$6,$7,$8,$9,0*
20,1,$1+$1,$8,$9,$2,$3,0*%
%AMFreePoly0*
4,1,29,2.200000,0.590000,1.430000,0.590000,1.430000,0.330000,2.200000,0.330000,2.200000,0.130000,1.430000,0.130000,1.430000,-0.130000,2.200000,-0.130000,2.200000,-0.330000,1.430000,-0.330000,1.430000,-0.590000,2.200000,-0.590000,2.200000,-0.790000,-2.200000,-0.790000,-2.200000,-0.590000,-1.430000,-0.590000,-1.430000,-0.330000,-2.200000,-0.330000,-2.200000,-0.130000,-1.430000,-0.130000,
-1.430000,0.130000,-2.200000,0.130000,-2.200000,0.330000,-1.430000,0.330000,-1.430000,0.590000,-2.200000,0.590000,-2.200000,0.790000,2.200000,0.790000,2.200000,0.590000,2.200000,0.590000,$1*%
%AMFreePoly1*
4,1,23,0.500000,-0.750000,0.000000,-0.750000,0.000000,-0.745722,-0.065263,-0.745722,-0.191342,-0.711940,-0.304381,-0.646677,-0.396677,-0.554381,-0.461940,-0.441342,-0.495722,-0.315263,-0.495722,-0.250000,-0.500000,-0.250000,-0.500000,0.250000,-0.495722,0.250000,-0.495722,0.315263,-0.461940,0.441342,-0.396677,0.554381,-0.304381,0.646677,-0.191342,0.711940,-0.065263,0.745722,0.000000,0.745722,
0.000000,0.750000,0.500000,0.750000,0.500000,-0.750000,0.500000,-0.750000,$1*%
%AMFreePoly2*
4,1,23,0.000000,0.745722,0.065263,0.745722,0.191342,0.711940,0.304381,0.646677,0.396677,0.554381,0.461940,0.441342,0.495722,0.315263,0.495722,0.250000,0.500000,0.250000,0.500000,-0.250000,0.495722,-0.250000,0.495722,-0.315263,0.461940,-0.441342,0.396677,-0.554381,0.304381,-0.646677,0.191342,-0.711940,0.065263,-0.745722,0.000000,-0.745722,0.000000,-0.750000,-0.500000,-0.750000,
-0.500000,0.750000,0.000000,0.750000,0.000000,0.745722,0.000000,0.745722,$1*%
%AMFreePoly3*
4,1,9,3.862500,-0.866500,0.737500,-0.866500,0.737500,-0.450000,-0.737500,-0.450000,-0.737500,0.450000,0.737500,0.450000,0.737500,0.866500,3.862500,0.866500,3.862500,-0.866500,3.862500,-0.866500,$1*%
G04 Aperture macros list end*
%ADD10R,1.410000X1.350000*%
%ADD11C,1.500000*%
%ADD12R,0.800000X0.900000*%
%ADD13R,1.350000X1.410000*%
%ADD14O,0.343000X1.731500*%
%ADD15R,1.485000X1.728000*%
%ADD16R,0.900000X0.800000*%
%ADD17R,0.540000X0.790000*%
%ADD18R,0.250000X0.700000*%
%ADD19FreePoly0,0.000000*%
%ADD20FreePoly1,0.000000*%
%ADD21FreePoly2,0.000000*%
%ADD22R,0.790000X0.540000*%
%ADD23O,1.524000X2.200000*%
%ADD24O,1.300000X2.500000*%
%ADD25R,0.250000X0.950000*%
%ADD26R,1.000000X1.399500*%
%ADD27R,1.728000X1.485000*%
%ADD28RoundRect,0.150000X0.150000X-0.687500X0.150000X0.687500X-0.150000X0.687500X-0.150000X-0.687500X0*%
%ADD29R,3.300000X2.100000*%
%ADD30R,1.399500X1.000000*%
%ADD31R,1.250000X0.700000*%
%ADD32RoundRect,0.062500X-0.375000X-0.062500X0.375000X-0.062500X0.375000X0.062500X-0.375000X0.062500X0*%
%ADD33RoundRect,0.062500X-0.062500X-0.375000X0.062500X-0.375000X0.062500X0.375000X-0.062500X0.375000X0*%
%ADD34R,1.600000X1.600000*%
%ADD35RoundRect,0.250000X0.350000X0.625000X-0.350000X0.625000X-0.350000X-0.625000X0.350000X-0.625000X0*%
%ADD36O,1.200000X1.750000*%
%ADD37R,1.282500X3.456000*%
%ADD38RoundRect,0.093750X-0.093750X-0.106250X0.093750X-0.106250X0.093750X0.106250X-0.093750X0.106250X0*%
%ADD39R,1.000000X1.600000*%
%ADD40R,1.635000X2.160000*%
%ADD41RoundRect,0.150000X-0.825000X-0.150000X0.825000X-0.150000X0.825000X0.150000X-0.825000X0.150000X0*%
%ADD42C,2.500000*%
%ADD43R,1.700000X1.700000*%
%ADD44O,1.700000X1.700000*%
%ADD45RoundRect,0.225000X0.425000X0.225000X-0.425000X0.225000X-0.425000X-0.225000X0.425000X-0.225000X0*%
%ADD46FreePoly3,180.000000*%
G04 APERTURE END LIST*
%TO.C,JP2*%
G36*
X187000000Y-86250000D02*
G01*
X187300000Y-86250000D01*
X187300000Y-87750000D01*
X187000000Y-87750000D01*
X187000000Y-86250000D01*
G37*
%TD*%
D10*
%TO.C,R10*%
X213700000Y-89000000D03*
X215700000Y-89000000D03*
%TD*%
D11*
%TO.C,TP1*%
X186600000Y-71000000D03*
%TD*%
%TO.C,TP2*%
X216000000Y-80600000D03*
%TD*%
D12*
%TO.C,R23*%
X211600000Y-104200000D03*
X210200000Y-104200000D03*
%TD*%
D13*
%TO.C,R33*%
X257000000Y-81887500D03*
X257000000Y-79887500D03*
%TD*%
D14*
%TO.C,U7*%
X216850000Y-109232000D03*
X217500000Y-109232000D03*
X218150000Y-109232000D03*
X218800000Y-109232000D03*
X219450000Y-109232000D03*
X220100000Y-109232000D03*
X220750000Y-109232000D03*
X221400000Y-109232000D03*
X221400000Y-103500000D03*
X220750000Y-103500000D03*
X220100000Y-103500000D03*
X219450000Y-103500000D03*
X218800000Y-103500000D03*
X218150000Y-103500000D03*
X217500000Y-103500000D03*
X216850000Y-103500000D03*
%TD*%
D12*
%TO.C,R29*%
X203300000Y-88000000D03*
X204700000Y-88000000D03*
%TD*%
D15*
%TO.C,JP1*%
X194592500Y-88000000D03*
X191407500Y-88000000D03*
%TD*%
D12*
%TO.C,R11*%
X203992500Y-98500000D03*
X202592500Y-98500000D03*
%TD*%
D15*
%TO.C,R20*%
X232782500Y-111366000D03*
X235967500Y-111366000D03*
%TD*%
D13*
%TO.C,R21*%
X223500000Y-109000000D03*
X223500000Y-111000000D03*
%TD*%
D12*
%TO.C,R1*%
X203843000Y-102500000D03*
X202443000Y-102500000D03*
%TD*%
%TO.C,R4*%
X229125000Y-91115000D03*
X230525000Y-91115000D03*
%TD*%
D13*
%TO.C,L2*%
X221000000Y-84000000D03*
X221000000Y-82000000D03*
%TD*%
D16*
%TO.C,R26*%
X230000000Y-75000000D03*
X230000000Y-76400000D03*
%TD*%
D17*
%TO.C,C12*%
X223000000Y-105090000D03*
X223000000Y-104000000D03*
%TD*%
D13*
%TO.C,C26*%
X186000000Y-95500000D03*
X186000000Y-97500000D03*
%TD*%
D11*
%TO.C,TP3*%
X188800000Y-113600000D03*
%TD*%
D18*
%TO.C,U9*%
X190592500Y-77950000D03*
X191092500Y-77950000D03*
X191592500Y-77950000D03*
X192092500Y-77950000D03*
X192592500Y-77950000D03*
X193092500Y-77950000D03*
X193592500Y-77950000D03*
X193592500Y-75050000D03*
X193092500Y-75050000D03*
X192592500Y-75050000D03*
X192092500Y-75050000D03*
X191592500Y-75050000D03*
X191092500Y-75050000D03*
X190592500Y-75050000D03*
D19*
X192092500Y-76500000D03*
%TD*%
D16*
%TO.C,R18*%
X251500000Y-90887500D03*
X251500000Y-89487500D03*
%TD*%
D20*
%TO.C,JP2*%
X186500000Y-87000000D03*
D21*
X187800000Y-87000000D03*
%TD*%
D22*
%TO.C,C11*%
X229965000Y-102366000D03*
X228875000Y-102366000D03*
%TD*%
D12*
%TO.C,R5*%
X197500000Y-94000000D03*
X196100000Y-94000000D03*
%TD*%
D23*
%TO.C,USBC1*%
X253375000Y-76424000D03*
D24*
X253130000Y-71874000D03*
X261770000Y-71874000D03*
D23*
X261525000Y-76424000D03*
D25*
X260080000Y-77074000D03*
X259580000Y-77074000D03*
X259080000Y-77074000D03*
X258580000Y-77074000D03*
X258080000Y-77074000D03*
X257580000Y-77074000D03*
X257080000Y-77074000D03*
X256580000Y-77074000D03*
X256080000Y-77074000D03*
X255580000Y-77074000D03*
X255080000Y-77074000D03*
X254580000Y-77074000D03*
X254830000Y-75824000D03*
X255330000Y-75824000D03*
X255830000Y-75824000D03*
X256330000Y-75824000D03*
X256830000Y-75824000D03*
X257330000Y-75824000D03*
X257830000Y-75824000D03*
X258330000Y-75824000D03*
X258830000Y-75824000D03*
X259330000Y-75824000D03*
X259830000Y-75824000D03*
X260330000Y-75824000D03*
%TD*%
D11*
%TO.C,TP7*%
X208000000Y-83800000D03*
%TD*%
D26*
%TO.C,D1*%
X197542000Y-98500000D03*
X199643000Y-98500000D03*
%TD*%
D15*
%TO.C,R14*%
X195407500Y-72000000D03*
X198592500Y-72000000D03*
%TD*%
D13*
%TO.C,C10*%
X238375000Y-106866000D03*
X238375000Y-104866000D03*
%TD*%
D12*
%TO.C,C22*%
X255500000Y-110600000D03*
X256900000Y-110600000D03*
%TD*%
D15*
%TO.C,R35*%
X213315000Y-96700000D03*
X216500000Y-96700000D03*
%TD*%
D27*
%TO.C,R25*%
X196592500Y-78185000D03*
X196592500Y-75000000D03*
%TD*%
D11*
%TO.C,TP4*%
X250000000Y-72000000D03*
%TD*%
D13*
%TO.C,C21*%
X243775000Y-90115000D03*
X243775000Y-88115000D03*
%TD*%
D27*
%TO.C,R27*%
X227500000Y-75000000D03*
X227500000Y-78185000D03*
%TD*%
D13*
%TO.C,C16*%
X187592500Y-79000000D03*
X187592500Y-81000000D03*
%TD*%
D15*
%TO.C,R34*%
X213315000Y-93362500D03*
X216500000Y-93362500D03*
%TD*%
D28*
%TO.C,U6*%
X255000000Y-90637500D03*
X256000000Y-90637500D03*
X257000000Y-90637500D03*
X258000000Y-90637500D03*
X259000000Y-90637500D03*
X259000000Y-85362500D03*
X258000000Y-85362500D03*
X257000000Y-85362500D03*
X256000000Y-85362500D03*
X255000000Y-85362500D03*
D29*
X257000000Y-88000000D03*
%TD*%
D10*
%TO.C,C3*%
X194500000Y-92000000D03*
X196500000Y-92000000D03*
%TD*%
D13*
%TO.C,C6*%
X260112500Y-103150000D03*
X260112500Y-105150000D03*
%TD*%
D15*
%TO.C,R31*%
X226000000Y-72000000D03*
X229185000Y-72000000D03*
%TD*%
D10*
%TO.C,C14*%
X217000000Y-100000000D03*
X219000000Y-100000000D03*
%TD*%
D18*
%TO.C,U10*%
X221500000Y-77950000D03*
X222000000Y-77950000D03*
X222500000Y-77950000D03*
X223000000Y-77950000D03*
X223500000Y-77950000D03*
X224000000Y-77950000D03*
X224500000Y-77950000D03*
X224500000Y-75050000D03*
X224000000Y-75050000D03*
X223500000Y-75050000D03*
X223000000Y-75050000D03*
X222500000Y-75050000D03*
X222000000Y-75050000D03*
X221500000Y-75050000D03*
D19*
X223000000Y-76500000D03*
%TD*%
D12*
%TO.C,R28*%
X209600000Y-106200000D03*
X208200000Y-106200000D03*
%TD*%
D15*
%TO.C,C17*%
X192592500Y-72000000D03*
X189407500Y-72000000D03*
%TD*%
D30*
%TO.C,D3*%
X251500000Y-84286500D03*
X251500000Y-86387500D03*
%TD*%
D31*
%TO.C,Q2*%
X210200000Y-88950000D03*
X210200000Y-87050000D03*
X208200000Y-88000000D03*
%TD*%
D13*
%TO.C,R12*%
X252400000Y-115600000D03*
X252400000Y-113600000D03*
%TD*%
D26*
%TO.C,D2*%
X197542000Y-102500000D03*
X199643000Y-102500000D03*
%TD*%
D32*
%TO.C,U3*%
X190162500Y-95850000D03*
X190162500Y-96350000D03*
X190162500Y-96850000D03*
X190162500Y-97350000D03*
D33*
X190850000Y-98037500D03*
X191350000Y-98037500D03*
X191850000Y-98037500D03*
X192350000Y-98037500D03*
D32*
X193037500Y-97350000D03*
X193037500Y-96850000D03*
X193037500Y-96350000D03*
X193037500Y-95850000D03*
D33*
X192350000Y-95162500D03*
X191850000Y-95162500D03*
X191350000Y-95162500D03*
X190850000Y-95162500D03*
D34*
X191600000Y-96600000D03*
%TD*%
D13*
%TO.C,C13*%
X222200000Y-97400000D03*
X222200000Y-99400000D03*
%TD*%
D10*
%TO.C,R7*%
X187500000Y-91500000D03*
X185500000Y-91500000D03*
%TD*%
D35*
%TO.C,J2*%
X195000000Y-113450000D03*
D36*
X193000000Y-113450000D03*
%TD*%
D22*
%TO.C,C7*%
X255567500Y-106150000D03*
X256657500Y-106150000D03*
%TD*%
D15*
%TO.C,C20*%
X223185000Y-72000000D03*
X220000000Y-72000000D03*
%TD*%
D37*
%TO.C,R3*%
X239678500Y-81615000D03*
X233545500Y-81615000D03*
%TD*%
D12*
%TO.C,R8*%
X198300000Y-88000000D03*
X199700000Y-88000000D03*
%TD*%
D11*
%TO.C,TP6*%
X247500000Y-80800000D03*
%TD*%
D10*
%TO.C,C24*%
X246000000Y-72000000D03*
X244000000Y-72000000D03*
%TD*%
D38*
%TO.C,U4*%
X255512500Y-113850000D03*
X255512500Y-114500000D03*
X255512500Y-115150000D03*
X257287500Y-115150000D03*
X257287500Y-114500000D03*
X257287500Y-113850000D03*
D39*
X256400000Y-114500000D03*
%TD*%
D12*
%TO.C,R2*%
X229125000Y-87615000D03*
X230525000Y-87615000D03*
%TD*%
%TO.C,C25*%
X245700000Y-76000000D03*
X244300000Y-76000000D03*
%TD*%
D16*
%TO.C,C15*%
X187592500Y-75700000D03*
X187592500Y-74300000D03*
%TD*%
D13*
%TO.C,R13*%
X252112500Y-105150000D03*
X252112500Y-103150000D03*
%TD*%
D12*
%TO.C,R16*%
X252900000Y-80887500D03*
X251500000Y-80887500D03*
%TD*%
%TO.C,R15*%
X260050000Y-80887500D03*
X261450000Y-80887500D03*
%TD*%
D40*
%TO.C,L1*%
X193260000Y-81000000D03*
X190925000Y-81000000D03*
%TD*%
D10*
%TO.C,C9*%
X232875000Y-99366000D03*
X234875000Y-99366000D03*
%TD*%
D16*
%TO.C,C18*%
X218500000Y-75750000D03*
X218500000Y-74350000D03*
%TD*%
D13*
%TO.C,C19*%
X218500000Y-78500000D03*
X218500000Y-80500000D03*
%TD*%
D12*
%TO.C,R24*%
X206000000Y-110200000D03*
X204600000Y-110200000D03*
%TD*%
D41*
%TO.C,U1*%
X234050000Y-87460000D03*
X234050000Y-88730000D03*
X234050000Y-90000000D03*
X234050000Y-91270000D03*
X239000000Y-91270000D03*
X239000000Y-90000000D03*
X239000000Y-88730000D03*
X239000000Y-87460000D03*
%TD*%
D13*
%TO.C,C4*%
X259900000Y-113600000D03*
X259900000Y-115600000D03*
%TD*%
D11*
%TO.C,TP8*%
X232800000Y-73400000D03*
%TD*%
D42*
%TO.C,SW1*%
X203200000Y-80343500D03*
X208000000Y-80343500D03*
X212800000Y-80343500D03*
X201350000Y-71143500D03*
X214650000Y-71143500D03*
%TD*%
D14*
%TO.C,U2*%
X231825000Y-107877750D03*
X232475000Y-107877750D03*
X233125000Y-107877750D03*
X233775000Y-107877750D03*
X234425000Y-107877750D03*
X235075000Y-107877750D03*
X235725000Y-107877750D03*
X236375000Y-107877750D03*
X236375000Y-102145750D03*
X235725000Y-102145750D03*
X235075000Y-102145750D03*
X234425000Y-102145750D03*
X233775000Y-102145750D03*
X233125000Y-102145750D03*
X232475000Y-102145750D03*
X231825000Y-102145750D03*
%TD*%
D43*
%TO.C,J1*%
X243780000Y-116683500D03*
D44*
X243780000Y-119223500D03*
X241240000Y-116683500D03*
X241240000Y-119223500D03*
X238700000Y-116683500D03*
X238700000Y-119223500D03*
X236160000Y-116683500D03*
X236160000Y-119223500D03*
X233620000Y-116683500D03*
X233620000Y-119223500D03*
X231080000Y-116683500D03*
X231080000Y-119223500D03*
X228540000Y-116683500D03*
X228540000Y-119223500D03*
X226000000Y-116683500D03*
X226000000Y-119223500D03*
X223460000Y-116683500D03*
X223460000Y-119223500D03*
X220920000Y-116683500D03*
X220920000Y-119223500D03*
X218380000Y-116683500D03*
X218380000Y-119223500D03*
X215840000Y-116683500D03*
X215840000Y-119223500D03*
X213300000Y-116683500D03*
X213300000Y-119223500D03*
X210760000Y-116683500D03*
X210760000Y-119223500D03*
X208220000Y-116683500D03*
X208220000Y-119223500D03*
X205680000Y-116683500D03*
X205680000Y-119223500D03*
%TD*%
D10*
%TO.C,C8*%
X255000000Y-95137500D03*
X257000000Y-95137500D03*
%TD*%
D12*
%TO.C,R22*%
X213400000Y-102500000D03*
X212000000Y-102500000D03*
%TD*%
%TO.C,C23*%
X254912500Y-100150000D03*
X256312500Y-100150000D03*
%TD*%
D13*
%TO.C,R19*%
X229875000Y-104366000D03*
X229875000Y-106366000D03*
%TD*%
D22*
%TO.C,C5*%
X255810000Y-116600000D03*
X256900000Y-116600000D03*
%TD*%
D10*
%TO.C,C2*%
X191000000Y-101000000D03*
X189000000Y-101000000D03*
%TD*%
D16*
%TO.C,R30*%
X199592500Y-75100000D03*
X199592500Y-76500000D03*
%TD*%
D38*
%TO.C,U5*%
X255112500Y-103350000D03*
X255112500Y-104000000D03*
X255112500Y-104650000D03*
X256887500Y-104650000D03*
X256887500Y-104000000D03*
X256887500Y-103350000D03*
D39*
X256000000Y-104000000D03*
%TD*%
D12*
%TO.C,R9*%
X214000000Y-85500000D03*
X215400000Y-85500000D03*
%TD*%
D11*
%TO.C,TP5*%
X205750000Y-94000000D03*
%TD*%
D45*
%TO.C,U8*%
X239950000Y-75500000D03*
D46*
X239862500Y-74000000D03*
D45*
X239950000Y-72500000D03*
%TD*%
D16*
%TO.C,C1*%
X246775000Y-90515000D03*
X246775000Y-89115000D03*
%TD*%
D12*
%TO.C,R32*%
X208000000Y-108200000D03*
X206600000Y-108200000D03*
%TD*%
M02*
