%TF.GenerationSoftware,KiCad,Pcbnew,9.0.0*%
%TF.CreationDate,2025-03-28T16:19:56+02:00*%
%TF.ProjectId,powerSubsys full final,706f7765-7253-4756-9273-79732066756c,rev?*%
%TF.SameCoordinates,Original*%
%TF.FileFunction,Copper,L2,Bot*%
%TF.FilePolarity,Positive*%
%FSLAX46Y46*%
G04 Gerber Fmt 4.6, Leading zero omitted, Abs format (unit mm)*
G04 Created by KiCad (PCBNEW 9.0.0) date 2025-03-28 16:19:56*
%MOMM*%
%LPD*%
G01*
G04 APERTURE LIST*
G04 Aperture macros list*
%AMRoundRect*
0 Rectangle with rounded corners*
0 $1 Rounding radius*
0 $2 $3 $4 $5 $6 $7 $8 $9 X,Y pos of 4 corners*
0 Add a 4 corners polygon primitive as box body*
4,1,4,$2,$3,$4,$5,$6,$7,$8,$9,$2,$3,0*
0 Add four circle primitives for the rounded corners*
1,1,$1+$1,$2,$3*
1,1,$1+$1,$4,$5*
1,1,$1+$1,$6,$7*
1,1,$1+$1,$8,$9*
0 Add four rect primitives between the rounded corners*
20,1,$1+$1,$2,$3,$4,$5,0*
20,1,$1+$1,$4,$5,$6,$7,0*
20,1,$1+$1,$6,$7,$8,$9,0*
20,1,$1+$1,$8,$9,$2,$3,0*%
G04 Aperture macros list end*
%TA.AperFunction,ComponentPad*%
%ADD10O,1.524000X2.200000*%
%TD*%
%TA.AperFunction,ComponentPad*%
%ADD11O,1.300000X2.500000*%
%TD*%
%TA.AperFunction,ComponentPad*%
%ADD12RoundRect,0.250000X0.350000X0.625000X-0.350000X0.625000X-0.350000X-0.625000X0.350000X-0.625000X0*%
%TD*%
%TA.AperFunction,ComponentPad*%
%ADD13O,1.200000X1.750000*%
%TD*%
%TA.AperFunction,ComponentPad*%
%ADD14C,2.500000*%
%TD*%
%TA.AperFunction,ComponentPad*%
%ADD15R,1.700000X1.700000*%
%TD*%
%TA.AperFunction,ComponentPad*%
%ADD16O,1.700000X1.700000*%
%TD*%
%TA.AperFunction,ViaPad*%
%ADD17C,0.600000*%
%TD*%
%TA.AperFunction,Conductor*%
%ADD18C,0.500000*%
%TD*%
%TA.AperFunction,Conductor*%
%ADD19C,0.250000*%
%TD*%
%TA.AperFunction,Conductor*%
%ADD20C,0.200000*%
%TD*%
G04 APERTURE END LIST*
D10*
%TO.P,USBC1,1,1*%
%TO.N,unconnected-(USBC1-Pad1)*%
X253375000Y-76424000D03*
D11*
%TO.P,USBC1,2,2*%
%TO.N,unconnected-(USBC1-Pad2)*%
X253130000Y-71874000D03*
%TO.P,USBC1,3,3*%
%TO.N,unconnected-(USBC1-Pad3)*%
X261770000Y-71874000D03*
D10*
%TO.P,USBC1,4,4*%
%TO.N,unconnected-(USBC1-Pad4)*%
X261525000Y-76424000D03*
%TD*%
D12*
%TO.P,J2,1,Pin_1*%
%TO.N,/Battery*%
X195000000Y-113450000D03*
D13*
%TO.P,J2,2,Pin_2*%
%TO.N,GND*%
X193000000Y-113450000D03*
%TD*%
D14*
%TO.P,SW1,1,1*%
%TO.N,/Battery*%
X203200000Y-80343500D03*
%TO.P,SW1,2,2*%
%TO.N,Vsupply*%
X208000000Y-80343500D03*
%TO.P,SW1,3,3*%
%TO.N,unconnected-(SW1-Pad3)*%
X212800000Y-80343500D03*
%TO.P,SW1,4,4*%
%TO.N,unconnected-(SW1-Pad4)*%
X201350000Y-71143500D03*
%TO.P,SW1,5,5*%
%TO.N,unconnected-(SW1-Pad5)*%
X214650000Y-71143500D03*
%TD*%
D15*
%TO.P,J1,1,Pin_1*%
%TO.N,/Motor2_B_OUT*%
X243780000Y-116683500D03*
D16*
%TO.P,J1,2,Pin_2*%
%TO.N,/Motor2_A_OUT*%
X243780000Y-119223500D03*
%TO.P,J1,3,Pin_3*%
%TO.N,/Motor4_A_OUT*%
X241240000Y-116683500D03*
%TO.P,J1,4,Pin_4*%
%TO.N,/MOTOR2_CTRL1*%
X241240000Y-119223500D03*
%TO.P,J1,5,Pin_5*%
%TO.N,/Motor4_B_OUT*%
X238700000Y-116683500D03*
%TO.P,J1,6,Pin_6*%
%TO.N,/MOTOR2_CTRL2*%
X238700000Y-119223500D03*
%TO.P,J1,7,Pin_7*%
%TO.N,/CTRL_EXT_LOAD2*%
X236160000Y-116683500D03*
%TO.P,J1,8,Pin_8*%
%TO.N,/MOTOR4_CTRL1*%
X236160000Y-119223500D03*
%TO.P,J1,9,Pin_9*%
%TO.N,/USART2_RX*%
X233620000Y-116683500D03*
%TO.P,J1,10,Pin_10*%
%TO.N,/MOTOR4_CTRL2*%
X233620000Y-119223500D03*
%TO.P,J1,11,Pin_11*%
%TO.N,/EXT_LOAD2_OUT*%
X231080000Y-116683500D03*
%TO.P,J1,12,Pin_12*%
%TO.N,/USART2_TX*%
X231080000Y-119223500D03*
%TO.P,J1,13,Pin_13*%
%TO.N,/FAST_CHARGE_CTRL*%
X228540000Y-116683500D03*
%TO.P,J1,14,Pin_14*%
%TO.N,/Battery*%
X228540000Y-119223500D03*
%TO.P,J1,15,Pin_15*%
%TO.N,unconnected-(J1-Pin_15-Pad15)*%
X226000000Y-116683500D03*
%TO.P,J1,16,Pin_16*%
%TO.N,/I2C1_SCL*%
X226000000Y-119223500D03*
%TO.P,J1,17,Pin_17*%
%TO.N,/I2C1_SDA*%
X223460000Y-116683500D03*
%TO.P,J1,18,Pin_18*%
%TO.N,3V3 Out*%
X223460000Y-119223500D03*
%TO.P,J1,19,Pin_19*%
%TO.N,GND*%
X220920000Y-116683500D03*
%TO.P,J1,20,Pin_20*%
%TO.N,5V Out*%
X220920000Y-119223500D03*
%TO.P,J1,21,Pin_21*%
%TO.N,/EXT_LOAD1_OUT*%
X218380000Y-116683500D03*
%TO.P,J1,22,Pin_22*%
%TO.N,+9V*%
X218380000Y-119223500D03*
%TO.P,J1,23,Pin_23*%
%TO.N,GND*%
X215840000Y-116683500D03*
%TO.P,J1,24,Pin_24*%
%TO.N,/MOTOR3_CTRL1*%
X215840000Y-119223500D03*
%TO.P,J1,25,Pin_25*%
%TO.N,/CTRL_EXT_LOAD1*%
X213300000Y-116683500D03*
%TO.P,J1,26,Pin_26*%
%TO.N,/MOTOR3_CTRL2*%
X213300000Y-119223500D03*
%TO.P,J1,27,Pin_27*%
%TO.N,/MOTOR3_A_OUT*%
X210760000Y-116683500D03*
%TO.P,J1,28,Pin_28*%
%TO.N,/MOTOR1_CTRL1*%
X210760000Y-119223500D03*
%TO.P,J1,29,Pin_29*%
%TO.N,/MOTOR3_B_OUT*%
X208220000Y-116683500D03*
%TO.P,J1,30,Pin_30*%
%TO.N,/MOTOR1_CTRL2*%
X208220000Y-119223500D03*
%TO.P,J1,31,Pin_31*%
%TO.N,/MOTOR1_B_OUT*%
X205680000Y-116683500D03*
%TO.P,J1,32,Pin_32*%
%TO.N,/MOTOR1_A_OUT*%
X205680000Y-119223500D03*
%TD*%
D17*
%TO.N,+9V*%
X197200000Y-104800000D03*
X200000000Y-94000000D03*
X248359000Y-76641000D03*
X193800000Y-93600000D03*
%TO.N,/Battery*%
X243000000Y-106000000D03*
X189000000Y-96500000D03*
X236500000Y-92500000D03*
X250600000Y-106000000D03*
X200500000Y-81500000D03*
X260500000Y-120000000D03*
X247400000Y-106000000D03*
X238500000Y-95500000D03*
X238000000Y-86000000D03*
%TO.N,3V3 Out*%
X190800000Y-70000000D03*
X195000000Y-74000000D03*
X223500000Y-121000000D03*
%TO.N,GND*%
X186500000Y-75000000D03*
X185000000Y-72500000D03*
X221500000Y-80500000D03*
X246700000Y-76900000D03*
X219750000Y-73500000D03*
X205500000Y-111500000D03*
X256600000Y-83400000D03*
X248100000Y-74300000D03*
X227000000Y-94000000D03*
X241500000Y-80250000D03*
X199500000Y-104500000D03*
X253200000Y-119200000D03*
X215500000Y-113500000D03*
X220000000Y-75750000D03*
X262400000Y-89300000D03*
X194500000Y-70000000D03*
X254400000Y-112400000D03*
X232500000Y-95000000D03*
X206200000Y-88800000D03*
X205500000Y-102000000D03*
X189000000Y-80500000D03*
X260500000Y-78200000D03*
X234000000Y-100800000D03*
X251200000Y-77400000D03*
X219000000Y-82500000D03*
X213000000Y-83500000D03*
%TO.N,Vsupply*%
X227250000Y-100250000D03*
X229000000Y-100750000D03*
%TO.N,5V Out*%
X218400000Y-97100000D03*
X243500000Y-92500000D03*
X216500000Y-78500000D03*
X227300000Y-97200000D03*
X223500000Y-79000000D03*
X262000000Y-103000000D03*
X227500000Y-89500000D03*
%TO.N,/EXT_LOAD1_OUT*%
X220500000Y-113500000D03*
X248000000Y-112500000D03*
%TO.N,Net-(U6-CC2)*%
X253500000Y-79500000D03*
X257500000Y-74500000D03*
%TO.N,DM*%
X256500000Y-78500000D03*
X262300000Y-79300000D03*
%TO.N,Net-(D3-K)*%
X254000000Y-84000000D03*
X252000000Y-83000000D03*
%TO.N,Net-(U6-CC1)*%
X263000000Y-78500000D03*
X259000000Y-80500000D03*
%TO.N,/I2C1_SCL*%
X244000000Y-105000000D03*
X261500000Y-120500000D03*
X229000000Y-92500000D03*
X246800000Y-105000000D03*
X249800000Y-105000000D03*
X233500000Y-92500000D03*
%TO.N,Net-(Q2-C)*%
X196600000Y-89400000D03*
X190800000Y-92400000D03*
%TO.N,/MOTOR1_A_OUT*%
X215000000Y-108000000D03*
X229500000Y-111500000D03*
%TO.N,/MOTOR2_CTRL1*%
X255000000Y-119500000D03*
X238600000Y-99800000D03*
%TO.N,/Motor2_A_OUT*%
X238000000Y-109000000D03*
%TO.N,/MOTOR1_B_OUT*%
X203500000Y-116500000D03*
X217000000Y-114500000D03*
X220000000Y-112500000D03*
X233128155Y-109628155D03*
%TO.N,/Motor2_B_OUT*%
X245500000Y-116500000D03*
X234000000Y-110000000D03*
%TO.N,/MOTOR2_CTRL2*%
X237000000Y-99000000D03*
X256500000Y-119500000D03*
%TO.N,/MOTOR1_CTRL2*%
X232600000Y-97000000D03*
X209800000Y-102200000D03*
X229600000Y-95800000D03*
X232200000Y-100600000D03*
%TO.N,/MOTOR1_CTRL1*%
X208800000Y-102200000D03*
X231000000Y-100200000D03*
%TO.N,Net-(U7-nSleep)*%
X221400000Y-111600000D03*
X216400000Y-110000000D03*
%TO.N,/MOTOR4_CTRL2*%
X226800000Y-104600000D03*
X259500000Y-119500000D03*
X248000000Y-107000000D03*
X224200000Y-101000000D03*
X221200000Y-101800000D03*
X251400000Y-107000000D03*
%TO.N,/Motor4_A_OUT*%
X225000000Y-114000000D03*
%TO.N,/MOTOR3_CTRL1*%
X195600000Y-117200000D03*
X198800000Y-114800000D03*
%TO.N,Net-(U7-VCP)*%
X222600000Y-106600000D03*
X220400000Y-102000000D03*
%TO.N,/MOTOR4_CTRL1*%
X222200000Y-102200000D03*
X225400000Y-105600000D03*
X252600000Y-108000000D03*
X258500000Y-119000000D03*
X248600000Y-108000000D03*
X223800000Y-102200000D03*
%TO.N,/Motor4_B_OUT*%
X238500000Y-114500000D03*
X222500000Y-107500000D03*
X228500000Y-114000000D03*
X230000000Y-109500000D03*
%TO.N,/FAST_CHARGE_CTRL*%
X213500000Y-91500000D03*
%TO.N,Net-(U7-AISEN)*%
X216200000Y-112600000D03*
X207200000Y-111400000D03*
%TO.N,Net-(R27-Pad2)*%
X229100000Y-84400000D03*
X208800000Y-92000000D03*
X230200000Y-80900000D03*
X227550000Y-86950000D03*
%TD*%
D18*
%TO.N,+9V*%
X208000000Y-96600000D02*
X202600000Y-96600000D01*
X260951000Y-103751000D02*
X255400000Y-98200000D01*
X197200000Y-104800000D02*
X200600000Y-101400000D01*
X227500000Y-92500000D02*
X212100000Y-92500000D01*
X237200000Y-98200000D02*
X232500000Y-93500000D01*
X262311075Y-103751000D02*
X260951000Y-103751000D01*
X200600000Y-101400000D02*
X200600000Y-97000000D01*
X262751000Y-91033000D02*
X262751000Y-103311075D01*
X255400000Y-98200000D02*
X237200000Y-98200000D01*
X193800000Y-93600000D02*
X194000000Y-93600000D01*
X200600000Y-97000000D02*
X197200000Y-93600000D01*
X228500000Y-93500000D02*
X227500000Y-92500000D01*
X262751000Y-103311075D02*
X262311075Y-103751000D01*
X202600000Y-96600000D02*
X200000000Y-94000000D01*
X232500000Y-93500000D02*
X228500000Y-93500000D01*
X197200000Y-93600000D02*
X193800000Y-93600000D01*
X212100000Y-92500000D02*
X208000000Y-96600000D01*
X248359000Y-76641000D02*
X262751000Y-91033000D01*
%TO.N,/Battery*%
X236500000Y-93500000D02*
X238500000Y-95500000D01*
X238000000Y-86000000D02*
X205000000Y-86000000D01*
X236500000Y-92500000D02*
X236500000Y-93500000D01*
X195000000Y-113450000D02*
X195000000Y-102500000D01*
X189000000Y-93000000D02*
X189000000Y-96500000D01*
X195000000Y-102500000D02*
X189000000Y-96500000D01*
X247400000Y-106000000D02*
X243000000Y-106000000D01*
X259500000Y-106000000D02*
X250600000Y-106000000D01*
X260000000Y-106500000D02*
X259500000Y-106000000D01*
X261000000Y-119500000D02*
X261000000Y-107500000D01*
X205000000Y-86000000D02*
X200500000Y-81500000D01*
X200500000Y-81500000D02*
X189000000Y-93000000D01*
X261000000Y-107500000D02*
X260000000Y-106500000D01*
X261000000Y-119500000D02*
X260500000Y-120000000D01*
%TO.N,3V3 Out*%
X190800000Y-70000000D02*
X192200000Y-70000000D01*
X218000000Y-126500000D02*
X190500000Y-126500000D01*
X190500000Y-126500000D02*
X186250000Y-122250000D01*
X192200000Y-70000000D02*
X195000000Y-72800000D01*
X186250000Y-93250000D02*
X195000000Y-84500000D01*
X186250000Y-122250000D02*
X186250000Y-93250000D01*
X195000000Y-84500000D02*
X195000000Y-74000000D01*
X223500000Y-121000000D02*
X218000000Y-126500000D01*
X195000000Y-72800000D02*
X195000000Y-74000000D01*
D19*
%TO.N,GND*%
X256600000Y-83400000D02*
X262400000Y-89200000D01*
X262400000Y-89200000D02*
X262400000Y-89300000D01*
X232000000Y-94500000D02*
X227500000Y-94500000D01*
X232500000Y-95000000D02*
X232000000Y-94500000D01*
X251200000Y-77400000D02*
X248100000Y-74300000D01*
X227500000Y-94500000D02*
X227000000Y-94000000D01*
D18*
%TO.N,Vsupply*%
X227250000Y-100250000D02*
X228500000Y-100250000D01*
X228500000Y-100250000D02*
X229000000Y-100750000D01*
%TO.N,5V Out*%
X243500000Y-92500000D02*
X243500000Y-94500000D01*
D19*
X217000000Y-79000000D02*
X216500000Y-78500000D01*
D18*
X243500000Y-90437925D02*
X230062075Y-77000000D01*
D19*
X226000000Y-78000000D02*
X226000000Y-77000000D01*
D18*
X227500000Y-89500000D02*
X228437925Y-90437925D01*
X243500000Y-92500000D02*
X243500000Y-90437925D01*
X246000000Y-97000000D02*
X258000000Y-97000000D01*
X243500000Y-94500000D02*
X246000000Y-97000000D01*
X260500000Y-99500000D02*
X262000000Y-101000000D01*
X230062075Y-77000000D02*
X226000000Y-77000000D01*
D19*
X223500000Y-79000000D02*
X225000000Y-79000000D01*
X223500000Y-79000000D02*
X217000000Y-79000000D01*
D18*
X218400000Y-97100000D02*
X227300000Y-97100000D01*
X228437925Y-90437925D02*
X243500000Y-90437925D01*
X262000000Y-101000000D02*
X262000000Y-103000000D01*
D19*
X225000000Y-79000000D02*
X226000000Y-78000000D01*
D18*
X258000000Y-97000000D02*
X260500000Y-99500000D01*
%TO.N,/EXT_LOAD1_OUT*%
X220751000Y-113249000D02*
X240251000Y-113249000D01*
X242500000Y-111000000D02*
X246500000Y-111000000D01*
X240251000Y-113249000D02*
X242500000Y-111000000D01*
X220500000Y-113500000D02*
X220751000Y-113249000D01*
X246500000Y-111000000D02*
X248000000Y-112500000D01*
D19*
%TO.N,Net-(U6-CC2)*%
X257500000Y-74500000D02*
X257500000Y-75500000D01*
X257500000Y-75500000D02*
X253500000Y-79500000D01*
%TO.N,DM*%
X259300000Y-79300000D02*
X262300000Y-79300000D01*
X256750000Y-78750000D02*
X258750000Y-78750000D01*
X256500000Y-78500000D02*
X256750000Y-78750000D01*
X258750000Y-78750000D02*
X259300000Y-79300000D01*
D18*
%TO.N,Net-(D3-K)*%
X253000000Y-83000000D02*
X254000000Y-84000000D01*
X252000000Y-83000000D02*
X253000000Y-83000000D01*
D19*
%TO.N,Net-(U6-CC1)*%
X262800000Y-80300000D02*
X263000000Y-80100000D01*
X262000000Y-80000000D02*
X262300000Y-80300000D01*
X262300000Y-80300000D02*
X262800000Y-80300000D01*
X259000000Y-80000000D02*
X262000000Y-80000000D01*
X259000000Y-80500000D02*
X259000000Y-80000000D01*
X263000000Y-80100000D02*
X263000000Y-78500000D01*
D18*
%TO.N,/I2C1_SCL*%
X261000000Y-105000000D02*
X249800000Y-105000000D01*
X229000000Y-92500000D02*
X233500000Y-92500000D01*
X246800000Y-105000000D02*
X244000000Y-105000000D01*
X262000000Y-106000000D02*
X261000000Y-105000000D01*
X262000000Y-120000000D02*
X262000000Y-106000000D01*
X261500000Y-120500000D02*
X262000000Y-120000000D01*
%TO.N,Net-(Q2-C)*%
X193800000Y-89400000D02*
X196200000Y-89400000D01*
X196200000Y-89400000D02*
X196600000Y-89400000D01*
X190800000Y-92400000D02*
X193800000Y-89400000D01*
%TO.N,/MOTOR1_A_OUT*%
X216000000Y-108000000D02*
X218500000Y-110500000D01*
X228500000Y-111500000D02*
X229500000Y-111500000D01*
X222500000Y-111500000D02*
X228500000Y-111500000D01*
X215000000Y-108000000D02*
X216000000Y-108000000D01*
X218500000Y-110500000D02*
X221500000Y-110500000D01*
X221500000Y-110500000D02*
X222500000Y-111500000D01*
%TO.N,/MOTOR2_CTRL1*%
X251600000Y-109600000D02*
X251600000Y-109537925D01*
X246000000Y-99800000D02*
X238600000Y-99800000D01*
X251600000Y-109537925D02*
X248262075Y-106200000D01*
X248200000Y-104600000D02*
X248200000Y-102000000D01*
X256000000Y-109600000D02*
X251600000Y-109600000D01*
X256200000Y-109800000D02*
X256000000Y-109600000D01*
X257000000Y-117400000D02*
X257000000Y-110600000D01*
X248262075Y-106200000D02*
X248200000Y-106200000D01*
X255000000Y-119400000D02*
X257000000Y-117400000D01*
X248200000Y-102000000D02*
X246000000Y-99800000D01*
X255000000Y-119500000D02*
X255000000Y-119400000D01*
X257000000Y-110600000D02*
X256200000Y-109800000D01*
X248200000Y-106200000D02*
X248200000Y-104600000D01*
%TO.N,/Motor2_A_OUT*%
X247276500Y-119223500D02*
X250500000Y-116000000D01*
X250500000Y-116000000D02*
X250500000Y-111500000D01*
X243780000Y-119223500D02*
X247276500Y-119223500D01*
X250500000Y-111500000D02*
X248000000Y-109000000D01*
X248000000Y-109000000D02*
X238000000Y-109000000D01*
%TO.N,/MOTOR1_B_OUT*%
X220000000Y-112500000D02*
X230256310Y-112500000D01*
X205500000Y-114500000D02*
X217000000Y-114500000D01*
X230256310Y-112500000D02*
X233128155Y-109628155D01*
X203500000Y-116500000D02*
X205500000Y-114500000D01*
%TO.N,/Motor2_B_OUT*%
X245500000Y-116500000D02*
X247500000Y-116500000D01*
X249000000Y-112000000D02*
X247000000Y-110000000D01*
X249000000Y-115000000D02*
X249000000Y-112000000D01*
X247000000Y-110000000D02*
X234000000Y-110000000D01*
X247500000Y-116500000D02*
X249000000Y-115000000D01*
%TO.N,/MOTOR2_CTRL2*%
X252000000Y-108800000D02*
X249068962Y-105868962D01*
X257600000Y-108800000D02*
X252000000Y-108800000D01*
X249049000Y-102351000D02*
X249049000Y-101849000D01*
X256500000Y-119500000D02*
X258200000Y-117800000D01*
X249068962Y-105331037D02*
X249049000Y-105311075D01*
X249049000Y-105311075D02*
X249049000Y-104688925D01*
X246200000Y-99000000D02*
X238600000Y-99000000D01*
X258200000Y-109400000D02*
X257600000Y-108800000D01*
X238600000Y-99000000D02*
X237000000Y-99000000D01*
X249068962Y-105868962D02*
X249068962Y-105331037D01*
X249049000Y-104688925D02*
X249049000Y-102351000D01*
X258200000Y-117800000D02*
X258200000Y-109400000D01*
X249049000Y-101849000D02*
X246200000Y-99000000D01*
D19*
%TO.N,/MOTOR1_CTRL2*%
X229251000Y-95451000D02*
X229600000Y-95800000D01*
X209800000Y-102200000D02*
X209800000Y-97400000D01*
X209800000Y-97400000D02*
X211749000Y-95451000D01*
X232400000Y-98400000D02*
X232426000Y-98426000D01*
X232600000Y-98200000D02*
X232400000Y-98400000D01*
X232600000Y-97000000D02*
X232600000Y-98200000D01*
X232426000Y-98426000D02*
X232426000Y-100374000D01*
X232426000Y-100374000D02*
X232200000Y-100600000D01*
X211800000Y-95451000D02*
X229251000Y-95451000D01*
%TO.N,/MOTOR1_CTRL1*%
X231000000Y-100200000D02*
X231800000Y-99400000D01*
X231800000Y-99400000D02*
X231800000Y-96800000D01*
X211400000Y-95000000D02*
X208800000Y-97600000D01*
X231800000Y-96800000D02*
X230000000Y-95000000D01*
X208800000Y-97600000D02*
X208800000Y-102200000D01*
X230000000Y-95000000D02*
X211400000Y-95000000D01*
D18*
%TO.N,Net-(U7-nSleep)*%
X218000000Y-111600000D02*
X221400000Y-111600000D01*
X216400000Y-110000000D02*
X218000000Y-111600000D01*
%TO.N,/MOTOR4_CTRL2*%
X260000000Y-119000000D02*
X260000000Y-108000000D01*
X260000000Y-108000000D02*
X259000000Y-107000000D01*
X239600000Y-104600000D02*
X226800000Y-104600000D01*
X259000000Y-107000000D02*
X251400000Y-107000000D01*
X242000000Y-107000000D02*
X240000000Y-105000000D01*
X222000000Y-101000000D02*
X221400000Y-101600000D01*
X242000000Y-107000000D02*
X242500000Y-107000000D01*
X240000000Y-105000000D02*
X239600000Y-104600000D01*
X242500000Y-107000000D02*
X248000000Y-107000000D01*
X221400000Y-101600000D02*
X221200000Y-101800000D01*
X222600000Y-101000000D02*
X222000000Y-101000000D01*
X259500000Y-119500000D02*
X260000000Y-119000000D01*
X224200000Y-101000000D02*
X222600000Y-101000000D01*
%TO.N,/Motor4_A_OUT*%
X228173932Y-115326068D02*
X239826068Y-115326068D01*
X241183500Y-116683500D02*
X241240000Y-116683500D01*
X239826068Y-115326068D02*
X241183500Y-116683500D01*
X226847864Y-114000000D02*
X228173932Y-115326068D01*
X225000000Y-114000000D02*
X226847864Y-114000000D01*
D19*
%TO.N,/MOTOR3_CTRL1*%
X196400000Y-117200000D02*
X195600000Y-117200000D01*
X198800000Y-114800000D02*
X196400000Y-117200000D01*
D20*
%TO.N,Net-(U7-VCP)*%
X222000000Y-103600000D02*
X224200000Y-103600000D01*
X224200000Y-103600000D02*
X224600000Y-104000000D01*
X220400000Y-102000000D02*
X222000000Y-103600000D01*
X223000000Y-107000000D02*
X222600000Y-106600000D01*
X224600000Y-106600000D02*
X224200000Y-107000000D01*
X224200000Y-107000000D02*
X223000000Y-107000000D01*
X224600000Y-104000000D02*
X224600000Y-106600000D01*
D18*
%TO.N,/MOTOR4_CTRL1*%
X252600000Y-108000000D02*
X258000000Y-108000000D01*
X241600000Y-108000000D02*
X239200000Y-105600000D01*
X259000000Y-118500000D02*
X258500000Y-119000000D01*
X239200000Y-105600000D02*
X225400000Y-105600000D01*
X248600000Y-108000000D02*
X241600000Y-108000000D01*
X223800000Y-102200000D02*
X222200000Y-102200000D01*
X258000000Y-108000000D02*
X259000000Y-109000000D01*
X259000000Y-109000000D02*
X259000000Y-118500000D01*
%TO.N,/Motor4_B_OUT*%
X230000000Y-109500000D02*
X230000000Y-107500000D01*
X229000000Y-106500000D02*
X225500000Y-106500000D01*
X225500000Y-106500000D02*
X225500000Y-106514588D01*
X238500000Y-114500000D02*
X229000000Y-114500000D01*
X223000000Y-108000000D02*
X222500000Y-107500000D01*
X229000000Y-114500000D02*
X228500000Y-114000000D01*
X230000000Y-107500000D02*
X229000000Y-106500000D01*
X225500000Y-106514588D02*
X224014588Y-108000000D01*
X224014588Y-108000000D02*
X223000000Y-108000000D01*
%TO.N,/FAST_CHARGE_CTRL*%
X199249000Y-94311075D02*
X199249000Y-93688925D01*
X228540000Y-116683500D02*
X226606500Y-114750000D01*
X224500000Y-114750000D02*
X224000000Y-114250000D01*
X226606500Y-114750000D02*
X224500000Y-114750000D01*
X199249000Y-93688925D02*
X199688925Y-93249000D01*
X220187925Y-114250000D02*
X218238925Y-112301000D01*
X200849000Y-93249000D02*
X203100000Y-95500000D01*
X203100000Y-95500000D02*
X207700000Y-95500000D01*
X218238925Y-112301000D02*
X217238924Y-112301000D01*
X207700000Y-95500000D02*
X211700000Y-91500000D01*
X211700000Y-91500000D02*
X213500000Y-91500000D01*
X199688925Y-93249000D02*
X200849000Y-93249000D01*
X224000000Y-114250000D02*
X220187925Y-114250000D01*
X217238924Y-112301000D02*
X199249000Y-94311075D01*
D19*
%TO.N,Net-(U7-AISEN)*%
X208400000Y-112600000D02*
X207200000Y-111400000D01*
X216200000Y-112600000D02*
X208400000Y-112600000D01*
D18*
%TO.N,Net-(R27-Pad2)*%
X227188925Y-87311075D02*
X227550000Y-86950000D01*
X227550000Y-86950000D02*
X227600000Y-86900000D01*
X214249000Y-90749000D02*
X215200000Y-91700000D01*
X208800000Y-92000000D02*
X210051000Y-90749000D01*
X215200000Y-91700000D02*
X225200000Y-91700000D01*
D19*
X229100000Y-84400000D02*
X229100000Y-82000000D01*
D18*
X225200000Y-91700000D02*
X225300000Y-91600000D01*
X210051000Y-90749000D02*
X214249000Y-90749000D01*
X225300000Y-90637925D02*
X227188925Y-88749000D01*
D19*
X229100000Y-82000000D02*
X230200000Y-80900000D01*
D18*
X227188925Y-88749000D02*
X227188925Y-87311075D01*
X225300000Y-91600000D02*
X225300000Y-90637925D01*
%TD*%
%TA.AperFunction,Conductor*%
%TO.N,GND*%
G36*
X190021905Y-69520185D02*
G01*
X190067660Y-69572989D01*
X190077604Y-69642147D01*
X190069427Y-69671950D01*
X190056608Y-69702900D01*
X190030263Y-69766502D01*
X190030261Y-69766510D01*
X189999500Y-69921153D01*
X189999500Y-70078846D01*
X190030261Y-70233489D01*
X190030264Y-70233501D01*
X190090602Y-70379172D01*
X190090609Y-70379185D01*
X190178210Y-70510288D01*
X190178213Y-70510292D01*
X190289707Y-70621786D01*
X190289711Y-70621789D01*
X190420814Y-70709390D01*
X190420827Y-70709397D01*
X190520060Y-70750500D01*
X190566503Y-70769737D01*
X190721153Y-70800499D01*
X190721156Y-70800500D01*
X190721158Y-70800500D01*
X190878844Y-70800500D01*
X190878845Y-70800499D01*
X190955152Y-70785320D01*
X191033488Y-70769739D01*
X191033489Y-70769738D01*
X191033497Y-70769737D01*
X191057155Y-70759937D01*
X191104604Y-70750500D01*
X191837770Y-70750500D01*
X191904809Y-70770185D01*
X191925451Y-70786819D01*
X194213181Y-73074549D01*
X194246666Y-73135872D01*
X194249500Y-73162230D01*
X194249500Y-73695396D01*
X194240062Y-73742844D01*
X194230263Y-73766503D01*
X194230262Y-73766506D01*
X194230260Y-73766511D01*
X194199500Y-73921153D01*
X194199500Y-74078846D01*
X194230261Y-74233489D01*
X194230263Y-74233497D01*
X194240061Y-74257151D01*
X194249500Y-74304604D01*
X194249500Y-84137770D01*
X194229815Y-84204809D01*
X194213181Y-84225451D01*
X185667048Y-92771583D01*
X185660698Y-92781087D01*
X185627842Y-92830262D01*
X185627841Y-92830263D01*
X185584914Y-92894507D01*
X185528343Y-93031082D01*
X185528340Y-93031092D01*
X185499500Y-93176079D01*
X185499500Y-93176082D01*
X185499500Y-122323918D01*
X185499500Y-122323920D01*
X185499499Y-122323920D01*
X185528340Y-122468907D01*
X185528343Y-122468917D01*
X185584914Y-122605492D01*
X185617812Y-122654727D01*
X185617813Y-122654730D01*
X185667046Y-122728414D01*
X185667052Y-122728421D01*
X189917049Y-126978416D01*
X190021584Y-127082951D01*
X190021587Y-127082953D01*
X190021588Y-127082954D01*
X190144503Y-127165083D01*
X190144506Y-127165085D01*
X190194665Y-127185861D01*
X190201080Y-127188518D01*
X190281088Y-127221659D01*
X190397241Y-127244763D01*
X190420380Y-127249365D01*
X190426081Y-127250500D01*
X190426082Y-127250500D01*
X218073920Y-127250500D01*
X218171462Y-127231096D01*
X218218913Y-127221658D01*
X218355495Y-127165084D01*
X218404729Y-127132186D01*
X218478416Y-127082952D01*
X223815295Y-121746070D01*
X223855519Y-121719193D01*
X223879179Y-121709394D01*
X224010289Y-121621789D01*
X224121789Y-121510289D01*
X224209394Y-121379179D01*
X224269737Y-121233497D01*
X224300500Y-121078842D01*
X224300500Y-120921158D01*
X224300500Y-120921155D01*
X224300499Y-120921153D01*
X224276499Y-120800499D01*
X224269737Y-120766503D01*
X224235855Y-120684704D01*
X224209397Y-120620827D01*
X224209390Y-120620814D01*
X224153067Y-120536521D01*
X224132189Y-120469843D01*
X224150673Y-120402463D01*
X224183281Y-120367314D01*
X224339792Y-120253604D01*
X224490104Y-120103292D01*
X224490106Y-120103288D01*
X224490109Y-120103286D01*
X224615048Y-119931320D01*
X224615047Y-119931320D01*
X224615051Y-119931316D01*
X224619514Y-119922554D01*
X224667488Y-119871759D01*
X224735308Y-119854963D01*
X224801444Y-119877499D01*
X224840486Y-119922556D01*
X224844951Y-119931320D01*
X224969890Y-120103286D01*
X225120213Y-120253609D01*
X225292179Y-120378548D01*
X225292181Y-120378549D01*
X225292184Y-120378551D01*
X225481588Y-120475057D01*
X225683757Y-120540746D01*
X225893713Y-120574000D01*
X225893714Y-120574000D01*
X226106286Y-120574000D01*
X226106287Y-120574000D01*
X226316243Y-120540746D01*
X226518412Y-120475057D01*
X226707816Y-120378551D01*
X226815245Y-120300500D01*
X226879786Y-120253609D01*
X226879788Y-120253606D01*
X226879792Y-120253604D01*
X227030104Y-120103292D01*
X227030106Y-120103288D01*
X227030109Y-120103286D01*
X227155048Y-119931320D01*
X227155047Y-119931320D01*
X227155051Y-119931316D01*
X227159514Y-119922554D01*
X227207488Y-119871759D01*
X227275308Y-119854963D01*
X227341444Y-119877499D01*
X227380486Y-119922556D01*
X227384951Y-119931320D01*
X227509890Y-120103286D01*
X227660213Y-120253609D01*
X227832179Y-120378548D01*
X227832181Y-120378549D01*
X227832184Y-120378551D01*
X228021588Y-120475057D01*
X228223757Y-120540746D01*
X228433713Y-120574000D01*
X228433714Y-120574000D01*
X228646286Y-120574000D01*
X228646287Y-120574000D01*
X228856243Y-120540746D01*
X229058412Y-120475057D01*
X229247816Y-120378551D01*
X229355245Y-120300500D01*
X229419786Y-120253609D01*
X229419788Y-120253606D01*
X229419792Y-120253604D01*
X229570104Y-120103292D01*
X229570106Y-120103288D01*
X229570109Y-120103286D01*
X229695048Y-119931320D01*
X229695047Y-119931320D01*
X229695051Y-119931316D01*
X229699514Y-119922554D01*
X229747488Y-119871759D01*
X229815308Y-119854963D01*
X229881444Y-119877499D01*
X229920486Y-119922556D01*
X229924951Y-119931320D01*
X230049890Y-120103286D01*
X230200213Y-120253609D01*
X230372179Y-120378548D01*
X230372181Y-120378549D01*
X230372184Y-120378551D01*
X230561588Y-120475057D01*
X230763757Y-120540746D01*
X230973713Y-120574000D01*
X230973714Y-120574000D01*
X231186286Y-120574000D01*
X231186287Y-120574000D01*
X231396243Y-120540746D01*
X231598412Y-120475057D01*
X231787816Y-120378551D01*
X231895245Y-120300500D01*
X231959786Y-120253609D01*
X231959788Y-120253606D01*
X231959792Y-120253604D01*
X232110104Y-120103292D01*
X232110106Y-120103288D01*
X232110109Y-120103286D01*
X232235048Y-119931320D01*
X232235047Y-119931320D01*
X232235051Y-119931316D01*
X232239514Y-119922554D01*
X232287488Y-119871759D01*
X232355308Y-119854963D01*
X232421444Y-119877499D01*
X232460486Y-119922556D01*
X232464951Y-119931320D01*
X232589890Y-120103286D01*
X232740213Y-120253609D01*
X232912179Y-120378548D01*
X232912181Y-120378549D01*
X232912184Y-120378551D01*
X233101588Y-120475057D01*
X233303757Y-120540746D01*
X233513713Y-120574000D01*
X233513714Y-120574000D01*
X233726286Y-120574000D01*
X233726287Y-120574000D01*
X233936243Y-120540746D01*
X234138412Y-120475057D01*
X234327816Y-120378551D01*
X234435245Y-120300500D01*
X234499786Y-120253609D01*
X234499788Y-120253606D01*
X234499792Y-120253604D01*
X234650104Y-120103292D01*
X234650106Y-120103288D01*
X234650109Y-120103286D01*
X234775048Y-119931320D01*
X234775047Y-119931320D01*
X234775051Y-119931316D01*
X234779514Y-119922554D01*
X234827488Y-119871759D01*
X234895308Y-119854963D01*
X234961444Y-119877499D01*
X235000486Y-119922556D01*
X235004951Y-119931320D01*
X235129890Y-120103286D01*
X235280213Y-120253609D01*
X235452179Y-120378548D01*
X235452181Y-120378549D01*
X235452184Y-120378551D01*
X235641588Y-120475057D01*
X235843757Y-120540746D01*
X236053713Y-120574000D01*
X236053714Y-120574000D01*
X236266286Y-120574000D01*
X236266287Y-120574000D01*
X236476243Y-120540746D01*
X236678412Y-120475057D01*
X236867816Y-120378551D01*
X236975245Y-120300500D01*
X237039786Y-120253609D01*
X237039788Y-120253606D01*
X237039792Y-120253604D01*
X237190104Y-120103292D01*
X237190106Y-120103288D01*
X237190109Y-120103286D01*
X237315048Y-119931320D01*
X237315047Y-119931320D01*
X237315051Y-119931316D01*
X237319514Y-119922554D01*
X237367488Y-119871759D01*
X237435308Y-119854963D01*
X237501444Y-119877499D01*
X237540486Y-119922556D01*
X237544951Y-119931320D01*
X237669890Y-120103286D01*
X237820213Y-120253609D01*
X237992179Y-120378548D01*
X237992181Y-120378549D01*
X237992184Y-120378551D01*
X238181588Y-120475057D01*
X238383757Y-120540746D01*
X238593713Y-120574000D01*
X238593714Y-120574000D01*
X238806286Y-120574000D01*
X238806287Y-120574000D01*
X239016243Y-120540746D01*
X239218412Y-120475057D01*
X239407816Y-120378551D01*
X239515245Y-120300500D01*
X239579786Y-120253609D01*
X239579788Y-120253606D01*
X239579792Y-120253604D01*
X239730104Y-120103292D01*
X239730106Y-120103288D01*
X239730109Y-120103286D01*
X239855048Y-119931320D01*
X239855047Y-119931320D01*
X239855051Y-119931316D01*
X239859514Y-119922554D01*
X239907488Y-119871759D01*
X239975308Y-119854963D01*
X240041444Y-119877499D01*
X240080486Y-119922556D01*
X240084951Y-119931320D01*
X240209890Y-120103286D01*
X240360213Y-120253609D01*
X240532179Y-120378548D01*
X240532181Y-120378549D01*
X240532184Y-120378551D01*
X240721588Y-120475057D01*
X240923757Y-120540746D01*
X241133713Y-120574000D01*
X241133714Y-120574000D01*
X241346286Y-120574000D01*
X241346287Y-120574000D01*
X241556243Y-120540746D01*
X241758412Y-120475057D01*
X241947816Y-120378551D01*
X242055245Y-120300500D01*
X242119786Y-120253609D01*
X242119788Y-120253606D01*
X242119792Y-120253604D01*
X242270104Y-120103292D01*
X242270106Y-120103288D01*
X242270109Y-120103286D01*
X242395048Y-119931320D01*
X242395047Y-119931320D01*
X242395051Y-119931316D01*
X242399514Y-119922554D01*
X242447488Y-119871759D01*
X242515308Y-119854963D01*
X242581444Y-119877499D01*
X242620486Y-119922556D01*
X242624951Y-119931320D01*
X242749890Y-120103286D01*
X242900213Y-120253609D01*
X243072179Y-120378548D01*
X243072181Y-120378549D01*
X243072184Y-120378551D01*
X243261588Y-120475057D01*
X243463757Y-120540746D01*
X243673713Y-120574000D01*
X243673714Y-120574000D01*
X243886286Y-120574000D01*
X243886287Y-120574000D01*
X244096243Y-120540746D01*
X244298412Y-120475057D01*
X244487816Y-120378551D01*
X244595245Y-120300500D01*
X244659786Y-120253609D01*
X244659788Y-120253606D01*
X244659792Y-120253604D01*
X244810104Y-120103292D01*
X244831444Y-120073920D01*
X244866903Y-120025115D01*
X244922233Y-119982449D01*
X244967221Y-119974000D01*
X247350420Y-119974000D01*
X247447962Y-119954596D01*
X247495413Y-119945158D01*
X247631995Y-119888584D01*
X247681518Y-119855494D01*
X247681518Y-119855493D01*
X247681520Y-119855493D01*
X247718217Y-119830973D01*
X247754916Y-119806452D01*
X251082951Y-116478416D01*
X251165084Y-116355495D01*
X251221658Y-116218913D01*
X251250500Y-116073918D01*
X251250500Y-115926083D01*
X251250500Y-111426082D01*
X251250500Y-111426079D01*
X251221659Y-111281092D01*
X251221658Y-111281091D01*
X251221658Y-111281087D01*
X251174196Y-111166503D01*
X251165085Y-111144507D01*
X251165084Y-111144505D01*
X251120925Y-111078416D01*
X251120924Y-111078414D01*
X251120923Y-111078412D01*
X251082955Y-111021589D01*
X251082952Y-111021584D01*
X248961082Y-108899714D01*
X248927597Y-108838391D01*
X248932581Y-108768699D01*
X248974453Y-108712766D01*
X248979872Y-108708931D01*
X249110289Y-108621789D01*
X249221786Y-108510292D01*
X249221789Y-108510289D01*
X249235539Y-108489711D01*
X249253686Y-108462553D01*
X249307298Y-108417747D01*
X249376623Y-108409040D01*
X249439650Y-108439194D01*
X249444469Y-108443762D01*
X250902422Y-109901715D01*
X250929301Y-109941941D01*
X250934913Y-109955489D01*
X250934919Y-109955501D01*
X251017048Y-110078415D01*
X251017051Y-110078419D01*
X251121580Y-110182948D01*
X251121584Y-110182951D01*
X251244498Y-110265080D01*
X251244511Y-110265087D01*
X251381082Y-110321656D01*
X251381087Y-110321658D01*
X251381091Y-110321658D01*
X251381092Y-110321659D01*
X251526079Y-110350500D01*
X251526082Y-110350500D01*
X255637770Y-110350500D01*
X255704809Y-110370185D01*
X255725451Y-110386819D01*
X256213181Y-110874549D01*
X256246666Y-110935872D01*
X256249500Y-110962230D01*
X256249500Y-117037770D01*
X256229815Y-117104809D01*
X256213181Y-117125451D01*
X254417050Y-118921581D01*
X254417044Y-118921589D01*
X254379074Y-118978415D01*
X254379075Y-118978416D01*
X254334913Y-119044509D01*
X254328687Y-119059540D01*
X254317231Y-119080972D01*
X254290611Y-119120812D01*
X254290602Y-119120828D01*
X254230264Y-119266498D01*
X254230261Y-119266510D01*
X254199500Y-119421153D01*
X254199500Y-119578846D01*
X254230261Y-119733489D01*
X254230264Y-119733501D01*
X254290602Y-119879172D01*
X254290609Y-119879185D01*
X254378210Y-120010288D01*
X254378213Y-120010292D01*
X254489707Y-120121786D01*
X254489711Y-120121789D01*
X254620814Y-120209390D01*
X254620827Y-120209397D01*
X254727554Y-120253604D01*
X254766503Y-120269737D01*
X254886736Y-120293653D01*
X254921153Y-120300499D01*
X254921156Y-120300500D01*
X254921158Y-120300500D01*
X255078844Y-120300500D01*
X255078845Y-120300499D01*
X255233497Y-120269737D01*
X255379179Y-120209394D01*
X255510289Y-120121789D01*
X255621789Y-120010289D01*
X255629145Y-119999279D01*
X255646898Y-119972712D01*
X255700510Y-119927906D01*
X255769835Y-119919199D01*
X255832862Y-119949353D01*
X255853102Y-119972712D01*
X255878207Y-120010284D01*
X255878213Y-120010292D01*
X255989707Y-120121786D01*
X255989711Y-120121789D01*
X256120814Y-120209390D01*
X256120827Y-120209397D01*
X256227554Y-120253604D01*
X256266503Y-120269737D01*
X256386736Y-120293653D01*
X256421153Y-120300499D01*
X256421156Y-120300500D01*
X256421158Y-120300500D01*
X256578844Y-120300500D01*
X256578845Y-120300499D01*
X256733497Y-120269737D01*
X256879179Y-120209394D01*
X257010289Y-120121789D01*
X257121789Y-120010289D01*
X257209394Y-119879179D01*
X257219191Y-119855524D01*
X257246069Y-119815297D01*
X257640341Y-119421025D01*
X257701662Y-119387542D01*
X257771354Y-119392526D01*
X257827287Y-119434398D01*
X257831122Y-119439817D01*
X257878210Y-119510288D01*
X257878213Y-119510292D01*
X257989707Y-119621786D01*
X257989711Y-119621789D01*
X258120814Y-119709390D01*
X258120827Y-119709397D01*
X258256450Y-119765573D01*
X258266503Y-119769737D01*
X258386736Y-119793653D01*
X258421153Y-119800499D01*
X258421156Y-119800500D01*
X258421158Y-119800500D01*
X258578843Y-119800500D01*
X258595304Y-119797225D01*
X258644568Y-119787426D01*
X258714158Y-119793653D01*
X258769336Y-119836515D01*
X258783320Y-119861589D01*
X258790606Y-119879179D01*
X258790609Y-119879185D01*
X258878210Y-120010288D01*
X258878213Y-120010292D01*
X258989707Y-120121786D01*
X258989711Y-120121789D01*
X259120814Y-120209390D01*
X259120827Y-120209397D01*
X259227554Y-120253604D01*
X259266503Y-120269737D01*
X259386736Y-120293653D01*
X259421153Y-120300499D01*
X259421156Y-120300500D01*
X259421158Y-120300500D01*
X259578843Y-120300500D01*
X259595304Y-120297225D01*
X259644568Y-120287426D01*
X259714158Y-120293653D01*
X259769336Y-120336515D01*
X259783320Y-120361589D01*
X259790606Y-120379179D01*
X259790609Y-120379185D01*
X259878210Y-120510288D01*
X259878213Y-120510292D01*
X259989707Y-120621786D01*
X259989711Y-120621789D01*
X260120814Y-120709390D01*
X260120827Y-120709397D01*
X260256450Y-120765573D01*
X260266503Y-120769737D01*
X260386736Y-120793653D01*
X260421153Y-120800499D01*
X260421156Y-120800500D01*
X260421158Y-120800500D01*
X260578843Y-120800500D01*
X260595304Y-120797225D01*
X260644568Y-120787426D01*
X260714158Y-120793653D01*
X260769336Y-120836515D01*
X260783320Y-120861589D01*
X260790606Y-120879179D01*
X260790609Y-120879185D01*
X260878210Y-121010288D01*
X260878213Y-121010292D01*
X260989707Y-121121786D01*
X260989711Y-121121789D01*
X261120814Y-121209390D01*
X261120827Y-121209397D01*
X261266498Y-121269735D01*
X261266503Y-121269737D01*
X261421153Y-121300499D01*
X261421156Y-121300500D01*
X261421158Y-121300500D01*
X261578844Y-121300500D01*
X261578845Y-121300499D01*
X261733497Y-121269737D01*
X261879179Y-121209394D01*
X262010289Y-121121789D01*
X262121789Y-121010289D01*
X262209394Y-120879179D01*
X262219191Y-120855524D01*
X262246067Y-120815299D01*
X262582952Y-120478416D01*
X262649259Y-120379179D01*
X262665084Y-120355495D01*
X262721658Y-120218913D01*
X262750500Y-120073918D01*
X262750500Y-105926082D01*
X262743443Y-105890606D01*
X262721659Y-105781088D01*
X262677267Y-105673917D01*
X262665084Y-105644505D01*
X262601905Y-105549950D01*
X262582952Y-105521585D01*
X262582950Y-105521582D01*
X261774549Y-104713181D01*
X261741064Y-104651858D01*
X261746048Y-104582166D01*
X261787920Y-104526233D01*
X261853384Y-104501816D01*
X261862230Y-104501500D01*
X262384995Y-104501500D01*
X262482537Y-104482096D01*
X262529988Y-104472658D01*
X262635622Y-104428902D01*
X262666563Y-104416087D01*
X262666563Y-104416086D01*
X262666570Y-104416084D01*
X262723251Y-104378211D01*
X262789491Y-104333952D01*
X263287819Y-103835624D01*
X263349142Y-103802139D01*
X263418834Y-103807123D01*
X263474767Y-103848995D01*
X263499184Y-103914459D01*
X263499500Y-103923305D01*
X263499500Y-128375500D01*
X263479815Y-128442539D01*
X263427011Y-128488294D01*
X263375500Y-128499500D01*
X184624500Y-128499500D01*
X184557461Y-128479815D01*
X184511706Y-128427011D01*
X184500500Y-128375500D01*
X184500500Y-69624500D01*
X184520185Y-69557461D01*
X184572989Y-69511706D01*
X184624500Y-69500500D01*
X189954866Y-69500500D01*
X190021905Y-69520185D01*
G37*
%TD.AperFunction*%
%TA.AperFunction,Conductor*%
G36*
X200279156Y-69508944D02*
G01*
X200308524Y-69514968D01*
X200312331Y-69518686D01*
X200317436Y-69520185D01*
X200337062Y-69542835D01*
X200358514Y-69563782D01*
X200359707Y-69568968D01*
X200363191Y-69572989D01*
X200367456Y-69602655D01*
X200374178Y-69631873D01*
X200372377Y-69636880D01*
X200373135Y-69642147D01*
X200360683Y-69669411D01*
X200350542Y-69697624D01*
X200345390Y-69702900D01*
X200344110Y-69705703D01*
X200325889Y-69722870D01*
X200193339Y-69824581D01*
X200193329Y-69824589D01*
X200031089Y-69986830D01*
X200031081Y-69986838D01*
X199891392Y-70168882D01*
X199776657Y-70367609D01*
X199776650Y-70367623D01*
X199688842Y-70579612D01*
X199688842Y-70579613D01*
X199629657Y-70800499D01*
X199629453Y-70801259D01*
X199629451Y-70801270D01*
X199599500Y-71028758D01*
X199599500Y-71258241D01*
X199624446Y-71447715D01*
X199629452Y-71485738D01*
X199629453Y-71485740D01*
X199688842Y-71707387D01*
X199776650Y-71919376D01*
X199776657Y-71919390D01*
X199891392Y-72118117D01*
X200031081Y-72300161D01*
X200031089Y-72300170D01*
X200193330Y-72462411D01*
X200193338Y-72462418D01*
X200375382Y-72602107D01*
X200375385Y-72602108D01*
X200375388Y-72602111D01*
X200574112Y-72716844D01*
X200574117Y-72716846D01*
X200574123Y-72716849D01*
X200665480Y-72754690D01*
X200786113Y-72804658D01*
X201007762Y-72864048D01*
X201235266Y-72894000D01*
X201235273Y-72894000D01*
X201464727Y-72894000D01*
X201464734Y-72894000D01*
X201692238Y-72864048D01*
X201913887Y-72804658D01*
X202125888Y-72716844D01*
X202324612Y-72602111D01*
X202506661Y-72462419D01*
X202506665Y-72462414D01*
X202506670Y-72462411D01*
X202668911Y-72300170D01*
X202668914Y-72300165D01*
X202668919Y-72300161D01*
X202808611Y-72118112D01*
X202923344Y-71919388D01*
X203011158Y-71707387D01*
X203070548Y-71485738D01*
X203100500Y-71258234D01*
X203100500Y-71028766D01*
X203070548Y-70801262D01*
X203011158Y-70579613D01*
X202935287Y-70396445D01*
X202923349Y-70367623D01*
X202923346Y-70367617D01*
X202923344Y-70367612D01*
X202808611Y-70168888D01*
X202808608Y-70168885D01*
X202808607Y-70168882D01*
X202668918Y-69986838D01*
X202668911Y-69986830D01*
X202506670Y-69824589D01*
X202506665Y-69824585D01*
X202506661Y-69824581D01*
X202374114Y-69722873D01*
X202332914Y-69666448D01*
X202328759Y-69596701D01*
X202362972Y-69535781D01*
X202424689Y-69503029D01*
X202449603Y-69500500D01*
X213550397Y-69500500D01*
X213617436Y-69520185D01*
X213663191Y-69572989D01*
X213673135Y-69642147D01*
X213644110Y-69705703D01*
X213625889Y-69722870D01*
X213493339Y-69824581D01*
X213493329Y-69824589D01*
X213331089Y-69986830D01*
X213331081Y-69986838D01*
X213191392Y-70168882D01*
X213076657Y-70367609D01*
X213076650Y-70367623D01*
X212988842Y-70579612D01*
X212988842Y-70579613D01*
X212929657Y-70800499D01*
X212929453Y-70801259D01*
X212929451Y-70801270D01*
X212899500Y-71028758D01*
X212899500Y-71258241D01*
X212924446Y-71447715D01*
X212929452Y-71485738D01*
X212929453Y-71485740D01*
X212988842Y-71707387D01*
X213076650Y-71919376D01*
X213076657Y-71919390D01*
X213191392Y-72118117D01*
X213331081Y-72300161D01*
X213331089Y-72300170D01*
X213493330Y-72462411D01*
X213493338Y-72462418D01*
X213675382Y-72602107D01*
X213675385Y-72602108D01*
X213675388Y-72602111D01*
X213874112Y-72716844D01*
X213874117Y-72716846D01*
X213874123Y-72716849D01*
X213965480Y-72754690D01*
X214086113Y-72804658D01*
X214307762Y-72864048D01*
X214535266Y-72894000D01*
X214535273Y-72894000D01*
X214764727Y-72894000D01*
X214764734Y-72894000D01*
X214992238Y-72864048D01*
X215213887Y-72804658D01*
X215425888Y-72716844D01*
X215624612Y-72602111D01*
X215806661Y-72462419D01*
X215806665Y-72462414D01*
X215806670Y-72462411D01*
X215968911Y-72300170D01*
X215968914Y-72300165D01*
X215968919Y-72300161D01*
X216108611Y-72118112D01*
X216223344Y-71919388D01*
X216311158Y-71707387D01*
X216370548Y-71485738D01*
X216400500Y-71258234D01*
X216400500Y-71183448D01*
X251979500Y-71183448D01*
X251979500Y-72564551D01*
X252007829Y-72743410D01*
X252063787Y-72915636D01*
X252063788Y-72915639D01*
X252119664Y-73025300D01*
X252144758Y-73074549D01*
X252146006Y-73076997D01*
X252252441Y-73223494D01*
X252252445Y-73223499D01*
X252380500Y-73351554D01*
X252380505Y-73351558D01*
X252508287Y-73444396D01*
X252527006Y-73457996D01*
X252632484Y-73511740D01*
X252688360Y-73540211D01*
X252688363Y-73540212D01*
X252774476Y-73568191D01*
X252860591Y-73596171D01*
X252943429Y-73609291D01*
X253039449Y-73624500D01*
X253039454Y-73624500D01*
X253220551Y-73624500D01*
X253307259Y-73610765D01*
X253399409Y-73596171D01*
X253571639Y-73540211D01*
X253732994Y-73457996D01*
X253879501Y-73351553D01*
X254007553Y-73223501D01*
X254113996Y-73076994D01*
X254196211Y-72915639D01*
X254252171Y-72743409D01*
X254266765Y-72651259D01*
X254280500Y-72564551D01*
X254280500Y-71183448D01*
X260619500Y-71183448D01*
X260619500Y-72564551D01*
X260647829Y-72743410D01*
X260703787Y-72915636D01*
X260703788Y-72915639D01*
X260759664Y-73025300D01*
X260784758Y-73074549D01*
X260786006Y-73076997D01*
X260892441Y-73223494D01*
X260892445Y-73223499D01*
X261020500Y-73351554D01*
X261020505Y-73351558D01*
X261148287Y-73444396D01*
X261167006Y-73457996D01*
X261272484Y-73511740D01*
X261328360Y-73540211D01*
X261328363Y-73540212D01*
X261414476Y-73568191D01*
X261500591Y-73596171D01*
X261583429Y-73609291D01*
X261679449Y-73624500D01*
X261679454Y-73624500D01*
X261860551Y-73624500D01*
X261947259Y-73610765D01*
X262039409Y-73596171D01*
X262211639Y-73540211D01*
X262372994Y-73457996D01*
X262519501Y-73351553D01*
X262647553Y-73223501D01*
X262753996Y-73076994D01*
X262836211Y-72915639D01*
X262892171Y-72743409D01*
X262906765Y-72651259D01*
X262920500Y-72564551D01*
X262920500Y-71183448D01*
X262904019Y-71079397D01*
X262892171Y-71004591D01*
X262836211Y-70832361D01*
X262836211Y-70832360D01*
X262807740Y-70776484D01*
X262753996Y-70671006D01*
X262718236Y-70621786D01*
X262647558Y-70524505D01*
X262647554Y-70524500D01*
X262519499Y-70396445D01*
X262519494Y-70396441D01*
X262372997Y-70290006D01*
X262372996Y-70290005D01*
X262372994Y-70290004D01*
X262321300Y-70263664D01*
X262211639Y-70207788D01*
X262211636Y-70207787D01*
X262039410Y-70151829D01*
X261860551Y-70123500D01*
X261860546Y-70123500D01*
X261679454Y-70123500D01*
X261679449Y-70123500D01*
X261500589Y-70151829D01*
X261328363Y-70207787D01*
X261328360Y-70207788D01*
X261167002Y-70290006D01*
X261020505Y-70396441D01*
X261020500Y-70396445D01*
X260892445Y-70524500D01*
X260892441Y-70524505D01*
X260786006Y-70671002D01*
X260703788Y-70832360D01*
X260703787Y-70832363D01*
X260647829Y-71004589D01*
X260619500Y-71183448D01*
X254280500Y-71183448D01*
X254264019Y-71079397D01*
X254252171Y-71004591D01*
X254196211Y-70832361D01*
X254196211Y-70832360D01*
X254167740Y-70776484D01*
X254113996Y-70671006D01*
X254078236Y-70621786D01*
X254007558Y-70524505D01*
X254007554Y-70524500D01*
X253879499Y-70396445D01*
X253879494Y-70396441D01*
X253732997Y-70290006D01*
X253732996Y-70290005D01*
X253732994Y-70290004D01*
X253681300Y-70263664D01*
X253571639Y-70207788D01*
X253571636Y-70207787D01*
X253399410Y-70151829D01*
X253220551Y-70123500D01*
X253220546Y-70123500D01*
X253039454Y-70123500D01*
X253039449Y-70123500D01*
X252860589Y-70151829D01*
X252688363Y-70207787D01*
X252688360Y-70207788D01*
X252527002Y-70290006D01*
X252380505Y-70396441D01*
X252380500Y-70396445D01*
X252252445Y-70524500D01*
X252252441Y-70524505D01*
X252146006Y-70671002D01*
X252063788Y-70832360D01*
X252063787Y-70832363D01*
X252007829Y-71004589D01*
X251979500Y-71183448D01*
X216400500Y-71183448D01*
X216400500Y-71028766D01*
X216370548Y-70801262D01*
X216311158Y-70579613D01*
X216235287Y-70396445D01*
X216223349Y-70367623D01*
X216223346Y-70367617D01*
X216223344Y-70367612D01*
X216108611Y-70168888D01*
X216108608Y-70168885D01*
X216108607Y-70168882D01*
X215968918Y-69986838D01*
X215968911Y-69986830D01*
X215806670Y-69824589D01*
X215806665Y-69824585D01*
X215806661Y-69824581D01*
X215674114Y-69722873D01*
X215632914Y-69666448D01*
X215628759Y-69596701D01*
X215662972Y-69535781D01*
X215724689Y-69503029D01*
X215749603Y-69500500D01*
X263375500Y-69500500D01*
X263442539Y-69520185D01*
X263488294Y-69572989D01*
X263499500Y-69624500D01*
X263499500Y-77654865D01*
X263479815Y-77721904D01*
X263427011Y-77767659D01*
X263357853Y-77777603D01*
X263328048Y-77769427D01*
X263323780Y-77767659D01*
X263233497Y-77730263D01*
X263233494Y-77730262D01*
X263233491Y-77730261D01*
X263078845Y-77699500D01*
X263078842Y-77699500D01*
X262921158Y-77699500D01*
X262921155Y-77699500D01*
X262766510Y-77730261D01*
X262766498Y-77730264D01*
X262618078Y-77791741D01*
X262548608Y-77799210D01*
X262486129Y-77767934D01*
X262450478Y-77707845D01*
X262452972Y-77638020D01*
X262482948Y-77589496D01*
X262487981Y-77584464D01*
X262604787Y-77423694D01*
X262695005Y-77246632D01*
X262756413Y-77057636D01*
X262787500Y-76861361D01*
X262787500Y-75986639D01*
X262756413Y-75790364D01*
X262695005Y-75601368D01*
X262695005Y-75601367D01*
X262627578Y-75469036D01*
X262604787Y-75424306D01*
X262487981Y-75263536D01*
X262347464Y-75123019D01*
X262186694Y-75006213D01*
X262126046Y-74975311D01*
X262009632Y-74915994D01*
X262009629Y-74915993D01*
X261820637Y-74854587D01*
X261657061Y-74828679D01*
X261593926Y-74798750D01*
X261561898Y-74753658D01*
X261551180Y-74727782D01*
X261551171Y-74727763D01*
X261527825Y-74678966D01*
X261527824Y-74678963D01*
X261527822Y-74678960D01*
X261527821Y-74678958D01*
X261441596Y-74563776D01*
X261441591Y-74563771D01*
X261441586Y-74563765D01*
X261365734Y-74487913D01*
X261325472Y-74451745D01*
X261325469Y-74451744D01*
X261325468Y-74451743D01*
X261201729Y-74378325D01*
X261201727Y-74378324D01*
X261201725Y-74378323D01*
X261152163Y-74357794D01*
X261102597Y-74337263D01*
X261102582Y-74337257D01*
X261102575Y-74337255D01*
X261051567Y-74319260D01*
X261004094Y-74312434D01*
X260909150Y-74298784D01*
X260801850Y-74298784D01*
X260801846Y-74298784D01*
X260747819Y-74301679D01*
X260747805Y-74301681D01*
X260608404Y-74337262D01*
X260608400Y-74337264D01*
X260509283Y-74378319D01*
X260509262Y-74378328D01*
X260460466Y-74401674D01*
X260460463Y-74401675D01*
X260345277Y-74487903D01*
X260345265Y-74487913D01*
X260269413Y-74563765D01*
X260233245Y-74604027D01*
X260233244Y-74604030D01*
X260159827Y-74727767D01*
X260159823Y-74727774D01*
X260118765Y-74826898D01*
X260118755Y-74826924D01*
X260100760Y-74877932D01*
X260080284Y-75020351D01*
X260080284Y-75127653D01*
X260083179Y-75181680D01*
X260083181Y-75181694D01*
X260118762Y-75321095D01*
X260118764Y-75321099D01*
X260159819Y-75420216D01*
X260159828Y-75420237D01*
X260183174Y-75469033D01*
X260183175Y-75469036D01*
X260183178Y-75469040D01*
X260183179Y-75469042D01*
X260269404Y-75584224D01*
X260269406Y-75584226D01*
X260269413Y-75584234D01*
X260284477Y-75599298D01*
X260317962Y-75660621D01*
X260314728Y-75725295D01*
X260293586Y-75790364D01*
X260262500Y-75986639D01*
X260262500Y-76861360D01*
X260293587Y-77057637D01*
X260354993Y-77246629D01*
X260354994Y-77246632D01*
X260440649Y-77414736D01*
X260445213Y-77423694D01*
X260562019Y-77584464D01*
X260702536Y-77724981D01*
X260863306Y-77841787D01*
X260927509Y-77874500D01*
X261040367Y-77932005D01*
X261040370Y-77932006D01*
X261134866Y-77962709D01*
X261229364Y-77993413D01*
X261425639Y-78024500D01*
X261425640Y-78024500D01*
X261624360Y-78024500D01*
X261624361Y-78024500D01*
X261820636Y-77993413D01*
X262009632Y-77932005D01*
X262186694Y-77841787D01*
X262189231Y-77839944D01*
X262190360Y-77839540D01*
X262190850Y-77839241D01*
X262190912Y-77839343D01*
X262255037Y-77816462D01*
X262323091Y-77832286D01*
X262371787Y-77882390D01*
X262385664Y-77950868D01*
X262365221Y-78009151D01*
X262290609Y-78120814D01*
X262290605Y-78120823D01*
X262230264Y-78266498D01*
X262230261Y-78266508D01*
X262198545Y-78425951D01*
X262166160Y-78487862D01*
X262105444Y-78522436D01*
X262101122Y-78523376D01*
X262066505Y-78530262D01*
X262066498Y-78530264D01*
X261920827Y-78590602D01*
X261920815Y-78590609D01*
X261826541Y-78653602D01*
X261759864Y-78674480D01*
X261757650Y-78674500D01*
X259610453Y-78674500D01*
X259543414Y-78654815D01*
X259522772Y-78638181D01*
X259245822Y-78361232D01*
X259235859Y-78351269D01*
X259235858Y-78351267D01*
X259148733Y-78264142D01*
X259097509Y-78229915D01*
X259046286Y-78195688D01*
X259046283Y-78195686D01*
X259046280Y-78195685D01*
X258972603Y-78165168D01*
X258972601Y-78165167D01*
X258965792Y-78162347D01*
X258932452Y-78148537D01*
X258872029Y-78136518D01*
X258867306Y-78135578D01*
X258867304Y-78135578D01*
X258811610Y-78124500D01*
X258811607Y-78124500D01*
X258811606Y-78124500D01*
X257278131Y-78124500D01*
X257211092Y-78104815D01*
X257175030Y-78069392D01*
X257121789Y-77989711D01*
X257121787Y-77989708D01*
X257010292Y-77878213D01*
X257010288Y-77878210D01*
X256879185Y-77790609D01*
X256879172Y-77790602D01*
X256733501Y-77730264D01*
X256733489Y-77730261D01*
X256578845Y-77699500D01*
X256578842Y-77699500D01*
X256484451Y-77699500D01*
X256417412Y-77679815D01*
X256371657Y-77627011D01*
X256361713Y-77557853D01*
X256390738Y-77494297D01*
X256396770Y-77487819D01*
X257103507Y-76781082D01*
X257898729Y-75985860D01*
X257898733Y-75985858D01*
X257985858Y-75898733D01*
X258054311Y-75796286D01*
X258101463Y-75682452D01*
X258125500Y-75561606D01*
X258125500Y-75042350D01*
X258145185Y-74975311D01*
X258146398Y-74973459D01*
X258184795Y-74915994D01*
X258209394Y-74879179D01*
X258269737Y-74733497D01*
X258300500Y-74578842D01*
X258300500Y-74421158D01*
X258300500Y-74421155D01*
X258300499Y-74421153D01*
X258296624Y-74401674D01*
X258269737Y-74266503D01*
X258256062Y-74233489D01*
X258209397Y-74120827D01*
X258209390Y-74120814D01*
X258121789Y-73989711D01*
X258121786Y-73989707D01*
X258010292Y-73878213D01*
X258010288Y-73878210D01*
X257879185Y-73790609D01*
X257879172Y-73790602D01*
X257733501Y-73730264D01*
X257733489Y-73730261D01*
X257578845Y-73699500D01*
X257578842Y-73699500D01*
X257421158Y-73699500D01*
X257421155Y-73699500D01*
X257266510Y-73730261D01*
X257266498Y-73730264D01*
X257120827Y-73790602D01*
X257120814Y-73790609D01*
X256989711Y-73878210D01*
X256989707Y-73878213D01*
X256878213Y-73989707D01*
X256878210Y-73989711D01*
X256790609Y-74120814D01*
X256790602Y-74120827D01*
X256730264Y-74266498D01*
X256730261Y-74266510D01*
X256699500Y-74421153D01*
X256699500Y-74578846D01*
X256730261Y-74733489D01*
X256730264Y-74733501D01*
X256790602Y-74879172D01*
X256790609Y-74879184D01*
X256853602Y-74973459D01*
X256859252Y-74991505D01*
X256869477Y-75007415D01*
X256873928Y-75038374D01*
X256874480Y-75040136D01*
X256874500Y-75042350D01*
X256874500Y-75189547D01*
X256854815Y-75256586D01*
X256838181Y-75277228D01*
X254754390Y-77361019D01*
X254693067Y-77394504D01*
X254623375Y-77389520D01*
X254567442Y-77347648D01*
X254543025Y-77282184D01*
X254548778Y-77235020D01*
X254554013Y-77218907D01*
X254606413Y-77057636D01*
X254637500Y-76861361D01*
X254637500Y-75986639D01*
X254606413Y-75790364D01*
X254587968Y-75733598D01*
X254585974Y-75663758D01*
X254618219Y-75607600D01*
X254641596Y-75584224D01*
X254665816Y-75557261D01*
X254677754Y-75543972D01*
X254677754Y-75543970D01*
X254677757Y-75543968D01*
X254751175Y-75420229D01*
X254792237Y-75321097D01*
X254810240Y-75270066D01*
X254830716Y-75127650D01*
X254830716Y-75020350D01*
X254827820Y-74966314D01*
X254814976Y-74915994D01*
X254805262Y-74877934D01*
X254792237Y-74826903D01*
X254751175Y-74727771D01*
X254727825Y-74678966D01*
X254727824Y-74678963D01*
X254727822Y-74678960D01*
X254727821Y-74678958D01*
X254641596Y-74563776D01*
X254641591Y-74563771D01*
X254641586Y-74563765D01*
X254565734Y-74487913D01*
X254525472Y-74451745D01*
X254525469Y-74451744D01*
X254525468Y-74451743D01*
X254401729Y-74378325D01*
X254401727Y-74378324D01*
X254401725Y-74378323D01*
X254352163Y-74357794D01*
X254302597Y-74337263D01*
X254302582Y-74337257D01*
X254302575Y-74337255D01*
X254251567Y-74319260D01*
X254204094Y-74312434D01*
X254109150Y-74298784D01*
X254001850Y-74298784D01*
X254001846Y-74298784D01*
X253947819Y-74301679D01*
X253947805Y-74301681D01*
X253808404Y-74337262D01*
X253808400Y-74337264D01*
X253709283Y-74378319D01*
X253709262Y-74378328D01*
X253660466Y-74401674D01*
X253660463Y-74401675D01*
X253545277Y-74487903D01*
X253545265Y-74487913D01*
X253469413Y-74563765D01*
X253433245Y-74604027D01*
X253433241Y-74604033D01*
X253359829Y-74727762D01*
X253359827Y-74727767D01*
X253359825Y-74727771D01*
X253359820Y-74727783D01*
X253349873Y-74751797D01*
X253306031Y-74806199D01*
X253254711Y-74826814D01*
X253079362Y-74854587D01*
X252890370Y-74915993D01*
X252890367Y-74915994D01*
X252713305Y-75006213D01*
X252552533Y-75123021D01*
X252412021Y-75263533D01*
X252295213Y-75424305D01*
X252204994Y-75601367D01*
X252204993Y-75601370D01*
X252143587Y-75790362D01*
X252112500Y-75986639D01*
X252112500Y-76861360D01*
X252143587Y-77057637D01*
X252204993Y-77246629D01*
X252204994Y-77246632D01*
X252290649Y-77414736D01*
X252295213Y-77423694D01*
X252412019Y-77584464D01*
X252552536Y-77724981D01*
X252713306Y-77841787D01*
X252777509Y-77874500D01*
X252890367Y-77932005D01*
X252890370Y-77932006D01*
X252984866Y-77962709D01*
X253079364Y-77993413D01*
X253275639Y-78024500D01*
X253275640Y-78024500D01*
X253474360Y-78024500D01*
X253474361Y-78024500D01*
X253670636Y-77993413D01*
X253848019Y-77935777D01*
X253917860Y-77933783D01*
X253977693Y-77969863D01*
X254008521Y-78032564D01*
X254000556Y-78101978D01*
X253974018Y-78141390D01*
X253441203Y-78674205D01*
X253379880Y-78707690D01*
X253377714Y-78708141D01*
X253266508Y-78730261D01*
X253266498Y-78730264D01*
X253120827Y-78790602D01*
X253120814Y-78790609D01*
X252989711Y-78878210D01*
X252989707Y-78878213D01*
X252878213Y-78989707D01*
X252878210Y-78989711D01*
X252790609Y-79120814D01*
X252790602Y-79120827D01*
X252730264Y-79266498D01*
X252730261Y-79266510D01*
X252699500Y-79421153D01*
X252699500Y-79578846D01*
X252704495Y-79603957D01*
X252698268Y-79673548D01*
X252655405Y-79728726D01*
X252589515Y-79751970D01*
X252521518Y-79735902D01*
X252495197Y-79715829D01*
X249105071Y-76325703D01*
X249078191Y-76285475D01*
X249068394Y-76261821D01*
X249060161Y-76249500D01*
X248980789Y-76130710D01*
X248869292Y-76019213D01*
X248869288Y-76019210D01*
X248738185Y-75931609D01*
X248738172Y-75931602D01*
X248592501Y-75871264D01*
X248592489Y-75871261D01*
X248437845Y-75840500D01*
X248437842Y-75840500D01*
X248280158Y-75840500D01*
X248280155Y-75840500D01*
X248125510Y-75871261D01*
X248125498Y-75871264D01*
X247979827Y-75931602D01*
X247979814Y-75931609D01*
X247848711Y-76019210D01*
X247848707Y-76019213D01*
X247737213Y-76130707D01*
X247737210Y-76130711D01*
X247649609Y-76261814D01*
X247649602Y-76261827D01*
X247589264Y-76407498D01*
X247589261Y-76407510D01*
X247558500Y-76562153D01*
X247558500Y-76719846D01*
X247589261Y-76874489D01*
X247589264Y-76874501D01*
X247649602Y-77020172D01*
X247649609Y-77020185D01*
X247737210Y-77151288D01*
X247737213Y-77151292D01*
X247848710Y-77262789D01*
X247975711Y-77347648D01*
X247979821Y-77350394D01*
X248003475Y-77360191D01*
X248043703Y-77387071D01*
X252694451Y-82037819D01*
X252727936Y-82099142D01*
X252722952Y-82168834D01*
X252681080Y-82224767D01*
X252615616Y-82249184D01*
X252606770Y-82249500D01*
X252304604Y-82249500D01*
X252257155Y-82240062D01*
X252233497Y-82230263D01*
X252233493Y-82230262D01*
X252233488Y-82230260D01*
X252078845Y-82199500D01*
X252078842Y-82199500D01*
X251921158Y-82199500D01*
X251921155Y-82199500D01*
X251766510Y-82230261D01*
X251766498Y-82230264D01*
X251620827Y-82290602D01*
X251620814Y-82290609D01*
X251489711Y-82378210D01*
X251489707Y-82378213D01*
X251378213Y-82489707D01*
X251378210Y-82489711D01*
X251290609Y-82620814D01*
X251290602Y-82620827D01*
X251230264Y-82766498D01*
X251230261Y-82766510D01*
X251199500Y-82921153D01*
X251199500Y-83078846D01*
X251230261Y-83233489D01*
X251230264Y-83233501D01*
X251290602Y-83379172D01*
X251290609Y-83379185D01*
X251378210Y-83510288D01*
X251378213Y-83510292D01*
X251489707Y-83621786D01*
X251489711Y-83621789D01*
X251620814Y-83709390D01*
X251620827Y-83709397D01*
X251720060Y-83750500D01*
X251766503Y-83769737D01*
X251921153Y-83800499D01*
X251921156Y-83800500D01*
X251921158Y-83800500D01*
X252078844Y-83800500D01*
X252078845Y-83800499D01*
X252155152Y-83785320D01*
X252233488Y-83769739D01*
X252233489Y-83769738D01*
X252233497Y-83769737D01*
X252257155Y-83759937D01*
X252304604Y-83750500D01*
X252637770Y-83750500D01*
X252704809Y-83770185D01*
X252725451Y-83786819D01*
X253253927Y-84315295D01*
X253280806Y-84355521D01*
X253290606Y-84379179D01*
X253290607Y-84379181D01*
X253378207Y-84510284D01*
X253378213Y-84510292D01*
X253489707Y-84621786D01*
X253489711Y-84621789D01*
X253620814Y-84709390D01*
X253620827Y-84709397D01*
X253757920Y-84766182D01*
X253766503Y-84769737D01*
X253921153Y-84800499D01*
X253921156Y-84800500D01*
X253921158Y-84800500D01*
X254078844Y-84800500D01*
X254078845Y-84800499D01*
X254233497Y-84769737D01*
X254379179Y-84709394D01*
X254510289Y-84621789D01*
X254621789Y-84510289D01*
X254709394Y-84379179D01*
X254733981Y-84319819D01*
X254777821Y-84265417D01*
X254844115Y-84243351D01*
X254911814Y-84260629D01*
X254936223Y-84279591D01*
X261964181Y-91307548D01*
X261997666Y-91368871D01*
X262000500Y-91395229D01*
X262000500Y-99639770D01*
X261980815Y-99706809D01*
X261928011Y-99752564D01*
X261858853Y-99762508D01*
X261795297Y-99733483D01*
X261788819Y-99727451D01*
X260978416Y-98917048D01*
X258478421Y-96417052D01*
X258478420Y-96417051D01*
X258420488Y-96378343D01*
X258384523Y-96354312D01*
X258355495Y-96334916D01*
X258355488Y-96334912D01*
X258218917Y-96278343D01*
X258218907Y-96278340D01*
X258073920Y-96249500D01*
X258073918Y-96249500D01*
X246362230Y-96249500D01*
X246295191Y-96229815D01*
X246274549Y-96213181D01*
X244286819Y-94225451D01*
X244253334Y-94164128D01*
X244250500Y-94137770D01*
X244250500Y-92804604D01*
X244259939Y-92757151D01*
X244260612Y-92755527D01*
X244269737Y-92733497D01*
X244300500Y-92578842D01*
X244300500Y-92421158D01*
X244300500Y-92421155D01*
X244300499Y-92421153D01*
X244269739Y-92266511D01*
X244269738Y-92266508D01*
X244269737Y-92266503D01*
X244259937Y-92242844D01*
X244250500Y-92195396D01*
X244250500Y-90364004D01*
X244221659Y-90219017D01*
X244221658Y-90219016D01*
X244221658Y-90219012D01*
X244208323Y-90186819D01*
X244165086Y-90082434D01*
X244165085Y-90082432D01*
X244132186Y-90033195D01*
X244132185Y-90033193D01*
X244082956Y-89959514D01*
X244082952Y-89959509D01*
X230540496Y-76417052D01*
X230540489Y-76417046D01*
X230466804Y-76367812D01*
X230466804Y-76367813D01*
X230417566Y-76334913D01*
X230280992Y-76278343D01*
X230280982Y-76278340D01*
X230135995Y-76249500D01*
X230135993Y-76249500D01*
X225926082Y-76249500D01*
X225926080Y-76249500D01*
X225781092Y-76278340D01*
X225781082Y-76278343D01*
X225644511Y-76334912D01*
X225644498Y-76334919D01*
X225521584Y-76417048D01*
X225521580Y-76417051D01*
X225417051Y-76521580D01*
X225417048Y-76521584D01*
X225334919Y-76644498D01*
X225334912Y-76644511D01*
X225278343Y-76781082D01*
X225278340Y-76781092D01*
X225249500Y-76926079D01*
X225249500Y-76926082D01*
X225249500Y-77073918D01*
X225249500Y-77073920D01*
X225249499Y-77073920D01*
X225278340Y-77218907D01*
X225278343Y-77218917D01*
X225334913Y-77355490D01*
X225334914Y-77355492D01*
X225353602Y-77383460D01*
X225359252Y-77401506D01*
X225369477Y-77417416D01*
X225373928Y-77448377D01*
X225374480Y-77450138D01*
X225374500Y-77452351D01*
X225374500Y-77689547D01*
X225354815Y-77756586D01*
X225338181Y-77777228D01*
X224777229Y-78338181D01*
X224715906Y-78371666D01*
X224689548Y-78374500D01*
X224042350Y-78374500D01*
X223975311Y-78354815D01*
X223973459Y-78353602D01*
X223879184Y-78290609D01*
X223879172Y-78290602D01*
X223733501Y-78230264D01*
X223733489Y-78230261D01*
X223578845Y-78199500D01*
X223578842Y-78199500D01*
X223421158Y-78199500D01*
X223421155Y-78199500D01*
X223266510Y-78230261D01*
X223266498Y-78230264D01*
X223120827Y-78290602D01*
X223120815Y-78290609D01*
X223026541Y-78353602D01*
X222959864Y-78374480D01*
X222957650Y-78374500D01*
X217392983Y-78374500D01*
X217325944Y-78354815D01*
X217280189Y-78302011D01*
X217271366Y-78274694D01*
X217269737Y-78266503D01*
X217209394Y-78120821D01*
X217209393Y-78120820D01*
X217209390Y-78120814D01*
X217121789Y-77989711D01*
X217121786Y-77989707D01*
X217010292Y-77878213D01*
X217010288Y-77878210D01*
X216879185Y-77790609D01*
X216879172Y-77790602D01*
X216733501Y-77730264D01*
X216733489Y-77730261D01*
X216578845Y-77699500D01*
X216578842Y-77699500D01*
X216421158Y-77699500D01*
X216421155Y-77699500D01*
X216266510Y-77730261D01*
X216266498Y-77730264D01*
X216120827Y-77790602D01*
X216120814Y-77790609D01*
X215989711Y-77878210D01*
X215989707Y-77878213D01*
X215878213Y-77989707D01*
X215878210Y-77989711D01*
X215790609Y-78120814D01*
X215790605Y-78120823D01*
X215730264Y-78266498D01*
X215730261Y-78266510D01*
X215699500Y-78421153D01*
X215699500Y-78578846D01*
X215730261Y-78733489D01*
X215730264Y-78733501D01*
X215790602Y-78879172D01*
X215790609Y-78879185D01*
X215878210Y-79010288D01*
X215878213Y-79010292D01*
X215989707Y-79121786D01*
X215989711Y-79121789D01*
X216120814Y-79209390D01*
X216120827Y-79209397D01*
X216208230Y-79245599D01*
X216266503Y-79269737D01*
X216377716Y-79291858D01*
X216394470Y-79300622D01*
X216412949Y-79304642D01*
X216437985Y-79323384D01*
X216439623Y-79324241D01*
X216441203Y-79325793D01*
X216511016Y-79395606D01*
X216511045Y-79395637D01*
X216601264Y-79485856D01*
X216601267Y-79485858D01*
X216672564Y-79533497D01*
X216703715Y-79554312D01*
X216770397Y-79581932D01*
X216774570Y-79583660D01*
X216774575Y-79583663D01*
X216808536Y-79597730D01*
X216817548Y-79601463D01*
X216877971Y-79613481D01*
X216938393Y-79625500D01*
X216938394Y-79625500D01*
X222957650Y-79625500D01*
X223024689Y-79645185D01*
X223026541Y-79646398D01*
X223120821Y-79709394D01*
X223120823Y-79709395D01*
X223120827Y-79709397D01*
X223179018Y-79733500D01*
X223266503Y-79769737D01*
X223421153Y-79800499D01*
X223421156Y-79800500D01*
X223421158Y-79800500D01*
X223578844Y-79800500D01*
X223578845Y-79800499D01*
X223733497Y-79769737D01*
X223846166Y-79723067D01*
X223879172Y-79709397D01*
X223879172Y-79709396D01*
X223879179Y-79709394D01*
X223973459Y-79646398D01*
X224040136Y-79625520D01*
X224042350Y-79625500D01*
X225061607Y-79625500D01*
X225122029Y-79613481D01*
X225182452Y-79601463D01*
X225215792Y-79587652D01*
X225296286Y-79554312D01*
X225347509Y-79520084D01*
X225398733Y-79485858D01*
X225485858Y-79398733D01*
X225485858Y-79398731D01*
X225496066Y-79388524D01*
X225496067Y-79388521D01*
X226485858Y-78398733D01*
X226554312Y-78296285D01*
X226595980Y-78195688D01*
X226601463Y-78182452D01*
X226613722Y-78120821D01*
X226625501Y-78061606D01*
X226625501Y-77938393D01*
X226625501Y-77933283D01*
X226625500Y-77933257D01*
X226625500Y-77874500D01*
X226645185Y-77807461D01*
X226697989Y-77761706D01*
X226749500Y-77750500D01*
X229699845Y-77750500D01*
X229766884Y-77770185D01*
X229787526Y-77786819D01*
X237038526Y-85037819D01*
X237072011Y-85099142D01*
X237067027Y-85168834D01*
X237025155Y-85224767D01*
X236959691Y-85249184D01*
X236950845Y-85249500D01*
X229678269Y-85249500D01*
X229611230Y-85229815D01*
X229565475Y-85177011D01*
X229555531Y-85107853D01*
X229584556Y-85044297D01*
X229605626Y-85025707D01*
X229605581Y-85025653D01*
X229607119Y-85024390D01*
X229609379Y-85022397D01*
X229610289Y-85021789D01*
X229721789Y-84910289D01*
X229809394Y-84779179D01*
X229814778Y-84766182D01*
X229869735Y-84633501D01*
X229869737Y-84633497D01*
X229900500Y-84478842D01*
X229900500Y-84321158D01*
X229900500Y-84321155D01*
X229900499Y-84321153D01*
X229883063Y-84233497D01*
X229869737Y-84166503D01*
X229869735Y-84166498D01*
X229809397Y-84020828D01*
X229809396Y-84020827D01*
X229809394Y-84020821D01*
X229746397Y-83926539D01*
X229725520Y-83859863D01*
X229725500Y-83857650D01*
X229725500Y-82310451D01*
X229745185Y-82243412D01*
X229761815Y-82222774D01*
X230258797Y-81725791D01*
X230320118Y-81692308D01*
X230322128Y-81691889D01*
X230433497Y-81669737D01*
X230579179Y-81609394D01*
X230710289Y-81521789D01*
X230821789Y-81410289D01*
X230909394Y-81279179D01*
X230969737Y-81133497D01*
X231000500Y-80978842D01*
X231000500Y-80821158D01*
X231000500Y-80821155D01*
X231000499Y-80821153D01*
X230982419Y-80730261D01*
X230969737Y-80666503D01*
X230933427Y-80578842D01*
X230909397Y-80520827D01*
X230909390Y-80520814D01*
X230821789Y-80389711D01*
X230821786Y-80389707D01*
X230710292Y-80278213D01*
X230710288Y-80278210D01*
X230579185Y-80190609D01*
X230579172Y-80190602D01*
X230433501Y-80130264D01*
X230433489Y-80130261D01*
X230278845Y-80099500D01*
X230278842Y-80099500D01*
X230121158Y-80099500D01*
X230121155Y-80099500D01*
X229966510Y-80130261D01*
X229966498Y-80130264D01*
X229820827Y-80190602D01*
X229820814Y-80190609D01*
X229689711Y-80278210D01*
X229689707Y-80278213D01*
X229578213Y-80389707D01*
X229578210Y-80389711D01*
X229490609Y-80520814D01*
X229490602Y-80520827D01*
X229430264Y-80666498D01*
X229430261Y-80666508D01*
X229408141Y-80777714D01*
X229375756Y-80839625D01*
X229374205Y-80841203D01*
X228701270Y-81514139D01*
X228614144Y-81601264D01*
X228614138Y-81601272D01*
X228579914Y-81652489D01*
X228579915Y-81652490D01*
X228545691Y-81703708D01*
X228545684Y-81703721D01*
X228533352Y-81733496D01*
X228498538Y-81817544D01*
X228498535Y-81817556D01*
X228474500Y-81938389D01*
X228474500Y-83857650D01*
X228454815Y-83924689D01*
X228453602Y-83926541D01*
X228390609Y-84020815D01*
X228390602Y-84020828D01*
X228330264Y-84166498D01*
X228330261Y-84166510D01*
X228299500Y-84321153D01*
X228299500Y-84478846D01*
X228330261Y-84633489D01*
X228330264Y-84633501D01*
X228390602Y-84779172D01*
X228390609Y-84779185D01*
X228478210Y-84910288D01*
X228478213Y-84910292D01*
X228589708Y-85021787D01*
X228590621Y-85022397D01*
X228590991Y-85022839D01*
X228594419Y-85025653D01*
X228593885Y-85026303D01*
X228635427Y-85076010D01*
X228644134Y-85145334D01*
X228613980Y-85208362D01*
X228554537Y-85245082D01*
X228521731Y-85249500D01*
X205362230Y-85249500D01*
X205295191Y-85229815D01*
X205274549Y-85213181D01*
X202007701Y-81946333D01*
X201974216Y-81885010D01*
X201979200Y-81815318D01*
X202021072Y-81759385D01*
X202086536Y-81734968D01*
X202154809Y-81749820D01*
X202170869Y-81760277D01*
X202225382Y-81802107D01*
X202225385Y-81802108D01*
X202225388Y-81802111D01*
X202424112Y-81916844D01*
X202424117Y-81916846D01*
X202424123Y-81916849D01*
X202476126Y-81938389D01*
X202636113Y-82004658D01*
X202857762Y-82064048D01*
X203085266Y-82094000D01*
X203085273Y-82094000D01*
X203314727Y-82094000D01*
X203314734Y-82094000D01*
X203542238Y-82064048D01*
X203763887Y-82004658D01*
X203975888Y-81916844D01*
X204174612Y-81802111D01*
X204356661Y-81662419D01*
X204356665Y-81662414D01*
X204356670Y-81662411D01*
X204518911Y-81500170D01*
X204518914Y-81500165D01*
X204518919Y-81500161D01*
X204658611Y-81318112D01*
X204773344Y-81119388D01*
X204861158Y-80907387D01*
X204920548Y-80685738D01*
X204950500Y-80458234D01*
X204950500Y-80228766D01*
X204950499Y-80228758D01*
X206249500Y-80228758D01*
X206249500Y-80458241D01*
X206265379Y-80578846D01*
X206279452Y-80685738D01*
X206321108Y-80841203D01*
X206338842Y-80907387D01*
X206426650Y-81119376D01*
X206426657Y-81119390D01*
X206541392Y-81318117D01*
X206681081Y-81500161D01*
X206681089Y-81500170D01*
X206843330Y-81662411D01*
X206843338Y-81662418D01*
X206843339Y-81662419D01*
X206852875Y-81669736D01*
X207025382Y-81802107D01*
X207025385Y-81802108D01*
X207025388Y-81802111D01*
X207224112Y-81916844D01*
X207224117Y-81916846D01*
X207224123Y-81916849D01*
X207276126Y-81938389D01*
X207436113Y-82004658D01*
X207657762Y-82064048D01*
X207885266Y-82094000D01*
X207885273Y-82094000D01*
X208114727Y-82094000D01*
X208114734Y-82094000D01*
X208342238Y-82064048D01*
X208563887Y-82004658D01*
X208775888Y-81916844D01*
X208974612Y-81802111D01*
X209156661Y-81662419D01*
X209156665Y-81662414D01*
X209156670Y-81662411D01*
X209318911Y-81500170D01*
X209318914Y-81500165D01*
X209318919Y-81500161D01*
X209458611Y-81318112D01*
X209573344Y-81119388D01*
X209661158Y-80907387D01*
X209720548Y-80685738D01*
X209750500Y-80458234D01*
X209750500Y-80228766D01*
X209750499Y-80228758D01*
X211049500Y-80228758D01*
X211049500Y-80458241D01*
X211065379Y-80578846D01*
X211079452Y-80685738D01*
X211121108Y-80841203D01*
X211138842Y-80907387D01*
X211226650Y-81119376D01*
X211226657Y-81119390D01*
X211341392Y-81318117D01*
X211481081Y-81500161D01*
X211481089Y-81500170D01*
X211643330Y-81662411D01*
X211643338Y-81662418D01*
X211643339Y-81662419D01*
X211652875Y-81669736D01*
X211825382Y-81802107D01*
X211825385Y-81802108D01*
X211825388Y-81802111D01*
X212024112Y-81916844D01*
X212024117Y-81916846D01*
X212024123Y-81916849D01*
X212076126Y-81938389D01*
X212236113Y-82004658D01*
X212457762Y-82064048D01*
X212685266Y-82094000D01*
X212685273Y-82094000D01*
X212914727Y-82094000D01*
X212914734Y-82094000D01*
X213142238Y-82064048D01*
X213363887Y-82004658D01*
X213575888Y-81916844D01*
X213774612Y-81802111D01*
X213956661Y-81662419D01*
X213956665Y-81662414D01*
X213956670Y-81662411D01*
X214118911Y-81500170D01*
X214118914Y-81500165D01*
X214118919Y-81500161D01*
X214258611Y-81318112D01*
X214373344Y-81119388D01*
X214461158Y-80907387D01*
X214520548Y-80685738D01*
X214550500Y-80458234D01*
X214550500Y-80228766D01*
X214520548Y-80001262D01*
X214461158Y-79779613D01*
X214405476Y-79645185D01*
X214373349Y-79567623D01*
X214373346Y-79567617D01*
X214373344Y-79567612D01*
X214258611Y-79368888D01*
X214258608Y-79368885D01*
X214258607Y-79368882D01*
X214118918Y-79186838D01*
X214118911Y-79186830D01*
X213956670Y-79024589D01*
X213956661Y-79024581D01*
X213774617Y-78884892D01*
X213763043Y-78878210D01*
X213575888Y-78770156D01*
X213575876Y-78770150D01*
X213363887Y-78682342D01*
X213333519Y-78674205D01*
X213142238Y-78622952D01*
X213104215Y-78617946D01*
X212914741Y-78593000D01*
X212914734Y-78593000D01*
X212685266Y-78593000D01*
X212685258Y-78593000D01*
X212468715Y-78621509D01*
X212457762Y-78622952D01*
X212400926Y-78638181D01*
X212236112Y-78682342D01*
X212024123Y-78770150D01*
X212024109Y-78770157D01*
X211825382Y-78884892D01*
X211643338Y-79024581D01*
X211481081Y-79186838D01*
X211341392Y-79368882D01*
X211226657Y-79567609D01*
X211226650Y-79567623D01*
X211138842Y-79779612D01*
X211079453Y-80001259D01*
X211079451Y-80001270D01*
X211049500Y-80228758D01*
X209750499Y-80228758D01*
X209720548Y-80001262D01*
X209661158Y-79779613D01*
X209605476Y-79645185D01*
X209573349Y-79567623D01*
X209573346Y-79567617D01*
X209573344Y-79567612D01*
X209458611Y-79368888D01*
X209458608Y-79368885D01*
X209458607Y-79368882D01*
X209318918Y-79186838D01*
X209318911Y-79186830D01*
X209156670Y-79024589D01*
X209156661Y-79024581D01*
X208974617Y-78884892D01*
X208963043Y-78878210D01*
X208775888Y-78770156D01*
X208775876Y-78770150D01*
X208563887Y-78682342D01*
X208533519Y-78674205D01*
X208342238Y-78622952D01*
X208304215Y-78617946D01*
X208114741Y-78593000D01*
X208114734Y-78593000D01*
X207885266Y-78593000D01*
X207885258Y-78593000D01*
X207668715Y-78621509D01*
X207657762Y-78622952D01*
X207600926Y-78638181D01*
X207436112Y-78682342D01*
X207224123Y-78770150D01*
X207224109Y-78770157D01*
X207025382Y-78884892D01*
X206843338Y-79024581D01*
X206681081Y-79186838D01*
X206541392Y-79368882D01*
X206426657Y-79567609D01*
X206426650Y-79567623D01*
X206338842Y-79779612D01*
X206279453Y-80001259D01*
X206279451Y-80001270D01*
X206249500Y-80228758D01*
X204950499Y-80228758D01*
X204920548Y-80001262D01*
X204861158Y-79779613D01*
X204805476Y-79645185D01*
X204773349Y-79567623D01*
X204773346Y-79567617D01*
X204773344Y-79567612D01*
X204658611Y-79368888D01*
X204658608Y-79368885D01*
X204658607Y-79368882D01*
X204518918Y-79186838D01*
X204518911Y-79186830D01*
X204356670Y-79024589D01*
X204356661Y-79024581D01*
X204174617Y-78884892D01*
X204163043Y-78878210D01*
X203975888Y-78770156D01*
X203975876Y-78770150D01*
X203763887Y-78682342D01*
X203733519Y-78674205D01*
X203542238Y-78622952D01*
X203504215Y-78617946D01*
X203314741Y-78593000D01*
X203314734Y-78593000D01*
X203085266Y-78593000D01*
X203085258Y-78593000D01*
X202868715Y-78621509D01*
X202857762Y-78622952D01*
X202800926Y-78638181D01*
X202636112Y-78682342D01*
X202424123Y-78770150D01*
X202424109Y-78770157D01*
X202225382Y-78884892D01*
X202043338Y-79024581D01*
X201881081Y-79186838D01*
X201741392Y-79368882D01*
X201626657Y-79567609D01*
X201626650Y-79567623D01*
X201538842Y-79779612D01*
X201479453Y-80001259D01*
X201479451Y-80001270D01*
X201449500Y-80228758D01*
X201449500Y-80458241D01*
X201465379Y-80578846D01*
X201479452Y-80685738D01*
X201521108Y-80841203D01*
X201538842Y-80907387D01*
X201626650Y-81119376D01*
X201626657Y-81119390D01*
X201713459Y-81269735D01*
X201741389Y-81318112D01*
X201783223Y-81372631D01*
X201808417Y-81437799D01*
X201794379Y-81506244D01*
X201745565Y-81556234D01*
X201677474Y-81571898D01*
X201611723Y-81548262D01*
X201597166Y-81535798D01*
X201246071Y-81184703D01*
X201219191Y-81144475D01*
X201209394Y-81120821D01*
X201208438Y-81119390D01*
X201121789Y-80989710D01*
X201010291Y-80878212D01*
X201010288Y-80878210D01*
X200879185Y-80790609D01*
X200879172Y-80790602D01*
X200733501Y-80730264D01*
X200733489Y-80730261D01*
X200578845Y-80699500D01*
X200578842Y-80699500D01*
X200421158Y-80699500D01*
X200421155Y-80699500D01*
X200266510Y-80730261D01*
X200266498Y-80730264D01*
X200120827Y-80790602D01*
X200120814Y-80790609D01*
X199989711Y-80878210D01*
X199989709Y-80878212D01*
X199878213Y-80989707D01*
X199878207Y-80989715D01*
X199790607Y-81120818D01*
X199790606Y-81120819D01*
X199780805Y-81144480D01*
X199753927Y-81184703D01*
X188417049Y-92521581D01*
X188376043Y-92582951D01*
X188376044Y-92582952D01*
X188334914Y-92644508D01*
X188278343Y-92781082D01*
X188278340Y-92781092D01*
X188249500Y-92926079D01*
X188249500Y-96195396D01*
X188240062Y-96242844D01*
X188232886Y-96260170D01*
X188230262Y-96266506D01*
X188230260Y-96266511D01*
X188199500Y-96421153D01*
X188199500Y-96578846D01*
X188230261Y-96733489D01*
X188230264Y-96733501D01*
X188290602Y-96879172D01*
X188290609Y-96879185D01*
X188378210Y-97010288D01*
X188378213Y-97010292D01*
X188489710Y-97121789D01*
X188620815Y-97209390D01*
X188620821Y-97209394D01*
X188644475Y-97219191D01*
X188684703Y-97246071D01*
X191455142Y-100016510D01*
X194213181Y-102774548D01*
X194246666Y-102835871D01*
X194249500Y-102862229D01*
X194249500Y-112121042D01*
X194229815Y-112188081D01*
X194190598Y-112226580D01*
X194181344Y-112232287D01*
X194057289Y-112356342D01*
X194017420Y-112420981D01*
X193965472Y-112467705D01*
X193896509Y-112478928D01*
X193832427Y-112451084D01*
X193824200Y-112443565D01*
X193716602Y-112335967D01*
X193576524Y-112234195D01*
X193422257Y-112155591D01*
X193257589Y-112102087D01*
X193257581Y-112102085D01*
X193250000Y-112100884D01*
X193250000Y-113169670D01*
X193230255Y-113149925D01*
X193144745Y-113100556D01*
X193049370Y-113075000D01*
X192950630Y-113075000D01*
X192855255Y-113100556D01*
X192769745Y-113149925D01*
X192750000Y-113169670D01*
X192750000Y-112100884D01*
X192749999Y-112100884D01*
X192742418Y-112102085D01*
X192742410Y-112102087D01*
X192577742Y-112155591D01*
X192423475Y-112234195D01*
X192283397Y-112335967D01*
X192160967Y-112458397D01*
X192059195Y-112598475D01*
X191980591Y-112752742D01*
X191927085Y-112917415D01*
X191900000Y-113088428D01*
X191900000Y-113200000D01*
X192719670Y-113200000D01*
X192699925Y-113219745D01*
X192650556Y-113305255D01*
X192625000Y-113400630D01*
X192625000Y-113499370D01*
X192650556Y-113594745D01*
X192699925Y-113680255D01*
X192719670Y-113700000D01*
X191900000Y-113700000D01*
X191900000Y-113811571D01*
X191927085Y-113982584D01*
X191980591Y-114147257D01*
X192059195Y-114301524D01*
X192160967Y-114441602D01*
X192283397Y-114564032D01*
X192423475Y-114665804D01*
X192577744Y-114744408D01*
X192742415Y-114797914D01*
X192742414Y-114797914D01*
X192749999Y-114799115D01*
X192750000Y-114799114D01*
X192750000Y-113730330D01*
X192769745Y-113750075D01*
X192855255Y-113799444D01*
X192950630Y-113825000D01*
X193049370Y-113825000D01*
X193144745Y-113799444D01*
X193230255Y-113750075D01*
X193250000Y-113730330D01*
X193250000Y-114799115D01*
X193257584Y-114797914D01*
X193422255Y-114744408D01*
X193576524Y-114665804D01*
X193716598Y-114564035D01*
X193824199Y-114456434D01*
X193885522Y-114422949D01*
X193955214Y-114427933D01*
X194011148Y-114469804D01*
X194017418Y-114479016D01*
X194057288Y-114543656D01*
X194181344Y-114667712D01*
X194330666Y-114759814D01*
X194497203Y-114814999D01*
X194599991Y-114825500D01*
X195400008Y-114825499D01*
X195400016Y-114825498D01*
X195400019Y-114825498D01*
X195456302Y-114819748D01*
X195502797Y-114814999D01*
X195669334Y-114759814D01*
X195818656Y-114667712D01*
X195942712Y-114543656D01*
X196034814Y-114394334D01*
X196089999Y-114227797D01*
X196100500Y-114125009D01*
X196100499Y-112774992D01*
X196089999Y-112672203D01*
X196034814Y-112505666D01*
X195942712Y-112356344D01*
X195818656Y-112232288D01*
X195818655Y-112232287D01*
X195809402Y-112226580D01*
X195762678Y-112174632D01*
X195750500Y-112121042D01*
X195750500Y-102426079D01*
X195721659Y-102281092D01*
X195721658Y-102281091D01*
X195721658Y-102281087D01*
X195701946Y-102233497D01*
X195665087Y-102144511D01*
X195665080Y-102144498D01*
X195582952Y-102021585D01*
X195581641Y-102020274D01*
X195478416Y-101917049D01*
X189786819Y-96225451D01*
X189753334Y-96164128D01*
X189750500Y-96137770D01*
X189750500Y-93362229D01*
X189770185Y-93295190D01*
X189786815Y-93274552D01*
X190076963Y-92984403D01*
X190138286Y-92950919D01*
X190207978Y-92955903D01*
X190252325Y-92984404D01*
X190289707Y-93021786D01*
X190289711Y-93021789D01*
X190420814Y-93109390D01*
X190420827Y-93109397D01*
X190566498Y-93169735D01*
X190566503Y-93169737D01*
X190664008Y-93189132D01*
X190721153Y-93200499D01*
X190721156Y-93200500D01*
X190721158Y-93200500D01*
X190878844Y-93200500D01*
X190878845Y-93200499D01*
X191033497Y-93169737D01*
X191179179Y-93109394D01*
X191310289Y-93021789D01*
X191421789Y-92910289D01*
X191509394Y-92779179D01*
X191519191Y-92755524D01*
X191546069Y-92715297D01*
X194074548Y-90186819D01*
X194135871Y-90153334D01*
X194162229Y-90150500D01*
X196126082Y-90150500D01*
X196295396Y-90150500D01*
X196342844Y-90159937D01*
X196366503Y-90169737D01*
X196366508Y-90169738D01*
X196366511Y-90169739D01*
X196521153Y-90200499D01*
X196521156Y-90200500D01*
X196521158Y-90200500D01*
X196678844Y-90200500D01*
X196678845Y-90200499D01*
X196833497Y-90169737D01*
X196979179Y-90109394D01*
X197110289Y-90021789D01*
X197221789Y-89910289D01*
X197309394Y-89779179D01*
X197369737Y-89633497D01*
X197400500Y-89478842D01*
X197400500Y-89321158D01*
X197400500Y-89321155D01*
X197400499Y-89321153D01*
X197369738Y-89166510D01*
X197369737Y-89166503D01*
X197360612Y-89144473D01*
X197309397Y-89020827D01*
X197309390Y-89020814D01*
X197221789Y-88889711D01*
X197221786Y-88889707D01*
X197110292Y-88778213D01*
X197110288Y-88778210D01*
X196979185Y-88690609D01*
X196979172Y-88690602D01*
X196833501Y-88630264D01*
X196833489Y-88630261D01*
X196678845Y-88599500D01*
X196678842Y-88599500D01*
X196521158Y-88599500D01*
X196521155Y-88599500D01*
X196366511Y-88630260D01*
X196366506Y-88630262D01*
X196366504Y-88630262D01*
X196366503Y-88630263D01*
X196342844Y-88640062D01*
X196295396Y-88649500D01*
X194711230Y-88649500D01*
X194644191Y-88629815D01*
X194598436Y-88577011D01*
X194588492Y-88507853D01*
X194617517Y-88444297D01*
X194623549Y-88437819D01*
X196495683Y-86565685D01*
X200412320Y-82649047D01*
X200473641Y-82615564D01*
X200543333Y-82620548D01*
X200587680Y-82649049D01*
X204521578Y-86582947D01*
X204521585Y-86582953D01*
X204579704Y-86621786D01*
X204579706Y-86621787D01*
X204579709Y-86621789D01*
X204644505Y-86665084D01*
X204644506Y-86665084D01*
X204644507Y-86665085D01*
X204751479Y-86709394D01*
X204781087Y-86721658D01*
X204781091Y-86721658D01*
X204781092Y-86721659D01*
X204926079Y-86750500D01*
X204926082Y-86750500D01*
X204926083Y-86750500D01*
X205073917Y-86750500D01*
X226428883Y-86750500D01*
X226495922Y-86770185D01*
X226541677Y-86822989D01*
X226551621Y-86892147D01*
X226531986Y-86943389D01*
X226523840Y-86955579D01*
X226523839Y-86955581D01*
X226467268Y-87092157D01*
X226467265Y-87092167D01*
X226438425Y-87237154D01*
X226438425Y-88386770D01*
X226418740Y-88453809D01*
X226402106Y-88474451D01*
X224717047Y-90159509D01*
X224717045Y-90159511D01*
X224683719Y-90209391D01*
X224683717Y-90209394D01*
X224634919Y-90282424D01*
X224634912Y-90282436D01*
X224578343Y-90419007D01*
X224578340Y-90419017D01*
X224549500Y-90564004D01*
X224549500Y-90825500D01*
X224529815Y-90892539D01*
X224477011Y-90938294D01*
X224425500Y-90949500D01*
X215562229Y-90949500D01*
X215495190Y-90929815D01*
X215474548Y-90913181D01*
X214727421Y-90166052D01*
X214727414Y-90166046D01*
X214653729Y-90116812D01*
X214653729Y-90116813D01*
X214604491Y-90083913D01*
X214467917Y-90027343D01*
X214467907Y-90027340D01*
X214322920Y-89998500D01*
X214322918Y-89998500D01*
X210124917Y-89998500D01*
X209977082Y-89998500D01*
X209977080Y-89998500D01*
X209832092Y-90027340D01*
X209832082Y-90027343D01*
X209695511Y-90083912D01*
X209695498Y-90083919D01*
X209572584Y-90166048D01*
X209572580Y-90166051D01*
X208484703Y-91253927D01*
X208444480Y-91280805D01*
X208420819Y-91290606D01*
X208420818Y-91290607D01*
X208289715Y-91378207D01*
X208289707Y-91378213D01*
X208178213Y-91489707D01*
X208178210Y-91489711D01*
X208090609Y-91620814D01*
X208090602Y-91620827D01*
X208030264Y-91766498D01*
X208030261Y-91766510D01*
X207999500Y-91921153D01*
X207999500Y-92078846D01*
X208030261Y-92233489D01*
X208030264Y-92233501D01*
X208090602Y-92379172D01*
X208090609Y-92379185D01*
X208178210Y-92510288D01*
X208178213Y-92510292D01*
X208289707Y-92621786D01*
X208289711Y-92621789D01*
X208420814Y-92709390D01*
X208420827Y-92709397D01*
X208566498Y-92769735D01*
X208566503Y-92769737D01*
X208716131Y-92799500D01*
X208721153Y-92800499D01*
X208721156Y-92800500D01*
X208721158Y-92800500D01*
X208878844Y-92800500D01*
X208878845Y-92800499D01*
X209033497Y-92769737D01*
X209033509Y-92769731D01*
X209039324Y-92767969D01*
X209039966Y-92770086D01*
X209099536Y-92763655D01*
X209162029Y-92794902D01*
X209197708Y-92854975D01*
X209195246Y-92924801D01*
X209165255Y-92973376D01*
X207425451Y-94713181D01*
X207364128Y-94746666D01*
X207337770Y-94749500D01*
X203462230Y-94749500D01*
X203395191Y-94729815D01*
X203374549Y-94713181D01*
X201327421Y-92666052D01*
X201327414Y-92666046D01*
X201253729Y-92616812D01*
X201253729Y-92616813D01*
X201204491Y-92583913D01*
X201067917Y-92527343D01*
X201067907Y-92527340D01*
X200922920Y-92498500D01*
X200922918Y-92498500D01*
X199615007Y-92498500D01*
X199615005Y-92498500D01*
X199470017Y-92527340D01*
X199470011Y-92527342D01*
X199333433Y-92583914D01*
X199333421Y-92583921D01*
X199284194Y-92616813D01*
X199210513Y-92666044D01*
X199210505Y-92666050D01*
X198666049Y-93210506D01*
X198618889Y-93281086D01*
X198618890Y-93281087D01*
X198583914Y-93333433D01*
X198527343Y-93470007D01*
X198527340Y-93470017D01*
X198506905Y-93572749D01*
X198474520Y-93634660D01*
X198413803Y-93669234D01*
X198344034Y-93665493D01*
X198297607Y-93636238D01*
X197678421Y-93017052D01*
X197678414Y-93017046D01*
X197604011Y-92967332D01*
X197603912Y-92967267D01*
X197555495Y-92934916D01*
X197555494Y-92934915D01*
X197555492Y-92934914D01*
X197418917Y-92878343D01*
X197418907Y-92878340D01*
X197273920Y-92849500D01*
X197273918Y-92849500D01*
X194104604Y-92849500D01*
X194057155Y-92840062D01*
X194033497Y-92830263D01*
X194033493Y-92830262D01*
X194033488Y-92830260D01*
X193878845Y-92799500D01*
X193878842Y-92799500D01*
X193721158Y-92799500D01*
X193721155Y-92799500D01*
X193566510Y-92830261D01*
X193566498Y-92830264D01*
X193420827Y-92890602D01*
X193420814Y-92890609D01*
X193289711Y-92978210D01*
X193289707Y-92978213D01*
X193178213Y-93089707D01*
X193178210Y-93089711D01*
X193090609Y-93220814D01*
X193090602Y-93220827D01*
X193030264Y-93366498D01*
X193030261Y-93366510D01*
X192999500Y-93521153D01*
X192999500Y-93678846D01*
X193030261Y-93833489D01*
X193030264Y-93833501D01*
X193090602Y-93979172D01*
X193090609Y-93979185D01*
X193178210Y-94110288D01*
X193178213Y-94110292D01*
X193289707Y-94221786D01*
X193289711Y-94221789D01*
X193420814Y-94309390D01*
X193420827Y-94309397D01*
X193542846Y-94359938D01*
X193566503Y-94369737D01*
X193721153Y-94400499D01*
X193721156Y-94400500D01*
X193721158Y-94400500D01*
X193878844Y-94400500D01*
X193878845Y-94400499D01*
X193955152Y-94385320D01*
X194033488Y-94369739D01*
X194033489Y-94369738D01*
X194033497Y-94369737D01*
X194057155Y-94359937D01*
X194104604Y-94350500D01*
X196837770Y-94350500D01*
X196904809Y-94370185D01*
X196925451Y-94386819D01*
X199813181Y-97274548D01*
X199846666Y-97335871D01*
X199849500Y-97362229D01*
X199849500Y-101037769D01*
X199829815Y-101104808D01*
X199813181Y-101125450D01*
X196884703Y-104053927D01*
X196844480Y-104080805D01*
X196820819Y-104090606D01*
X196820818Y-104090607D01*
X196689715Y-104178207D01*
X196689707Y-104178213D01*
X196578213Y-104289707D01*
X196578210Y-104289711D01*
X196490609Y-104420814D01*
X196490602Y-104420827D01*
X196430264Y-104566498D01*
X196430261Y-104566510D01*
X196399500Y-104721153D01*
X196399500Y-104878846D01*
X196430261Y-105033489D01*
X196430264Y-105033501D01*
X196490602Y-105179172D01*
X196490609Y-105179185D01*
X196578210Y-105310288D01*
X196578213Y-105310292D01*
X196689707Y-105421786D01*
X196689711Y-105421789D01*
X196820814Y-105509390D01*
X196820827Y-105509397D01*
X196966498Y-105569735D01*
X196966503Y-105569737D01*
X197121153Y-105600499D01*
X197121156Y-105600500D01*
X197121158Y-105600500D01*
X197278844Y-105600500D01*
X197278845Y-105600499D01*
X197433497Y-105569737D01*
X197579179Y-105509394D01*
X197710289Y-105421789D01*
X197821789Y-105310289D01*
X197909394Y-105179179D01*
X197919191Y-105155524D01*
X197946069Y-105115297D01*
X201182951Y-101878416D01*
X201192537Y-101864069D01*
X201265084Y-101755495D01*
X201321658Y-101618913D01*
X201343265Y-101510289D01*
X201350500Y-101473920D01*
X201350500Y-97773305D01*
X201370185Y-97706266D01*
X201422989Y-97660511D01*
X201492147Y-97650567D01*
X201555703Y-97679592D01*
X201562181Y-97685624D01*
X215639376Y-111762819D01*
X215672861Y-111824142D01*
X215667877Y-111893834D01*
X215626005Y-111949767D01*
X215560541Y-111974184D01*
X215551695Y-111974500D01*
X208710452Y-111974500D01*
X208643413Y-111954815D01*
X208622771Y-111938181D01*
X208025793Y-111341203D01*
X207992308Y-111279880D01*
X207991887Y-111277864D01*
X207969737Y-111166503D01*
X207933251Y-111078417D01*
X207909397Y-111020827D01*
X207909390Y-111020814D01*
X207821789Y-110889711D01*
X207821786Y-110889707D01*
X207710292Y-110778213D01*
X207710288Y-110778210D01*
X207579185Y-110690609D01*
X207579172Y-110690602D01*
X207433501Y-110630264D01*
X207433489Y-110630261D01*
X207278845Y-110599500D01*
X207278842Y-110599500D01*
X207121158Y-110599500D01*
X207121155Y-110599500D01*
X206966510Y-110630261D01*
X206966498Y-110630264D01*
X206820827Y-110690602D01*
X206820814Y-110690609D01*
X206689711Y-110778210D01*
X206689707Y-110778213D01*
X206578213Y-110889707D01*
X206578210Y-110889711D01*
X206490609Y-111020814D01*
X206490602Y-111020827D01*
X206430264Y-111166498D01*
X206430261Y-111166510D01*
X206399500Y-111321153D01*
X206399500Y-111478846D01*
X206430261Y-111633489D01*
X206430264Y-111633501D01*
X206490602Y-111779172D01*
X206490609Y-111779185D01*
X206578210Y-111910288D01*
X206578213Y-111910292D01*
X206689707Y-112021786D01*
X206689711Y-112021789D01*
X206820814Y-112109390D01*
X206820827Y-112109397D01*
X206908230Y-112145599D01*
X206966503Y-112169737D01*
X207077716Y-112191858D01*
X207139623Y-112224241D01*
X207141203Y-112225793D01*
X207911016Y-112995606D01*
X207911045Y-112995637D01*
X208001263Y-113085855D01*
X208001267Y-113085858D01*
X208103707Y-113154307D01*
X208103713Y-113154310D01*
X208103714Y-113154311D01*
X208217548Y-113201463D01*
X208224193Y-113202784D01*
X208257391Y-113209389D01*
X208257421Y-113209394D01*
X208338390Y-113225499D01*
X208338392Y-113225500D01*
X208338393Y-113225500D01*
X208338394Y-113225500D01*
X215657650Y-113225500D01*
X215724689Y-113245185D01*
X215726541Y-113246398D01*
X215820821Y-113309394D01*
X215820823Y-113309395D01*
X215820827Y-113309397D01*
X215907069Y-113345119D01*
X215966503Y-113369737D01*
X216121153Y-113400499D01*
X216121156Y-113400500D01*
X216121158Y-113400500D01*
X216278844Y-113400500D01*
X216278845Y-113400499D01*
X216433497Y-113369737D01*
X216579179Y-113309394D01*
X216710289Y-113221789D01*
X216821789Y-113110289D01*
X216854081Y-113061959D01*
X216907691Y-113017155D01*
X216977016Y-113008446D01*
X217004630Y-113016287D01*
X217020011Y-113022658D01*
X217020015Y-113022658D01*
X217020016Y-113022659D01*
X217165003Y-113051500D01*
X217165006Y-113051500D01*
X217312841Y-113051500D01*
X217876695Y-113051500D01*
X217943734Y-113071185D01*
X217964376Y-113087819D01*
X219604974Y-114728416D01*
X219674472Y-114797914D01*
X219709510Y-114832952D01*
X219832423Y-114915080D01*
X219832436Y-114915087D01*
X219969007Y-114971656D01*
X219969012Y-114971658D01*
X219969016Y-114971658D01*
X219969017Y-114971659D01*
X220114004Y-115000500D01*
X220114007Y-115000500D01*
X223637770Y-115000500D01*
X223704809Y-115020185D01*
X223725451Y-115036819D01*
X223837469Y-115148837D01*
X223870954Y-115210160D01*
X223865970Y-115279852D01*
X223824098Y-115335785D01*
X223758634Y-115360202D01*
X223730390Y-115358991D01*
X223603153Y-115338839D01*
X223566287Y-115333000D01*
X223353713Y-115333000D01*
X223305042Y-115340708D01*
X223143760Y-115366253D01*
X223064067Y-115392147D01*
X222949612Y-115429336D01*
X222941585Y-115431944D01*
X222752179Y-115528451D01*
X222580213Y-115653390D01*
X222429890Y-115803713D01*
X222304949Y-115975682D01*
X222300202Y-115984999D01*
X222252227Y-116035793D01*
X222184405Y-116052587D01*
X222118271Y-116030048D01*
X222079234Y-115984995D01*
X222074622Y-115975944D01*
X221949727Y-115804040D01*
X221949723Y-115804035D01*
X221799464Y-115653776D01*
X221799459Y-115653772D01*
X221627557Y-115528879D01*
X221438215Y-115432403D01*
X221236124Y-115366741D01*
X221170000Y-115356268D01*
X221170000Y-116250488D01*
X221112993Y-116217575D01*
X220985826Y-116183500D01*
X220854174Y-116183500D01*
X220727007Y-116217575D01*
X220670000Y-116250488D01*
X220670000Y-115356268D01*
X220669999Y-115356268D01*
X220603875Y-115366741D01*
X220401784Y-115432403D01*
X220212442Y-115528879D01*
X220040540Y-115653772D01*
X220040535Y-115653776D01*
X219890276Y-115804035D01*
X219890272Y-115804040D01*
X219765378Y-115975943D01*
X219760762Y-115985002D01*
X219712784Y-116035795D01*
X219644963Y-116052587D01*
X219578829Y-116030046D01*
X219539794Y-115984993D01*
X219535051Y-115975684D01*
X219535049Y-115975681D01*
X219535048Y-115975679D01*
X219410109Y-115803713D01*
X219259786Y-115653390D01*
X219087820Y-115528451D01*
X218898414Y-115431944D01*
X218898413Y-115431943D01*
X218898412Y-115431943D01*
X218696243Y-115366254D01*
X218696241Y-115366253D01*
X218696240Y-115366253D01*
X218534957Y-115340708D01*
X218486287Y-115333000D01*
X218273713Y-115333000D01*
X218225042Y-115340708D01*
X218063760Y-115366253D01*
X217984067Y-115392147D01*
X217869612Y-115429336D01*
X217861585Y-115431944D01*
X217672179Y-115528451D01*
X217500213Y-115653390D01*
X217349890Y-115803713D01*
X217224949Y-115975682D01*
X217220202Y-115984999D01*
X217172227Y-116035793D01*
X217104405Y-116052587D01*
X217038271Y-116030048D01*
X216999234Y-115984995D01*
X216994622Y-115975944D01*
X216869727Y-115804040D01*
X216869723Y-115804035D01*
X216719464Y-115653776D01*
X216719459Y-115653772D01*
X216547557Y-115528879D01*
X216461412Y-115484985D01*
X216456779Y-115480609D01*
X216450668Y-115478815D01*
X216431691Y-115456915D01*
X216410616Y-115437010D01*
X216409084Y-115430825D01*
X216404913Y-115426011D01*
X216400788Y-115397323D01*
X216393821Y-115369189D01*
X216395875Y-115363159D01*
X216394969Y-115356853D01*
X216407010Y-115330484D01*
X216416359Y-115303054D01*
X216421347Y-115299092D01*
X216423994Y-115293297D01*
X216448379Y-115277625D01*
X216471074Y-115259603D01*
X216478757Y-115258103D01*
X216482772Y-115255523D01*
X216517707Y-115250500D01*
X216695396Y-115250500D01*
X216742844Y-115259937D01*
X216766503Y-115269737D01*
X216766508Y-115269738D01*
X216766511Y-115269739D01*
X216921153Y-115300499D01*
X216921156Y-115300500D01*
X216921158Y-115300500D01*
X217078844Y-115300500D01*
X217078845Y-115300499D01*
X217233497Y-115269737D01*
X217379179Y-115209394D01*
X217510289Y-115121789D01*
X217621789Y-115010289D01*
X217709394Y-114879179D01*
X217769737Y-114733497D01*
X217800500Y-114578842D01*
X217800500Y-114421158D01*
X217800500Y-114421155D01*
X217800499Y-114421153D01*
X217774353Y-114289711D01*
X217769737Y-114266503D01*
X217753704Y-114227795D01*
X217709397Y-114120827D01*
X217709390Y-114120814D01*
X217621789Y-113989711D01*
X217621786Y-113989707D01*
X217510292Y-113878213D01*
X217510288Y-113878210D01*
X217379185Y-113790609D01*
X217379172Y-113790602D01*
X217233501Y-113730264D01*
X217233489Y-113730261D01*
X217078845Y-113699500D01*
X217078842Y-113699500D01*
X216921158Y-113699500D01*
X216921155Y-113699500D01*
X216766511Y-113730260D01*
X216766506Y-113730262D01*
X216766504Y-113730262D01*
X216766503Y-113730263D01*
X216742844Y-113740062D01*
X216695396Y-113749500D01*
X205426080Y-113749500D01*
X205281092Y-113778340D01*
X205281082Y-113778343D01*
X205144511Y-113834912D01*
X205144499Y-113834919D01*
X205078262Y-113879178D01*
X205021581Y-113917050D01*
X205021578Y-113917053D01*
X203184703Y-115753927D01*
X203144480Y-115780805D01*
X203120819Y-115790606D01*
X203120818Y-115790607D01*
X202989715Y-115878207D01*
X202989707Y-115878213D01*
X202878213Y-115989707D01*
X202878210Y-115989711D01*
X202790609Y-116120814D01*
X202790602Y-116120827D01*
X202730264Y-116266498D01*
X202730261Y-116266510D01*
X202699500Y-116421153D01*
X202699500Y-116578846D01*
X202730261Y-116733489D01*
X202730264Y-116733501D01*
X202790602Y-116879172D01*
X202790609Y-116879185D01*
X202878210Y-117010288D01*
X202878213Y-117010292D01*
X202989707Y-117121786D01*
X202989711Y-117121789D01*
X203120814Y-117209390D01*
X203120827Y-117209397D01*
X203220060Y-117250500D01*
X203266503Y-117269737D01*
X203421153Y-117300499D01*
X203421156Y-117300500D01*
X203421158Y-117300500D01*
X203578844Y-117300500D01*
X203578845Y-117300499D01*
X203733497Y-117269737D01*
X203849576Y-117221656D01*
X203879172Y-117209397D01*
X203879172Y-117209396D01*
X203879179Y-117209394D01*
X204010289Y-117121789D01*
X204121789Y-117010289D01*
X204144188Y-116976765D01*
X204197800Y-116931960D01*
X204267125Y-116923253D01*
X204330153Y-116953407D01*
X204365221Y-117007337D01*
X204402409Y-117121789D01*
X204428444Y-117201914D01*
X204524951Y-117391320D01*
X204649890Y-117563286D01*
X204800213Y-117713609D01*
X204972182Y-117838550D01*
X204980946Y-117843016D01*
X205031742Y-117890991D01*
X205048536Y-117958812D01*
X205025998Y-118024947D01*
X204980946Y-118063984D01*
X204972182Y-118068449D01*
X204800213Y-118193390D01*
X204649890Y-118343713D01*
X204524951Y-118515679D01*
X204428444Y-118705085D01*
X204362753Y-118907260D01*
X204329500Y-119117213D01*
X204329500Y-119329786D01*
X204358088Y-119510288D01*
X204362754Y-119539743D01*
X204425706Y-119733489D01*
X204428444Y-119741914D01*
X204524951Y-119931320D01*
X204649890Y-120103286D01*
X204800213Y-120253609D01*
X204972179Y-120378548D01*
X204972181Y-120378549D01*
X204972184Y-120378551D01*
X205161588Y-120475057D01*
X205363757Y-120540746D01*
X205573713Y-120574000D01*
X205573714Y-120574000D01*
X205786286Y-120574000D01*
X205786287Y-120574000D01*
X205996243Y-120540746D01*
X206198412Y-120475057D01*
X206387816Y-120378551D01*
X206495245Y-120300500D01*
X206559786Y-120253609D01*
X206559788Y-120253606D01*
X206559792Y-120253604D01*
X206710104Y-120103292D01*
X206710106Y-120103288D01*
X206710109Y-120103286D01*
X206835048Y-119931320D01*
X206835047Y-119931320D01*
X206835051Y-119931316D01*
X206839514Y-119922554D01*
X206887488Y-119871759D01*
X206955308Y-119854963D01*
X207021444Y-119877499D01*
X207060486Y-119922556D01*
X207064951Y-119931320D01*
X207189890Y-120103286D01*
X207340213Y-120253609D01*
X207512179Y-120378548D01*
X207512181Y-120378549D01*
X207512184Y-120378551D01*
X207701588Y-120475057D01*
X207903757Y-120540746D01*
X208113713Y-120574000D01*
X208113714Y-120574000D01*
X208326286Y-120574000D01*
X208326287Y-120574000D01*
X208536243Y-120540746D01*
X208738412Y-120475057D01*
X208927816Y-120378551D01*
X209035245Y-120300500D01*
X209099786Y-120253609D01*
X209099788Y-120253606D01*
X209099792Y-120253604D01*
X209250104Y-120103292D01*
X209250106Y-120103288D01*
X209250109Y-120103286D01*
X209375048Y-119931320D01*
X209375047Y-119931320D01*
X209375051Y-119931316D01*
X209379514Y-119922554D01*
X209427488Y-119871759D01*
X209495308Y-119854963D01*
X209561444Y-119877499D01*
X209600486Y-119922556D01*
X209604951Y-119931320D01*
X209729890Y-120103286D01*
X209880213Y-120253609D01*
X210052179Y-120378548D01*
X210052181Y-120378549D01*
X210052184Y-120378551D01*
X210241588Y-120475057D01*
X210443757Y-120540746D01*
X210653713Y-120574000D01*
X210653714Y-120574000D01*
X210866286Y-120574000D01*
X210866287Y-120574000D01*
X211076243Y-120540746D01*
X211278412Y-120475057D01*
X211467816Y-120378551D01*
X211575245Y-120300500D01*
X211639786Y-120253609D01*
X211639788Y-120253606D01*
X211639792Y-120253604D01*
X211790104Y-120103292D01*
X211790106Y-120103288D01*
X211790109Y-120103286D01*
X211915048Y-119931320D01*
X211915047Y-119931320D01*
X211915051Y-119931316D01*
X211919514Y-119922554D01*
X211967488Y-119871759D01*
X212035308Y-119854963D01*
X212101444Y-119877499D01*
X212140486Y-119922556D01*
X212144951Y-119931320D01*
X212269890Y-120103286D01*
X212420213Y-120253609D01*
X212592179Y-120378548D01*
X212592181Y-120378549D01*
X212592184Y-120378551D01*
X212781588Y-120475057D01*
X212983757Y-120540746D01*
X213193713Y-120574000D01*
X213193714Y-120574000D01*
X213406286Y-120574000D01*
X213406287Y-120574000D01*
X213616243Y-120540746D01*
X213818412Y-120475057D01*
X214007816Y-120378551D01*
X214115245Y-120300500D01*
X214179786Y-120253609D01*
X214179788Y-120253606D01*
X214179792Y-120253604D01*
X214330104Y-120103292D01*
X214330106Y-120103288D01*
X214330109Y-120103286D01*
X214455048Y-119931320D01*
X214455047Y-119931320D01*
X214455051Y-119931316D01*
X214459514Y-119922554D01*
X214507488Y-119871759D01*
X214575308Y-119854963D01*
X214641444Y-119877499D01*
X214680486Y-119922556D01*
X214684951Y-119931320D01*
X214809890Y-120103286D01*
X214960213Y-120253609D01*
X215132179Y-120378548D01*
X215132181Y-120378549D01*
X215132184Y-120378551D01*
X215321588Y-120475057D01*
X215523757Y-120540746D01*
X215733713Y-120574000D01*
X215733714Y-120574000D01*
X215946286Y-120574000D01*
X215946287Y-120574000D01*
X216156243Y-120540746D01*
X216358412Y-120475057D01*
X216547816Y-120378551D01*
X216655245Y-120300500D01*
X216719786Y-120253609D01*
X216719788Y-120253606D01*
X216719792Y-120253604D01*
X216870104Y-120103292D01*
X216870106Y-120103288D01*
X216870109Y-120103286D01*
X216995048Y-119931320D01*
X216995047Y-119931320D01*
X216995051Y-119931316D01*
X216999514Y-119922554D01*
X217047488Y-119871759D01*
X217115308Y-119854963D01*
X217181444Y-119877499D01*
X217220486Y-119922556D01*
X217224951Y-119931320D01*
X217349890Y-120103286D01*
X217500213Y-120253609D01*
X217672179Y-120378548D01*
X217672181Y-120378549D01*
X217672184Y-120378551D01*
X217861588Y-120475057D01*
X218063757Y-120540746D01*
X218273713Y-120574000D01*
X218273714Y-120574000D01*
X218486286Y-120574000D01*
X218486287Y-120574000D01*
X218696243Y-120540746D01*
X218898412Y-120475057D01*
X219087816Y-120378551D01*
X219195245Y-120300500D01*
X219259786Y-120253609D01*
X219259788Y-120253606D01*
X219259792Y-120253604D01*
X219410104Y-120103292D01*
X219410106Y-120103288D01*
X219410109Y-120103286D01*
X219535048Y-119931320D01*
X219535047Y-119931320D01*
X219535051Y-119931316D01*
X219539514Y-119922554D01*
X219587488Y-119871759D01*
X219655308Y-119854963D01*
X219721444Y-119877499D01*
X219760486Y-119922556D01*
X219764951Y-119931320D01*
X219889890Y-120103286D01*
X220040213Y-120253609D01*
X220212179Y-120378548D01*
X220212181Y-120378549D01*
X220212184Y-120378551D01*
X220401588Y-120475057D01*
X220603757Y-120540746D01*
X220813713Y-120574000D01*
X220813714Y-120574000D01*
X221026286Y-120574000D01*
X221026287Y-120574000D01*
X221236243Y-120540746D01*
X221438412Y-120475057D01*
X221627816Y-120378551D01*
X221735245Y-120300500D01*
X221799786Y-120253609D01*
X221799788Y-120253606D01*
X221799792Y-120253604D01*
X221950104Y-120103292D01*
X221950106Y-120103288D01*
X221950109Y-120103286D01*
X222075048Y-119931320D01*
X222075047Y-119931320D01*
X222075051Y-119931316D01*
X222079514Y-119922554D01*
X222127488Y-119871759D01*
X222195308Y-119854963D01*
X222261444Y-119877499D01*
X222300486Y-119922556D01*
X222304951Y-119931320D01*
X222429890Y-120103286D01*
X222580213Y-120253609D01*
X222752182Y-120378550D01*
X222777278Y-120391337D01*
X222786138Y-120399705D01*
X222797462Y-120404215D01*
X222811066Y-120423247D01*
X222828074Y-120439310D01*
X222831003Y-120451139D01*
X222838092Y-120461056D01*
X222839247Y-120484425D01*
X222844870Y-120507131D01*
X222841024Y-120520388D01*
X222841541Y-120530841D01*
X222831025Y-120554862D01*
X222828482Y-120563630D01*
X222826397Y-120567254D01*
X222790606Y-120620821D01*
X222777740Y-120651880D01*
X222773744Y-120658831D01*
X222766731Y-120665541D01*
X222753927Y-120684704D01*
X217725451Y-125713181D01*
X217664128Y-125746666D01*
X217637770Y-125749500D01*
X190862229Y-125749500D01*
X190795190Y-125729815D01*
X190774548Y-125713181D01*
X187036819Y-121975451D01*
X187003334Y-121914128D01*
X187000500Y-121887770D01*
X187000500Y-117121153D01*
X194799500Y-117121153D01*
X194799500Y-117278846D01*
X194830261Y-117433489D01*
X194830264Y-117433501D01*
X194890602Y-117579172D01*
X194890609Y-117579185D01*
X194978210Y-117710288D01*
X194978212Y-117710291D01*
X195089707Y-117821786D01*
X195089711Y-117821789D01*
X195220814Y-117909390D01*
X195220827Y-117909397D01*
X195366498Y-117969735D01*
X195366503Y-117969737D01*
X195521153Y-118000499D01*
X195521156Y-118000500D01*
X195521158Y-118000500D01*
X195678844Y-118000500D01*
X195678845Y-118000499D01*
X195833497Y-117969737D01*
X195979179Y-117909394D01*
X196073459Y-117846398D01*
X196140136Y-117825520D01*
X196142350Y-117825500D01*
X196461607Y-117825500D01*
X196522029Y-117813481D01*
X196582452Y-117801463D01*
X196638271Y-117778342D01*
X196696286Y-117754312D01*
X196762169Y-117710289D01*
X196798733Y-117685858D01*
X196885858Y-117598733D01*
X196885858Y-117598731D01*
X196896066Y-117588524D01*
X196896067Y-117588521D01*
X198858798Y-115625791D01*
X198920119Y-115592308D01*
X198922114Y-115591892D01*
X199033497Y-115569737D01*
X199179179Y-115509394D01*
X199310289Y-115421789D01*
X199421789Y-115310289D01*
X199509394Y-115179179D01*
X199569737Y-115033497D01*
X199600500Y-114878842D01*
X199600500Y-114721158D01*
X199600500Y-114721155D01*
X199600499Y-114721153D01*
X199569737Y-114566503D01*
X199568715Y-114564035D01*
X199509397Y-114420827D01*
X199509390Y-114420814D01*
X199421789Y-114289711D01*
X199421786Y-114289707D01*
X199310292Y-114178213D01*
X199310288Y-114178210D01*
X199179185Y-114090609D01*
X199179172Y-114090602D01*
X199033501Y-114030264D01*
X199033489Y-114030261D01*
X198878845Y-113999500D01*
X198878842Y-113999500D01*
X198721158Y-113999500D01*
X198721155Y-113999500D01*
X198566510Y-114030261D01*
X198566498Y-114030264D01*
X198420827Y-114090602D01*
X198420814Y-114090609D01*
X198289711Y-114178210D01*
X198289707Y-114178213D01*
X198178213Y-114289707D01*
X198178210Y-114289711D01*
X198090609Y-114420814D01*
X198090602Y-114420827D01*
X198030264Y-114566498D01*
X198030261Y-114566508D01*
X198008141Y-114677713D01*
X197975756Y-114739624D01*
X197974205Y-114741202D01*
X196198378Y-116517031D01*
X196137055Y-116550516D01*
X196067364Y-116545532D01*
X196041806Y-116532452D01*
X195979184Y-116490609D01*
X195979172Y-116490602D01*
X195833501Y-116430264D01*
X195833489Y-116430261D01*
X195678845Y-116399500D01*
X195678842Y-116399500D01*
X195521158Y-116399500D01*
X195521155Y-116399500D01*
X195366510Y-116430261D01*
X195366498Y-116430264D01*
X195220827Y-116490602D01*
X195220814Y-116490609D01*
X195089711Y-116578210D01*
X195089707Y-116578213D01*
X194978213Y-116689707D01*
X194978210Y-116689711D01*
X194890609Y-116820814D01*
X194890602Y-116820827D01*
X194830264Y-116966498D01*
X194830261Y-116966510D01*
X194799500Y-117121153D01*
X187000500Y-117121153D01*
X187000500Y-93612229D01*
X187020185Y-93545190D01*
X187036819Y-93524548D01*
X195582950Y-84978417D01*
X195582952Y-84978415D01*
X195644796Y-84885858D01*
X195665084Y-84855495D01*
X195700606Y-84769737D01*
X195721659Y-84718912D01*
X195750500Y-84573917D01*
X195750500Y-84426082D01*
X195750500Y-74304604D01*
X195759939Y-74257151D01*
X195769737Y-74233497D01*
X195800500Y-74078842D01*
X195800500Y-73921158D01*
X195800500Y-73921155D01*
X195800499Y-73921153D01*
X195769739Y-73766511D01*
X195769738Y-73766508D01*
X195769737Y-73766503D01*
X195759937Y-73742844D01*
X195750500Y-73695396D01*
X195750500Y-72726079D01*
X195721659Y-72581092D01*
X195721658Y-72581091D01*
X195721658Y-72581087D01*
X195665084Y-72444505D01*
X195601083Y-72348720D01*
X195582952Y-72321584D01*
X192973549Y-69712181D01*
X192940064Y-69650858D01*
X192945048Y-69581166D01*
X192986920Y-69525233D01*
X193052384Y-69500816D01*
X193061230Y-69500500D01*
X200250397Y-69500500D01*
X200279156Y-69508944D01*
G37*
%TD.AperFunction*%
%TA.AperFunction,Conductor*%
G36*
X232204809Y-94270185D02*
G01*
X232225451Y-94286819D01*
X236326332Y-98387700D01*
X236359817Y-98449023D01*
X236354833Y-98518715D01*
X236341754Y-98544271D01*
X236290608Y-98620816D01*
X236290602Y-98620827D01*
X236230264Y-98766498D01*
X236230261Y-98766510D01*
X236199500Y-98921153D01*
X236199500Y-99078846D01*
X236230261Y-99233489D01*
X236230264Y-99233501D01*
X236290602Y-99379172D01*
X236290609Y-99379185D01*
X236378210Y-99510288D01*
X236378213Y-99510292D01*
X236489707Y-99621786D01*
X236489711Y-99621789D01*
X236620814Y-99709390D01*
X236620827Y-99709397D01*
X236766498Y-99769735D01*
X236766503Y-99769737D01*
X236921153Y-99800499D01*
X236921156Y-99800500D01*
X236921158Y-99800500D01*
X237078844Y-99800500D01*
X237078845Y-99800499D01*
X237155152Y-99785320D01*
X237233488Y-99769739D01*
X237233489Y-99769738D01*
X237233497Y-99769737D01*
X237257155Y-99759937D01*
X237304604Y-99750500D01*
X237675500Y-99750500D01*
X237742539Y-99770185D01*
X237788294Y-99822989D01*
X237799500Y-99874500D01*
X237799500Y-99878846D01*
X237830261Y-100033489D01*
X237830264Y-100033501D01*
X237890602Y-100179172D01*
X237890609Y-100179185D01*
X237978210Y-100310288D01*
X237978213Y-100310292D01*
X238089707Y-100421786D01*
X238089711Y-100421789D01*
X238220814Y-100509390D01*
X238220827Y-100509397D01*
X238334430Y-100556452D01*
X238366503Y-100569737D01*
X238521153Y-100600499D01*
X238521156Y-100600500D01*
X238521158Y-100600500D01*
X238678844Y-100600500D01*
X238678845Y-100600499D01*
X238785999Y-100579185D01*
X238833488Y-100569739D01*
X238833489Y-100569738D01*
X238833497Y-100569737D01*
X238857155Y-100559937D01*
X238904604Y-100550500D01*
X245637770Y-100550500D01*
X245704809Y-100570185D01*
X245725451Y-100586819D01*
X247413181Y-102274549D01*
X247446666Y-102335872D01*
X247449500Y-102362230D01*
X247449500Y-104239240D01*
X247429815Y-104306279D01*
X247377011Y-104352034D01*
X247307853Y-104361978D01*
X247256610Y-104342342D01*
X247179190Y-104290612D01*
X247179172Y-104290602D01*
X247033501Y-104230264D01*
X247033489Y-104230261D01*
X246878845Y-104199500D01*
X246878842Y-104199500D01*
X246721158Y-104199500D01*
X246721155Y-104199500D01*
X246566511Y-104230260D01*
X246566506Y-104230262D01*
X246566504Y-104230262D01*
X246566503Y-104230263D01*
X246542844Y-104240062D01*
X246495396Y-104249500D01*
X244304604Y-104249500D01*
X244257155Y-104240062D01*
X244233497Y-104230263D01*
X244233493Y-104230262D01*
X244233488Y-104230260D01*
X244078845Y-104199500D01*
X244078842Y-104199500D01*
X243921158Y-104199500D01*
X243921155Y-104199500D01*
X243766510Y-104230261D01*
X243766498Y-104230264D01*
X243620827Y-104290602D01*
X243620814Y-104290609D01*
X243489711Y-104378210D01*
X243489707Y-104378213D01*
X243378213Y-104489707D01*
X243378210Y-104489711D01*
X243290609Y-104620814D01*
X243290602Y-104620827D01*
X243230264Y-104766498D01*
X243230261Y-104766510D01*
X243199500Y-104921153D01*
X243199500Y-105075500D01*
X243179815Y-105142539D01*
X243127011Y-105188294D01*
X243075500Y-105199500D01*
X242921155Y-105199500D01*
X242766510Y-105230261D01*
X242766498Y-105230264D01*
X242620827Y-105290602D01*
X242620814Y-105290609D01*
X242489711Y-105378210D01*
X242489707Y-105378213D01*
X242378213Y-105489707D01*
X242378210Y-105489711D01*
X242290609Y-105620814D01*
X242290602Y-105620827D01*
X242230264Y-105766498D01*
X242230261Y-105766508D01*
X242208759Y-105874605D01*
X242176374Y-105936516D01*
X242115658Y-105971090D01*
X242045888Y-105967349D01*
X241999461Y-105938094D01*
X240474096Y-104412727D01*
X240474075Y-104412707D01*
X240078421Y-104017052D01*
X240078414Y-104017046D01*
X240004011Y-103967332D01*
X240003912Y-103967267D01*
X239955495Y-103934916D01*
X239955494Y-103934915D01*
X239955492Y-103934914D01*
X239818917Y-103878343D01*
X239818907Y-103878340D01*
X239673920Y-103849500D01*
X239673918Y-103849500D01*
X227104604Y-103849500D01*
X227057155Y-103840062D01*
X227033497Y-103830263D01*
X227033493Y-103830262D01*
X227033488Y-103830260D01*
X226878845Y-103799500D01*
X226878842Y-103799500D01*
X226721158Y-103799500D01*
X226721155Y-103799500D01*
X226566510Y-103830261D01*
X226566498Y-103830264D01*
X226420827Y-103890602D01*
X226420814Y-103890609D01*
X226289711Y-103978210D01*
X226289707Y-103978213D01*
X226178213Y-104089707D01*
X226178210Y-104089711D01*
X226090609Y-104220814D01*
X226090602Y-104220827D01*
X226030264Y-104366498D01*
X226030261Y-104366510D01*
X225999500Y-104521153D01*
X225999500Y-104678841D01*
X226003969Y-104701310D01*
X226002090Y-104722294D01*
X226005089Y-104743147D01*
X225999038Y-104756396D01*
X225997740Y-104770901D01*
X225984816Y-104787536D01*
X225976064Y-104806703D01*
X225963810Y-104814577D01*
X225954877Y-104826078D01*
X225935010Y-104833086D01*
X225917286Y-104844477D01*
X225892700Y-104848011D01*
X225888987Y-104849322D01*
X225882351Y-104849500D01*
X225704604Y-104849500D01*
X225657155Y-104840062D01*
X225633497Y-104830263D01*
X225633493Y-104830262D01*
X225633488Y-104830260D01*
X225478845Y-104799500D01*
X225478842Y-104799500D01*
X225324500Y-104799500D01*
X225257461Y-104779815D01*
X225211706Y-104727011D01*
X225200500Y-104675500D01*
X225200500Y-103920945D01*
X225200500Y-103920943D01*
X225159577Y-103768216D01*
X225159573Y-103768209D01*
X225080524Y-103631290D01*
X225080521Y-103631286D01*
X225080520Y-103631284D01*
X224968716Y-103519480D01*
X224968715Y-103519479D01*
X224964385Y-103515149D01*
X224964374Y-103515139D01*
X224687590Y-103238355D01*
X224687588Y-103238352D01*
X224568717Y-103119481D01*
X224568716Y-103119480D01*
X224481904Y-103069360D01*
X224431785Y-103040423D01*
X224363402Y-103022099D01*
X224356127Y-103019123D01*
X224334718Y-103002023D01*
X224311328Y-102987766D01*
X224307815Y-102980535D01*
X224301534Y-102975518D01*
X224292768Y-102949556D01*
X224280800Y-102924918D01*
X224281754Y-102916937D01*
X224279182Y-102909320D01*
X224285842Y-102882744D01*
X224289095Y-102855543D01*
X224294756Y-102847177D01*
X224296168Y-102841547D01*
X224302754Y-102835360D01*
X224315399Y-102816678D01*
X224421789Y-102710289D01*
X224509394Y-102579179D01*
X224569737Y-102433497D01*
X224600500Y-102278842D01*
X224600500Y-102121158D01*
X224600500Y-102121155D01*
X224600499Y-102121153D01*
X224569737Y-101966503D01*
X224540137Y-101895041D01*
X224527264Y-101863962D01*
X224519795Y-101794493D01*
X224551071Y-101732014D01*
X224574781Y-101713779D01*
X224574113Y-101712779D01*
X224710289Y-101621789D01*
X224821786Y-101510292D01*
X224821789Y-101510289D01*
X224909394Y-101379179D01*
X224969737Y-101233497D01*
X225000500Y-101078842D01*
X225000500Y-100921158D01*
X225000500Y-100921155D01*
X225000499Y-100921153D01*
X224980734Y-100821789D01*
X224969737Y-100766503D01*
X224919911Y-100646211D01*
X224909397Y-100620827D01*
X224909390Y-100620814D01*
X224821789Y-100489711D01*
X224821786Y-100489707D01*
X224710292Y-100378213D01*
X224710288Y-100378210D01*
X224579185Y-100290609D01*
X224579173Y-100290602D01*
X224552674Y-100279627D01*
X224433501Y-100230264D01*
X224433489Y-100230261D01*
X224278845Y-100199500D01*
X224278842Y-100199500D01*
X224121158Y-100199500D01*
X224121155Y-100199500D01*
X223966511Y-100230260D01*
X223966506Y-100230262D01*
X223966504Y-100230262D01*
X223966503Y-100230263D01*
X223942844Y-100240062D01*
X223895396Y-100249500D01*
X221926080Y-100249500D01*
X221781092Y-100278340D01*
X221781082Y-100278343D01*
X221644511Y-100334912D01*
X221644498Y-100334919D01*
X221521584Y-100417048D01*
X221521580Y-100417051D01*
X220904140Y-101034491D01*
X220884701Y-101053929D01*
X220844480Y-101080805D01*
X220820819Y-101090606D01*
X220820818Y-101090607D01*
X220689718Y-101178204D01*
X220683831Y-101184091D01*
X220622506Y-101217573D01*
X220571963Y-101218022D01*
X220478846Y-101199500D01*
X220478842Y-101199500D01*
X220321158Y-101199500D01*
X220321155Y-101199500D01*
X220166510Y-101230261D01*
X220166498Y-101230264D01*
X220020827Y-101290602D01*
X220020814Y-101290609D01*
X219889711Y-101378210D01*
X219889707Y-101378213D01*
X219778213Y-101489707D01*
X219778210Y-101489711D01*
X219690609Y-101620814D01*
X219690602Y-101620827D01*
X219630264Y-101766498D01*
X219630261Y-101766510D01*
X219599500Y-101921153D01*
X219599500Y-102078846D01*
X219630261Y-102233489D01*
X219630264Y-102233501D01*
X219690602Y-102379172D01*
X219690609Y-102379185D01*
X219778210Y-102510288D01*
X219778213Y-102510292D01*
X219889707Y-102621786D01*
X219889711Y-102621789D01*
X220020814Y-102709390D01*
X220020827Y-102709397D01*
X220158695Y-102766503D01*
X220166503Y-102769737D01*
X220230581Y-102782483D01*
X220321849Y-102800638D01*
X220383760Y-102833023D01*
X220385337Y-102834572D01*
X221631284Y-104080520D01*
X221631286Y-104080521D01*
X221631290Y-104080524D01*
X221768209Y-104159573D01*
X221768216Y-104159577D01*
X221920943Y-104200501D01*
X221920945Y-104200501D01*
X222086654Y-104200501D01*
X222086670Y-104200500D01*
X223875500Y-104200500D01*
X223942539Y-104220185D01*
X223988294Y-104272989D01*
X223999500Y-104324500D01*
X223999500Y-106275500D01*
X223979815Y-106342539D01*
X223927011Y-106388294D01*
X223875500Y-106399500D01*
X223466259Y-106399500D01*
X223399220Y-106379815D01*
X223353465Y-106327011D01*
X223351698Y-106322952D01*
X223309397Y-106220827D01*
X223309390Y-106220814D01*
X223221789Y-106089711D01*
X223221786Y-106089707D01*
X223110292Y-105978213D01*
X223110288Y-105978210D01*
X222979185Y-105890609D01*
X222979172Y-105890602D01*
X222833501Y-105830264D01*
X222833489Y-105830261D01*
X222678845Y-105799500D01*
X222678842Y-105799500D01*
X222521158Y-105799500D01*
X222521155Y-105799500D01*
X222366510Y-105830261D01*
X222366498Y-105830264D01*
X222220827Y-105890602D01*
X222220814Y-105890609D01*
X222089711Y-105978210D01*
X222089707Y-105978213D01*
X221978213Y-106089707D01*
X221978210Y-106089711D01*
X221890609Y-106220814D01*
X221890602Y-106220827D01*
X221830264Y-106366498D01*
X221830261Y-106366510D01*
X221799500Y-106521153D01*
X221799500Y-106678846D01*
X221830260Y-106833488D01*
X221830261Y-106833489D01*
X221830263Y-106833497D01*
X221863192Y-106912995D01*
X221870660Y-106982464D01*
X221851733Y-107029336D01*
X221790608Y-107120816D01*
X221790602Y-107120827D01*
X221730264Y-107266498D01*
X221730261Y-107266510D01*
X221699500Y-107421153D01*
X221699500Y-107578846D01*
X221730261Y-107733489D01*
X221730264Y-107733501D01*
X221790602Y-107879172D01*
X221790609Y-107879185D01*
X221878210Y-108010288D01*
X221878213Y-108010292D01*
X221989710Y-108121789D01*
X222120815Y-108209390D01*
X222120821Y-108209394D01*
X222144475Y-108219191D01*
X222184703Y-108246071D01*
X222521578Y-108582947D01*
X222521585Y-108582953D01*
X222579704Y-108621786D01*
X222579706Y-108621787D01*
X222579709Y-108621789D01*
X222644505Y-108665084D01*
X222644506Y-108665084D01*
X222644507Y-108665085D01*
X222750361Y-108708931D01*
X222781087Y-108721658D01*
X222781091Y-108721658D01*
X222781092Y-108721659D01*
X222926079Y-108750500D01*
X222926082Y-108750500D01*
X224088508Y-108750500D01*
X224186050Y-108731096D01*
X224233501Y-108721658D01*
X224370083Y-108665084D01*
X224434879Y-108621789D01*
X224434882Y-108621786D01*
X224434884Y-108621786D01*
X224464135Y-108602240D01*
X224493004Y-108582952D01*
X225789137Y-107286819D01*
X225850460Y-107253334D01*
X225876818Y-107250500D01*
X228637770Y-107250500D01*
X228704809Y-107270185D01*
X228725451Y-107286819D01*
X229213181Y-107774548D01*
X229246666Y-107835871D01*
X229249500Y-107862229D01*
X229249500Y-109195396D01*
X229240062Y-109242844D01*
X229237306Y-109249500D01*
X229230262Y-109266506D01*
X229230260Y-109266511D01*
X229199500Y-109421153D01*
X229199500Y-109578846D01*
X229230261Y-109733489D01*
X229230264Y-109733501D01*
X229290602Y-109879172D01*
X229290609Y-109879185D01*
X229378210Y-110010288D01*
X229378213Y-110010292D01*
X229489707Y-110121786D01*
X229489711Y-110121789D01*
X229620814Y-110209390D01*
X229620827Y-110209397D01*
X229755277Y-110265087D01*
X229766503Y-110269737D01*
X229921153Y-110300499D01*
X229921156Y-110300500D01*
X229921158Y-110300500D01*
X230078844Y-110300500D01*
X230078845Y-110300499D01*
X230233497Y-110269737D01*
X230379179Y-110209394D01*
X230510289Y-110121789D01*
X230621789Y-110010289D01*
X230709394Y-109879179D01*
X230769737Y-109733497D01*
X230800500Y-109578842D01*
X230800500Y-109421158D01*
X230800500Y-109421155D01*
X230800499Y-109421153D01*
X230769739Y-109266511D01*
X230769738Y-109266508D01*
X230769737Y-109266503D01*
X230759937Y-109242844D01*
X230750500Y-109195396D01*
X230750500Y-107426081D01*
X230750499Y-107426080D01*
X230732366Y-107334916D01*
X230721659Y-107281088D01*
X230684704Y-107191873D01*
X230665084Y-107144505D01*
X230582951Y-107021584D01*
X230478416Y-106917049D01*
X230478415Y-106917048D01*
X230394855Y-106833488D01*
X230123549Y-106562181D01*
X230090064Y-106500858D01*
X230095048Y-106431166D01*
X230136920Y-106375233D01*
X230202384Y-106350816D01*
X230211230Y-106350500D01*
X238837770Y-106350500D01*
X238904809Y-106370185D01*
X238925451Y-106386819D01*
X239829241Y-107290609D01*
X240576452Y-108037819D01*
X240609937Y-108099142D01*
X240604953Y-108168834D01*
X240563081Y-108224767D01*
X240497617Y-108249184D01*
X240488771Y-108249500D01*
X238304604Y-108249500D01*
X238257155Y-108240062D01*
X238233497Y-108230263D01*
X238233493Y-108230262D01*
X238233488Y-108230260D01*
X238078845Y-108199500D01*
X238078842Y-108199500D01*
X237921158Y-108199500D01*
X237921155Y-108199500D01*
X237766510Y-108230261D01*
X237766498Y-108230264D01*
X237620827Y-108290602D01*
X237620814Y-108290609D01*
X237489711Y-108378210D01*
X237489707Y-108378213D01*
X237378213Y-108489707D01*
X237378210Y-108489711D01*
X237290609Y-108620814D01*
X237290602Y-108620827D01*
X237230264Y-108766498D01*
X237230261Y-108766510D01*
X237199500Y-108921153D01*
X237199500Y-109078841D01*
X237203969Y-109101310D01*
X237197740Y-109170901D01*
X237154877Y-109226078D01*
X237088987Y-109249322D01*
X237082351Y-109249500D01*
X234304604Y-109249500D01*
X234257155Y-109240062D01*
X234233497Y-109230263D01*
X234233493Y-109230262D01*
X234233488Y-109230260D01*
X234078845Y-109199500D01*
X234078842Y-109199500D01*
X233921158Y-109199500D01*
X233921157Y-109199500D01*
X233899436Y-109203820D01*
X233829845Y-109197591D01*
X233774669Y-109154726D01*
X233772146Y-109151093D01*
X233749944Y-109117866D01*
X233749941Y-109117862D01*
X233638447Y-109006368D01*
X233638443Y-109006365D01*
X233507340Y-108918764D01*
X233507327Y-108918757D01*
X233361656Y-108858419D01*
X233361644Y-108858416D01*
X233207000Y-108827655D01*
X233206997Y-108827655D01*
X233049313Y-108827655D01*
X233049310Y-108827655D01*
X232894665Y-108858416D01*
X232894653Y-108858419D01*
X232748982Y-108918757D01*
X232748969Y-108918764D01*
X232617866Y-109006365D01*
X232617862Y-109006368D01*
X232506368Y-109117862D01*
X232506362Y-109117870D01*
X232418762Y-109248973D01*
X232418760Y-109248977D01*
X232408960Y-109272635D01*
X232382082Y-109312859D01*
X230447443Y-111247497D01*
X230386120Y-111280982D01*
X230316428Y-111275998D01*
X230260495Y-111234126D01*
X230245204Y-111207276D01*
X230209394Y-111120821D01*
X230209392Y-111120818D01*
X230209390Y-111120814D01*
X230121789Y-110989711D01*
X230121786Y-110989707D01*
X230010292Y-110878213D01*
X230010288Y-110878210D01*
X229879185Y-110790609D01*
X229879172Y-110790602D01*
X229733501Y-110730264D01*
X229733489Y-110730261D01*
X229578845Y-110699500D01*
X229578842Y-110699500D01*
X229421158Y-110699500D01*
X229421155Y-110699500D01*
X229266511Y-110730260D01*
X229266506Y-110730262D01*
X229266504Y-110730262D01*
X229266503Y-110730263D01*
X229242844Y-110740062D01*
X229195396Y-110749500D01*
X222862229Y-110749500D01*
X222795190Y-110729815D01*
X222774548Y-110713181D01*
X221978421Y-109917052D01*
X221978420Y-109917051D01*
X221921748Y-109879185D01*
X221895508Y-109861652D01*
X221855495Y-109834916D01*
X221855493Y-109834915D01*
X221855490Y-109834913D01*
X221718917Y-109778343D01*
X221718907Y-109778340D01*
X221573920Y-109749500D01*
X221573918Y-109749500D01*
X218862230Y-109749500D01*
X218795191Y-109729815D01*
X218774549Y-109713181D01*
X216478421Y-107417052D01*
X216478414Y-107417046D01*
X216404729Y-107367812D01*
X216404729Y-107367813D01*
X216355491Y-107334913D01*
X216218917Y-107278343D01*
X216218907Y-107278340D01*
X216073920Y-107249500D01*
X216073918Y-107249500D01*
X215304604Y-107249500D01*
X215257155Y-107240062D01*
X215233497Y-107230263D01*
X215233493Y-107230262D01*
X215233488Y-107230260D01*
X215078845Y-107199500D01*
X215078842Y-107199500D01*
X214921158Y-107199500D01*
X214921155Y-107199500D01*
X214766510Y-107230261D01*
X214766498Y-107230264D01*
X214620827Y-107290602D01*
X214620814Y-107290609D01*
X214489711Y-107378210D01*
X214489707Y-107378213D01*
X214378213Y-107489707D01*
X214378210Y-107489711D01*
X214290609Y-107620814D01*
X214290602Y-107620827D01*
X214230264Y-107766498D01*
X214230261Y-107766508D01*
X214198460Y-107926382D01*
X214166075Y-107988293D01*
X214105359Y-108022867D01*
X214035590Y-108019127D01*
X213989162Y-107989871D01*
X211599791Y-105600500D01*
X209119135Y-103119843D01*
X209107284Y-103098140D01*
X209091909Y-103078771D01*
X209090832Y-103068010D01*
X209085650Y-103058520D01*
X209087413Y-103033856D01*
X209084951Y-103009248D01*
X209089862Y-102999613D01*
X209090634Y-102988828D01*
X209105453Y-102969032D01*
X209116685Y-102947001D01*
X209127547Y-102939518D01*
X209132506Y-102932895D01*
X209144329Y-102925058D01*
X209151590Y-102920821D01*
X209179179Y-102909394D01*
X209234256Y-102872591D01*
X209237513Y-102870692D01*
X209267906Y-102863172D01*
X209297785Y-102853816D01*
X209301548Y-102854848D01*
X209305337Y-102853911D01*
X209334972Y-102864017D01*
X209365165Y-102872300D01*
X209368863Y-102874676D01*
X209420821Y-102909394D01*
X209420823Y-102909395D01*
X209420825Y-102909396D01*
X209490201Y-102938132D01*
X209566503Y-102969737D01*
X209716126Y-102999499D01*
X209721153Y-103000499D01*
X209721156Y-103000500D01*
X209721158Y-103000500D01*
X209878844Y-103000500D01*
X209878845Y-103000499D01*
X210033497Y-102969737D01*
X210150778Y-102921158D01*
X210179172Y-102909397D01*
X210179172Y-102909396D01*
X210179179Y-102909394D01*
X210310289Y-102821789D01*
X210421789Y-102710289D01*
X210509394Y-102579179D01*
X210569737Y-102433497D01*
X210600500Y-102278842D01*
X210600500Y-102121158D01*
X210600500Y-102121155D01*
X210600499Y-102121153D01*
X210569737Y-101966503D01*
X210534264Y-101880863D01*
X210509397Y-101820828D01*
X210509396Y-101820827D01*
X210509394Y-101820821D01*
X210446397Y-101726539D01*
X210425520Y-101659863D01*
X210425500Y-101657650D01*
X210425500Y-100171153D01*
X226449500Y-100171153D01*
X226449500Y-100328846D01*
X226480261Y-100483489D01*
X226480264Y-100483501D01*
X226540602Y-100629172D01*
X226540609Y-100629185D01*
X226628210Y-100760288D01*
X226628213Y-100760292D01*
X226739707Y-100871786D01*
X226739711Y-100871789D01*
X226870814Y-100959390D01*
X226870827Y-100959397D01*
X227016498Y-101019735D01*
X227016503Y-101019737D01*
X227171153Y-101050499D01*
X227171156Y-101050500D01*
X227171158Y-101050500D01*
X227328844Y-101050500D01*
X227328845Y-101050499D01*
X227409324Y-101034491D01*
X227483488Y-101019739D01*
X227483489Y-101019738D01*
X227483497Y-101019737D01*
X227507155Y-101009937D01*
X227554604Y-101000500D01*
X228137770Y-101000500D01*
X228167210Y-101009144D01*
X228197197Y-101015668D01*
X228202212Y-101019422D01*
X228204809Y-101020185D01*
X228225451Y-101036819D01*
X228253927Y-101065295D01*
X228280807Y-101105523D01*
X228290604Y-101129175D01*
X228290609Y-101129185D01*
X228378210Y-101260288D01*
X228378213Y-101260292D01*
X228489707Y-101371786D01*
X228489711Y-101371789D01*
X228620814Y-101459390D01*
X228620827Y-101459397D01*
X228766498Y-101519735D01*
X228766503Y-101519737D01*
X228921153Y-101550499D01*
X228921156Y-101550500D01*
X228921158Y-101550500D01*
X229078844Y-101550500D01*
X229078845Y-101550499D01*
X229233497Y-101519737D01*
X229379179Y-101459394D01*
X229510289Y-101371789D01*
X229621789Y-101260289D01*
X229709394Y-101129179D01*
X229769737Y-100983497D01*
X229800500Y-100828842D01*
X229800500Y-100671158D01*
X229800500Y-100671155D01*
X229800499Y-100671153D01*
X229786445Y-100600499D01*
X229769737Y-100516503D01*
X229766791Y-100509390D01*
X229709397Y-100370827D01*
X229709390Y-100370814D01*
X229621789Y-100239711D01*
X229621786Y-100239707D01*
X229510292Y-100128213D01*
X229510288Y-100128210D01*
X229379185Y-100040609D01*
X229379175Y-100040604D01*
X229355523Y-100030807D01*
X229315295Y-100003927D01*
X228978421Y-99667052D01*
X228978414Y-99667046D01*
X228893419Y-99610255D01*
X228893418Y-99610255D01*
X228855500Y-99584919D01*
X228855488Y-99584912D01*
X228718917Y-99528343D01*
X228718907Y-99528340D01*
X228573920Y-99499500D01*
X228573918Y-99499500D01*
X227554604Y-99499500D01*
X227507155Y-99490062D01*
X227483497Y-99480263D01*
X227483493Y-99480262D01*
X227483488Y-99480260D01*
X227328845Y-99449500D01*
X227328842Y-99449500D01*
X227171158Y-99449500D01*
X227171155Y-99449500D01*
X227016510Y-99480261D01*
X227016498Y-99480264D01*
X226870827Y-99540602D01*
X226870814Y-99540609D01*
X226739711Y-99628210D01*
X226739707Y-99628213D01*
X226628213Y-99739707D01*
X226628210Y-99739711D01*
X226540609Y-99870814D01*
X226540602Y-99870827D01*
X226480264Y-100016498D01*
X226480261Y-100016510D01*
X226449500Y-100171153D01*
X210425500Y-100171153D01*
X210425500Y-97710452D01*
X210445185Y-97643413D01*
X210461819Y-97622771D01*
X211971771Y-96112819D01*
X212033094Y-96079334D01*
X212059452Y-96076500D01*
X218183262Y-96076500D01*
X218250301Y-96096185D01*
X218296056Y-96148989D01*
X218306000Y-96218147D01*
X218276975Y-96281703D01*
X218218197Y-96319477D01*
X218207453Y-96322117D01*
X218166510Y-96330261D01*
X218166498Y-96330264D01*
X218020827Y-96390602D01*
X218020814Y-96390609D01*
X217889711Y-96478210D01*
X217889707Y-96478213D01*
X217778213Y-96589707D01*
X217778210Y-96589711D01*
X217690609Y-96720814D01*
X217690602Y-96720827D01*
X217630264Y-96866498D01*
X217630261Y-96866510D01*
X217599500Y-97021153D01*
X217599500Y-97178846D01*
X217630261Y-97333489D01*
X217630264Y-97333501D01*
X217690602Y-97479172D01*
X217690609Y-97479185D01*
X217778210Y-97610288D01*
X217778213Y-97610292D01*
X217889707Y-97721786D01*
X217889711Y-97721789D01*
X218020814Y-97809390D01*
X218020827Y-97809397D01*
X218120060Y-97850500D01*
X218166503Y-97869737D01*
X218321153Y-97900499D01*
X218321156Y-97900500D01*
X218321158Y-97900500D01*
X218478844Y-97900500D01*
X218478845Y-97900499D01*
X218555152Y-97885320D01*
X218633488Y-97869739D01*
X218633489Y-97869738D01*
X218633497Y-97869737D01*
X218657155Y-97859937D01*
X218704604Y-97850500D01*
X226795065Y-97850500D01*
X226862104Y-97870185D01*
X226863909Y-97871366D01*
X226920821Y-97909394D01*
X226920823Y-97909395D01*
X226920827Y-97909397D01*
X227048261Y-97962181D01*
X227066503Y-97969737D01*
X227221153Y-98000499D01*
X227221156Y-98000500D01*
X227221158Y-98000500D01*
X227378844Y-98000500D01*
X227378845Y-98000499D01*
X227533497Y-97969737D01*
X227679179Y-97909394D01*
X227810289Y-97821789D01*
X227921789Y-97710289D01*
X228009394Y-97579179D01*
X228069737Y-97433497D01*
X228100500Y-97278842D01*
X228100500Y-97121158D01*
X228100500Y-97121155D01*
X228100499Y-97121153D01*
X228093127Y-97084094D01*
X228069737Y-96966503D01*
X228050955Y-96921158D01*
X228009397Y-96820827D01*
X228009389Y-96820812D01*
X227982768Y-96780972D01*
X227971307Y-96759530D01*
X227965084Y-96744505D01*
X227957731Y-96733501D01*
X227882954Y-96621588D01*
X227882948Y-96621580D01*
X227778419Y-96517051D01*
X227778415Y-96517048D01*
X227655501Y-96434919D01*
X227655488Y-96434912D01*
X227518917Y-96378343D01*
X227518907Y-96378340D01*
X227373920Y-96349500D01*
X227373918Y-96349500D01*
X218704604Y-96349500D01*
X218670670Y-96344766D01*
X218663773Y-96342803D01*
X218633497Y-96330263D01*
X218587633Y-96321140D01*
X218582804Y-96319766D01*
X218557324Y-96303692D01*
X218530636Y-96289732D01*
X218528080Y-96285243D01*
X218523710Y-96282487D01*
X218510965Y-96255189D01*
X218496062Y-96229017D01*
X218496338Y-96223858D01*
X218494153Y-96219177D01*
X218498188Y-96189328D01*
X218499801Y-96159247D01*
X218502822Y-96155056D01*
X218503515Y-96149938D01*
X218523048Y-96127008D01*
X218540668Y-96102575D01*
X218545474Y-96100683D01*
X218548825Y-96096751D01*
X218577662Y-96088019D01*
X218605686Y-96076994D01*
X218615531Y-96076553D01*
X218615696Y-96076504D01*
X218615932Y-96076535D01*
X218616738Y-96076500D01*
X228765221Y-96076500D01*
X228832260Y-96096185D01*
X228878015Y-96148989D01*
X228879783Y-96153049D01*
X228890605Y-96179178D01*
X228890609Y-96179185D01*
X228978210Y-96310288D01*
X228978213Y-96310292D01*
X229089707Y-96421786D01*
X229089711Y-96421789D01*
X229220814Y-96509390D01*
X229220827Y-96509397D01*
X229366498Y-96569735D01*
X229366503Y-96569737D01*
X229521153Y-96600499D01*
X229521156Y-96600500D01*
X229521158Y-96600500D01*
X229678844Y-96600500D01*
X229678845Y-96600499D01*
X229833497Y-96569737D01*
X229960698Y-96517049D01*
X229979172Y-96509397D01*
X229979172Y-96509396D01*
X229979179Y-96509394D01*
X230110289Y-96421789D01*
X230221789Y-96310289D01*
X230221792Y-96310283D01*
X230225649Y-96305585D01*
X230227447Y-96307060D01*
X230273123Y-96268883D01*
X230342447Y-96260170D01*
X230405477Y-96290320D01*
X230410303Y-96294894D01*
X231138181Y-97022771D01*
X231171666Y-97084094D01*
X231174500Y-97110452D01*
X231174500Y-99089547D01*
X231154815Y-99156586D01*
X231138181Y-99177228D01*
X230941203Y-99374205D01*
X230879880Y-99407690D01*
X230877714Y-99408141D01*
X230766508Y-99430261D01*
X230766498Y-99430264D01*
X230620827Y-99490602D01*
X230620814Y-99490609D01*
X230489711Y-99578210D01*
X230489707Y-99578213D01*
X230378213Y-99689707D01*
X230378210Y-99689711D01*
X230290609Y-99820814D01*
X230290602Y-99820827D01*
X230230264Y-99966498D01*
X230230261Y-99966510D01*
X230199500Y-100121153D01*
X230199500Y-100278846D01*
X230230261Y-100433489D01*
X230230264Y-100433501D01*
X230290602Y-100579172D01*
X230290609Y-100579185D01*
X230378210Y-100710288D01*
X230378213Y-100710292D01*
X230489707Y-100821786D01*
X230489711Y-100821789D01*
X230620814Y-100909390D01*
X230620827Y-100909397D01*
X230766498Y-100969735D01*
X230766503Y-100969737D01*
X230921153Y-101000499D01*
X230921156Y-101000500D01*
X230921158Y-101000500D01*
X231078844Y-101000500D01*
X231078845Y-101000499D01*
X231233497Y-100969737D01*
X231336037Y-100927263D01*
X231405504Y-100919795D01*
X231467984Y-100951070D01*
X231486232Y-100974774D01*
X231487221Y-100974114D01*
X231578210Y-101110288D01*
X231578213Y-101110292D01*
X231689707Y-101221786D01*
X231689711Y-101221789D01*
X231820814Y-101309390D01*
X231820827Y-101309397D01*
X231948377Y-101362229D01*
X231966503Y-101369737D01*
X232121153Y-101400499D01*
X232121156Y-101400500D01*
X232121158Y-101400500D01*
X232278844Y-101400500D01*
X232278845Y-101400499D01*
X232433497Y-101369737D01*
X232579179Y-101309394D01*
X232710289Y-101221789D01*
X232821789Y-101110289D01*
X232909394Y-100979179D01*
X232969737Y-100833497D01*
X233000500Y-100678842D01*
X233000500Y-100646211D01*
X233009939Y-100598758D01*
X233018049Y-100579179D01*
X233027463Y-100556452D01*
X233036824Y-100509390D01*
X233045638Y-100465083D01*
X233048244Y-100451972D01*
X233051500Y-100435607D01*
X233051500Y-100312394D01*
X233051500Y-98684453D01*
X233071185Y-98617414D01*
X233082260Y-98603672D01*
X233081988Y-98603449D01*
X233085852Y-98598738D01*
X233085858Y-98598733D01*
X233154312Y-98496285D01*
X233201463Y-98382451D01*
X233202307Y-98378211D01*
X233225500Y-98261606D01*
X233225500Y-97542350D01*
X233245185Y-97475311D01*
X233246398Y-97473459D01*
X233280121Y-97422989D01*
X233309394Y-97379179D01*
X233311029Y-97375233D01*
X233337226Y-97311986D01*
X233369737Y-97233497D01*
X233400500Y-97078842D01*
X233400500Y-96921158D01*
X233400500Y-96921155D01*
X233400499Y-96921153D01*
X233380543Y-96820827D01*
X233369737Y-96766503D01*
X233309712Y-96621588D01*
X233309397Y-96620827D01*
X233309390Y-96620814D01*
X233221789Y-96489711D01*
X233221786Y-96489707D01*
X233110292Y-96378213D01*
X233110288Y-96378210D01*
X232979185Y-96290609D01*
X232979172Y-96290602D01*
X232833501Y-96230264D01*
X232833489Y-96230261D01*
X232678845Y-96199500D01*
X232678842Y-96199500D01*
X232521158Y-96199500D01*
X232521155Y-96199500D01*
X232366510Y-96230261D01*
X232366498Y-96230264D01*
X232265106Y-96272262D01*
X232195637Y-96279731D01*
X232133158Y-96248455D01*
X232129973Y-96245382D01*
X230495897Y-94611307D01*
X230485859Y-94601269D01*
X230485858Y-94601267D01*
X230398733Y-94514142D01*
X230345265Y-94478416D01*
X230338616Y-94473973D01*
X230332599Y-94468719D01*
X230319672Y-94448436D01*
X230299247Y-94424001D01*
X230298054Y-94414515D01*
X230295048Y-94409798D01*
X230295118Y-94391158D01*
X230290533Y-94354677D01*
X230295294Y-94344721D01*
X230295313Y-94339929D01*
X230303995Y-94326530D01*
X230320681Y-94291647D01*
X230330555Y-94285545D01*
X230333311Y-94281294D01*
X230348691Y-94274340D01*
X230380120Y-94254922D01*
X230396535Y-94252710D01*
X230396976Y-94252511D01*
X230397470Y-94252584D01*
X230412938Y-94250500D01*
X232137770Y-94250500D01*
X232204809Y-94270185D01*
G37*
%TD.AperFunction*%
%TA.AperFunction,Conductor*%
G36*
X227204809Y-93270185D02*
G01*
X227225451Y-93286819D01*
X227573293Y-93634660D01*
X227917049Y-93978416D01*
X228021584Y-94082951D01*
X228021587Y-94082953D01*
X228021588Y-94082954D01*
X228118035Y-94147398D01*
X228162841Y-94201010D01*
X228171548Y-94270335D01*
X228141394Y-94333362D01*
X228081951Y-94370082D01*
X228049145Y-94374500D01*
X211586228Y-94374500D01*
X211519189Y-94354815D01*
X211473434Y-94302011D01*
X211463490Y-94232853D01*
X211492515Y-94169297D01*
X211498547Y-94162819D01*
X212374548Y-93286819D01*
X212435871Y-93253334D01*
X212462229Y-93250500D01*
X227137770Y-93250500D01*
X227204809Y-93270185D01*
G37*
%TD.AperFunction*%
%TA.AperFunction,Conductor*%
G36*
X255605398Y-78367308D02*
G01*
X255618834Y-78368269D01*
X255636560Y-78381539D01*
X255656703Y-78390738D01*
X255663985Y-78402069D01*
X255674767Y-78410141D01*
X255682504Y-78430886D01*
X255694477Y-78449516D01*
X255697628Y-78471434D01*
X255699184Y-78475605D01*
X255699500Y-78484451D01*
X255699500Y-78578846D01*
X255730261Y-78733489D01*
X255730264Y-78733501D01*
X255790602Y-78879172D01*
X255790609Y-78879185D01*
X255878210Y-79010288D01*
X255878213Y-79010292D01*
X255989707Y-79121786D01*
X255989711Y-79121789D01*
X256120814Y-79209390D01*
X256120827Y-79209397D01*
X256258683Y-79266498D01*
X256266503Y-79269737D01*
X256421158Y-79300500D01*
X256421163Y-79300500D01*
X256427218Y-79301097D01*
X256427134Y-79301949D01*
X256467300Y-79309938D01*
X256567548Y-79351463D01*
X256688388Y-79375499D01*
X256688392Y-79375500D01*
X256688393Y-79375500D01*
X256688394Y-79375500D01*
X258439548Y-79375500D01*
X258468988Y-79384144D01*
X258498975Y-79390668D01*
X258503990Y-79394422D01*
X258506587Y-79395185D01*
X258527229Y-79411819D01*
X258527728Y-79412318D01*
X258561213Y-79473641D01*
X258556229Y-79543333D01*
X258527728Y-79587680D01*
X258514144Y-79601263D01*
X258514141Y-79601267D01*
X258445692Y-79703707D01*
X258445687Y-79703716D01*
X258398538Y-79817545D01*
X258398535Y-79817555D01*
X258374500Y-79938389D01*
X258374500Y-79957650D01*
X258354815Y-80024689D01*
X258353602Y-80026541D01*
X258290609Y-80120815D01*
X258290602Y-80120828D01*
X258230264Y-80266498D01*
X258230261Y-80266510D01*
X258199500Y-80421153D01*
X258199500Y-80578846D01*
X258230261Y-80733489D01*
X258230264Y-80733501D01*
X258290602Y-80879172D01*
X258290609Y-80879185D01*
X258378210Y-81010288D01*
X258378213Y-81010292D01*
X258489707Y-81121786D01*
X258489711Y-81121789D01*
X258620814Y-81209390D01*
X258620827Y-81209397D01*
X258766498Y-81269735D01*
X258766503Y-81269737D01*
X258921153Y-81300499D01*
X258921156Y-81300500D01*
X258921158Y-81300500D01*
X259078844Y-81300500D01*
X259078845Y-81300499D01*
X259233497Y-81269737D01*
X259379179Y-81209394D01*
X259510289Y-81121789D01*
X259621789Y-81010289D01*
X259709394Y-80879179D01*
X259769737Y-80733497D01*
X259771365Y-80725308D01*
X259803750Y-80663399D01*
X259864465Y-80628824D01*
X259892983Y-80625500D01*
X261689548Y-80625500D01*
X261718988Y-80634144D01*
X261748975Y-80640668D01*
X261753990Y-80644422D01*
X261756587Y-80645185D01*
X261777229Y-80661819D01*
X261811016Y-80695606D01*
X261811045Y-80695637D01*
X261901264Y-80785856D01*
X261901267Y-80785858D01*
X261934595Y-80808127D01*
X262003714Y-80854312D01*
X262061413Y-80878211D01*
X262117548Y-80901463D01*
X262147331Y-80907387D01*
X262238391Y-80925499D01*
X262238392Y-80925500D01*
X262238393Y-80925500D01*
X262861608Y-80925500D01*
X262861608Y-80925499D01*
X262952669Y-80907387D01*
X262982452Y-80901463D01*
X263038587Y-80878211D01*
X263096286Y-80854312D01*
X263165405Y-80808127D01*
X263198733Y-80785858D01*
X263285858Y-80698733D01*
X263285858Y-80698731D01*
X263287818Y-80696772D01*
X263349141Y-80663287D01*
X263418833Y-80668271D01*
X263474767Y-80710142D01*
X263499184Y-80775606D01*
X263499500Y-80784453D01*
X263499500Y-90420770D01*
X263493261Y-90442015D01*
X263491682Y-90464103D01*
X263483609Y-90474886D01*
X263479815Y-90487809D01*
X263463081Y-90502308D01*
X263449811Y-90520036D01*
X263437190Y-90524743D01*
X263427011Y-90533564D01*
X263405094Y-90536715D01*
X263384347Y-90544454D01*
X263371185Y-90541591D01*
X263357853Y-90543508D01*
X263337711Y-90534309D01*
X263316074Y-90529603D01*
X263298347Y-90516332D01*
X263294297Y-90514483D01*
X263287820Y-90508452D01*
X263229417Y-90450050D01*
X263229416Y-90450049D01*
X253284170Y-80504802D01*
X253250685Y-80443479D01*
X253255669Y-80373787D01*
X253297541Y-80317854D01*
X253363005Y-80293437D01*
X253396040Y-80295503D01*
X253421158Y-80300500D01*
X253578844Y-80300500D01*
X253578845Y-80300499D01*
X253733497Y-80269737D01*
X253879179Y-80209394D01*
X254010289Y-80121789D01*
X254121789Y-80010289D01*
X254209394Y-79879179D01*
X254269737Y-79733497D01*
X254291858Y-79622282D01*
X254324240Y-79560375D01*
X254325735Y-79558853D01*
X255487819Y-78396770D01*
X255507255Y-78386157D01*
X255523989Y-78371657D01*
X255537320Y-78369740D01*
X255549142Y-78363285D01*
X255571228Y-78364864D01*
X255593147Y-78361713D01*
X255605398Y-78367308D01*
G37*
%TD.AperFunction*%
%TD*%
M02*
